STARTFONT 2.1
FONT -FontForge-Pixel32 Chinese Pixel Font-Book-R-Normal--12-120-75-75-P-121-ISO10646-1
SIZE 12 75 75
FONTBOUNDINGBOX 28 41 -16 -29
COMMENT "Generated by fontforge, http://fontforge.sourceforge.net"
COMMENT "Copyright(c) 2022 32comic.com"
STARTPROPERTIES 34
FOUNDRY "FontForge"
FAMILY_NAME "Pixel32 Chinese Pixel Font"
WEIGHT_NAME "Book"
SLANT "R"
SETWIDTH_NAME "Normal"
ADD_STYLE_NAME ""
PIXEL_SIZE 12
POINT_SIZE 120
RESOLUTION_X 75
RESOLUTION_Y 75
SPACING "P"
AVERAGE_WIDTH 121
CHARSET_REGISTRY "ISO10646"
CHARSET_ENCODING "1"
FONTNAME_REGISTRY ""
CHARSET_COLLECTIONS "ISO8859-2 ISO8859-5 JISX0208.1997 GB2312.1980 BIG5 ISO10646-1"
FONT_NAME "Pixel32"
FACE_NAME "Pixel32 Chinese Pixel Font"
COPYRIGHT "Copyright(c) 2022 32comic.com"
FONT_VERSION "001.000"
FONT_ASCENT 11
FONT_DESCENT 1
UNDERLINE_POSITION 0
UNDERLINE_THICKNESS 1
X_HEIGHT 5
CAP_HEIGHT 8
RAW_ASCENT 800
RAW_DESCENT 200
NORM_SPACE 6
RELATIVE_WEIGHT 40
RELATIVE_SETWIDTH 50
FIGURE_WIDTH 6
AVG_LOWERCASE_WIDTH 86
AVG_UPPERCASE_WIDTH 96
ENDPROPERTIES
CHARS 6558
STARTCHAR exclam
ENCODING 33
SWIDTH 500 0
DWIDTH 6 0
BBX 1 9 2 0
BITMAP
80
80
80
80
80
80
00
00
80
ENDCHAR
STARTCHAR quotedbl
ENCODING 34
SWIDTH 500 0
DWIDTH 6 0
BBX 3 2 1 8
BITMAP
A0
A0
ENDCHAR
STARTCHAR numbersign
ENCODING 35
SWIDTH 500 0
DWIDTH 6 0
BBX 5 9 0 0
BITMAP
50
50
F8
50
50
50
F8
50
50
ENDCHAR
STARTCHAR dollar
ENCODING 36
SWIDTH 500 0
DWIDTH 6 0
BBX 5 9 0 0
BITMAP
20
78
A0
A0
70
28
28
F0
20
ENDCHAR
STARTCHAR percent
ENCODING 37
SWIDTH 500 0
DWIDTH 6 0
BBX 5 9 0 0
BITMAP
40
A0
48
10
20
40
90
28
10
ENDCHAR
STARTCHAR ampersand
ENCODING 38
SWIDTH 500 0
DWIDTH 6 0
BBX 6 9 0 0
BITMAP
30
48
48
30
64
94
88
94
64
ENDCHAR
STARTCHAR quotesingle
ENCODING 39
SWIDTH 500 0
DWIDTH 6 0
BBX 1 2 2 8
BITMAP
80
80
ENDCHAR
STARTCHAR parenleft
ENCODING 40
SWIDTH 500 0
DWIDTH 6 0
BBX 3 11 1 -1
BITMAP
20
40
40
80
80
80
80
80
40
40
20
ENDCHAR
STARTCHAR parenright
ENCODING 41
SWIDTH 500 0
DWIDTH 6 0
BBX 3 11 1 -1
BITMAP
80
40
40
20
20
20
20
20
40
40
80
ENDCHAR
STARTCHAR asterisk
ENCODING 42
SWIDTH 500 0
DWIDTH 6 0
BBX 5 7 0 1
BITMAP
20
A8
70
20
70
A8
20
ENDCHAR
STARTCHAR plus
ENCODING 43
SWIDTH 500 0
DWIDTH 6 0
BBX 5 5 0 2
BITMAP
20
20
F8
20
20
ENDCHAR
STARTCHAR comma
ENCODING 44
SWIDTH 500 0
DWIDTH 6 0
BBX 2 3 1 -1
BITMAP
40
40
80
ENDCHAR
STARTCHAR hyphen
ENCODING 45
SWIDTH 1000 0
DWIDTH 6 0
BBX 5 1 0 4
BITMAP
F8
ENDCHAR
STARTCHAR period
ENCODING 46
SWIDTH 500 0
DWIDTH 6 0
BBX 1 1 2 1
BITMAP
80
ENDCHAR
STARTCHAR slash
ENCODING 47
SWIDTH 500 0
DWIDTH 6 0
BBX 5 10 0 -1
BITMAP
08
08
10
10
20
20
40
40
80
80
ENDCHAR
STARTCHAR zero
ENCODING 48
SWIDTH 500 0
DWIDTH 6 0
BBX 5 9 0 0
BITMAP
70
88
88
88
88
88
88
88
70
ENDCHAR
STARTCHAR one
ENCODING 49
SWIDTH 500 0
DWIDTH 6 0
BBX 3 9 0 0
BITMAP
20
60
A0
20
20
20
20
20
20
ENDCHAR
STARTCHAR two
ENCODING 50
SWIDTH 500 0
DWIDTH 6 0
BBX 5 9 0 0
BITMAP
70
88
88
08
10
20
40
80
F8
ENDCHAR
STARTCHAR three
ENCODING 51
SWIDTH 500 0
DWIDTH 6 0
BBX 5 9 0 0
BITMAP
70
88
08
08
70
08
08
88
70
ENDCHAR
STARTCHAR four
ENCODING 52
SWIDTH 500 0
DWIDTH 6 0
BBX 5 9 0 0
BITMAP
30
30
50
50
90
90
F8
10
10
ENDCHAR
STARTCHAR five
ENCODING 53
SWIDTH 500 0
DWIDTH 6 0
BBX 5 9 0 0
BITMAP
F8
80
80
F0
08
08
88
88
70
ENDCHAR
STARTCHAR six
ENCODING 54
SWIDTH 500 0
DWIDTH 6 0
BBX 5 9 0 0
BITMAP
30
40
80
F0
88
88
88
88
70
ENDCHAR
STARTCHAR seven
ENCODING 55
SWIDTH 500 0
DWIDTH 6 0
BBX 5 9 0 0
BITMAP
F8
08
10
10
20
20
40
40
40
ENDCHAR
STARTCHAR eight
ENCODING 56
SWIDTH 500 0
DWIDTH 6 0
BBX 5 9 0 0
BITMAP
70
88
88
50
20
50
88
88
70
ENDCHAR
STARTCHAR nine
ENCODING 57
SWIDTH 500 0
DWIDTH 6 0
BBX 5 9 0 0
BITMAP
70
88
88
88
88
78
08
10
60
ENDCHAR
STARTCHAR colon
ENCODING 58
SWIDTH 500 0
DWIDTH 6 0
BBX 1 4 2 1
BITMAP
80
00
00
80
ENDCHAR
STARTCHAR semicolon
ENCODING 59
SWIDTH 500 0
DWIDTH 6 0
BBX 2 6 1 -1
BITMAP
40
00
00
40
40
80
ENDCHAR
STARTCHAR less
ENCODING 60
SWIDTH 500 0
DWIDTH 6 0
BBX 5 9 0 0
BITMAP
08
10
20
40
80
40
20
10
08
ENDCHAR
STARTCHAR equal
ENCODING 61
SWIDTH 500 0
DWIDTH 6 0
BBX 5 3 0 3
BITMAP
F8
00
F8
ENDCHAR
STARTCHAR greater
ENCODING 62
SWIDTH 500 0
DWIDTH 6 0
BBX 5 9 0 0
BITMAP
80
40
20
10
08
10
20
40
80
ENDCHAR
STARTCHAR question
ENCODING 63
SWIDTH 500 0
DWIDTH 6 0
BBX 5 9 0 0
BITMAP
70
88
88
08
10
20
20
00
20
ENDCHAR
STARTCHAR at
ENCODING 64
SWIDTH 500 0
DWIDTH 6 0
BBX 5 9 0 0
BITMAP
70
88
B8
A8
A8
A8
B8
80
70
ENDCHAR
STARTCHAR A
ENCODING 65
SWIDTH 500 0
DWIDTH 6 0
BBX 5 9 0 0
BITMAP
20
20
50
50
50
F8
88
88
88
ENDCHAR
STARTCHAR B
ENCODING 66
SWIDTH 500 0
DWIDTH 6 0
BBX 5 9 0 0
BITMAP
F0
88
88
88
F0
88
88
88
F0
ENDCHAR
STARTCHAR C
ENCODING 67
SWIDTH 500 0
DWIDTH 6 0
BBX 5 9 0 0
BITMAP
70
88
80
80
80
80
80
88
70
ENDCHAR
STARTCHAR D
ENCODING 68
SWIDTH 500 0
DWIDTH 6 0
BBX 5 9 0 0
BITMAP
E0
90
88
88
88
88
88
90
E0
ENDCHAR
STARTCHAR E
ENCODING 69
SWIDTH 500 0
DWIDTH 6 0
BBX 5 9 0 0
BITMAP
F8
80
80
80
F0
80
80
80
F8
ENDCHAR
STARTCHAR F
ENCODING 70
SWIDTH 500 0
DWIDTH 6 0
BBX 5 9 0 0
BITMAP
F8
80
80
80
F0
80
80
80
80
ENDCHAR
STARTCHAR G
ENCODING 71
SWIDTH 500 0
DWIDTH 6 0
BBX 5 9 0 0
BITMAP
70
88
80
80
B8
88
88
88
78
ENDCHAR
STARTCHAR H
ENCODING 72
SWIDTH 500 0
DWIDTH 6 0
BBX 5 9 0 0
BITMAP
88
88
88
88
F8
88
88
88
88
ENDCHAR
STARTCHAR I
ENCODING 73
SWIDTH 500 0
DWIDTH 6 0
BBX 3 9 1 0
BITMAP
E0
40
40
40
40
40
40
40
E0
ENDCHAR
STARTCHAR J
ENCODING 74
SWIDTH 500 0
DWIDTH 6 0
BBX 4 9 1 0
BITMAP
10
10
10
10
10
10
10
10
E0
ENDCHAR
STARTCHAR K
ENCODING 75
SWIDTH 500 0
DWIDTH 6 0
BBX 5 9 0 0
BITMAP
88
90
A0
C0
C0
A0
90
88
88
ENDCHAR
STARTCHAR L
ENCODING 76
SWIDTH 500 0
DWIDTH 6 0
BBX 5 9 0 0
BITMAP
80
80
80
80
80
80
80
80
F8
ENDCHAR
STARTCHAR M
ENCODING 77
SWIDTH 500 0
DWIDTH 6 0
BBX 5 9 0 0
BITMAP
88
D8
A8
88
88
88
88
88
88
ENDCHAR
STARTCHAR N
ENCODING 78
SWIDTH 500 0
DWIDTH 6 0
BBX 5 9 0 0
BITMAP
88
C8
A8
98
88
88
88
88
88
ENDCHAR
STARTCHAR O
ENCODING 79
SWIDTH 500 0
DWIDTH 6 0
BBX 5 9 0 0
BITMAP
70
88
88
88
88
88
88
88
70
ENDCHAR
STARTCHAR P
ENCODING 80
SWIDTH 500 0
DWIDTH 6 0
BBX 5 9 0 0
BITMAP
F0
88
88
88
F0
80
80
80
80
ENDCHAR
STARTCHAR Q
ENCODING 81
SWIDTH 500 0
DWIDTH 6 0
BBX 6 11 0 -2
BITMAP
70
88
88
88
88
88
88
88
70
08
0C
ENDCHAR
STARTCHAR R
ENCODING 82
SWIDTH 500 0
DWIDTH 6 0
BBX 5 9 0 0
BITMAP
F0
88
88
88
F0
A0
90
88
88
ENDCHAR
STARTCHAR S
ENCODING 83
SWIDTH 500 0
DWIDTH 6 0
BBX 5 9 0 0
BITMAP
70
88
80
80
70
08
08
88
70
ENDCHAR
STARTCHAR T
ENCODING 84
SWIDTH 500 0
DWIDTH 6 0
BBX 5 9 0 0
BITMAP
F8
20
20
20
20
20
20
20
20
ENDCHAR
STARTCHAR U
ENCODING 85
SWIDTH 500 0
DWIDTH 6 0
BBX 5 9 0 0
BITMAP
88
88
88
88
88
88
88
88
70
ENDCHAR
STARTCHAR V
ENCODING 86
SWIDTH 500 0
DWIDTH 6 0
BBX 5 9 0 0
BITMAP
88
88
88
88
50
50
50
20
20
ENDCHAR
STARTCHAR W
ENCODING 87
SWIDTH 500 0
DWIDTH 6 0
BBX 5 9 0 0
BITMAP
A8
A8
A8
A8
A8
A8
50
50
50
ENDCHAR
STARTCHAR X
ENCODING 88
SWIDTH 500 0
DWIDTH 6 0
BBX 5 9 0 0
BITMAP
88
88
50
50
20
50
50
88
88
ENDCHAR
STARTCHAR Y
ENCODING 89
SWIDTH 500 0
DWIDTH 6 0
BBX 5 9 0 0
BITMAP
88
88
50
50
20
20
20
20
20
ENDCHAR
STARTCHAR Z
ENCODING 90
SWIDTH 500 0
DWIDTH 6 0
BBX 5 9 0 0
BITMAP
F8
08
10
10
20
40
40
80
F8
ENDCHAR
STARTCHAR bracketleft
ENCODING 91
SWIDTH 500 0
DWIDTH 6 0
BBX 3 11 1 -1
BITMAP
E0
80
80
80
80
80
80
80
80
80
E0
ENDCHAR
STARTCHAR backslash
ENCODING 92
SWIDTH 500 0
DWIDTH 6 0
BBX 5 10 0 -1
BITMAP
80
80
40
40
20
20
10
10
08
08
ENDCHAR
STARTCHAR bracketright
ENCODING 93
SWIDTH 500 0
DWIDTH 6 0
BBX 3 11 1 -1
BITMAP
E0
20
20
20
20
20
20
20
20
20
E0
ENDCHAR
STARTCHAR asciicircum
ENCODING 94
SWIDTH 500 0
DWIDTH 6 0
BBX 5 3 0 7
BITMAP
20
50
88
ENDCHAR
STARTCHAR underscore
ENCODING 95
SWIDTH 1000 0
DWIDTH 6 0
BBX 4 1 1 -2
BITMAP
F0
ENDCHAR
STARTCHAR grave
ENCODING 96
SWIDTH 1000 0
DWIDTH 6 0
BBX 2 2 2 8
BITMAP
80
40
ENDCHAR
STARTCHAR a
ENCODING 97
SWIDTH 500 0
DWIDTH 6 0
BBX 5 6 0 0
BITMAP
70
08
78
88
88
78
ENDCHAR
STARTCHAR b
ENCODING 98
SWIDTH 500 0
DWIDTH 6 0
BBX 5 9 0 0
BITMAP
80
80
80
F0
88
88
88
88
F0
ENDCHAR
STARTCHAR c
ENCODING 99
SWIDTH 500 0
DWIDTH 6 0
BBX 5 6 0 0
BITMAP
70
88
80
80
88
70
ENDCHAR
STARTCHAR d
ENCODING 100
SWIDTH 500 0
DWIDTH 6 0
BBX 5 9 0 0
BITMAP
08
08
08
78
88
88
88
88
78
ENDCHAR
STARTCHAR e
ENCODING 101
SWIDTH 500 0
DWIDTH 6 0
BBX 5 6 0 0
BITMAP
70
88
F8
80
88
70
ENDCHAR
STARTCHAR f
ENCODING 102
SWIDTH 500 0
DWIDTH 6 0
BBX 5 9 0 0
BITMAP
18
20
20
20
F8
20
20
20
20
ENDCHAR
STARTCHAR g
ENCODING 103
SWIDTH 500 0
DWIDTH 6 0
BBX 5 8 0 -2
BITMAP
78
88
88
88
78
08
88
70
ENDCHAR
STARTCHAR h
ENCODING 104
SWIDTH 500 0
DWIDTH 6 0
BBX 5 9 0 0
BITMAP
80
80
80
B0
C8
88
88
88
88
ENDCHAR
STARTCHAR i
ENCODING 105
SWIDTH 500 0
DWIDTH 6 0
BBX 3 9 1 0
BITMAP
40
00
00
C0
40
40
40
40
E0
ENDCHAR
STARTCHAR j
ENCODING 106
SWIDTH 500 0
DWIDTH 6 0
BBX 4 11 0 -2
BITMAP
10
00
00
30
10
10
10
10
10
10
E0
ENDCHAR
STARTCHAR k
ENCODING 107
SWIDTH 500 0
DWIDTH 6 0
BBX 5 9 0 0
BITMAP
80
80
80
90
A0
C0
A0
90
88
ENDCHAR
STARTCHAR l
ENCODING 108
SWIDTH 500 0
DWIDTH 6 0
BBX 3 9 1 0
BITMAP
C0
40
40
40
40
40
40
40
60
ENDCHAR
STARTCHAR m
ENCODING 109
SWIDTH 500 0
DWIDTH 6 0
BBX 5 6 0 0
BITMAP
F0
A8
A8
A8
A8
A8
ENDCHAR
STARTCHAR n
ENCODING 110
SWIDTH 500 0
DWIDTH 6 0
BBX 5 6 0 0
BITMAP
B0
C8
88
88
88
88
ENDCHAR
STARTCHAR o
ENCODING 111
SWIDTH 500 0
DWIDTH 6 0
BBX 5 6 0 0
BITMAP
70
88
88
88
88
70
ENDCHAR
STARTCHAR p
ENCODING 112
SWIDTH 500 0
DWIDTH 6 0
BBX 5 8 0 -2
BITMAP
F0
88
88
88
F0
80
80
80
ENDCHAR
STARTCHAR q
ENCODING 113
SWIDTH 500 0
DWIDTH 6 0
BBX 5 8 0 -2
BITMAP
78
88
88
88
78
08
08
08
ENDCHAR
STARTCHAR r
ENCODING 114
SWIDTH 500 0
DWIDTH 6 0
BBX 4 6 0 0
BITMAP
B0
C0
80
80
80
80
ENDCHAR
STARTCHAR s
ENCODING 115
SWIDTH 500 0
DWIDTH 6 0
BBX 5 7 0 0
BITMAP
70
88
80
70
08
88
70
ENDCHAR
STARTCHAR t
ENCODING 116
SWIDTH 500 0
DWIDTH 6 0
BBX 4 9 0 0
BITMAP
40
40
40
F0
40
40
40
40
30
ENDCHAR
STARTCHAR u
ENCODING 117
SWIDTH 500 0
DWIDTH 6 0
BBX 5 6 0 0
BITMAP
88
88
88
88
88
78
ENDCHAR
STARTCHAR v
ENCODING 118
SWIDTH 500 0
DWIDTH 6 0
BBX 5 6 0 0
BITMAP
88
88
50
50
20
20
ENDCHAR
STARTCHAR w
ENCODING 119
SWIDTH 500 0
DWIDTH 6 0
BBX 5 6 0 0
BITMAP
A8
A8
A8
A8
50
50
ENDCHAR
STARTCHAR x
ENCODING 120
SWIDTH 500 0
DWIDTH 6 0
BBX 5 6 0 0
BITMAP
88
50
20
20
50
88
ENDCHAR
STARTCHAR y
ENCODING 121
SWIDTH 500 0
DWIDTH 6 0
BBX 5 8 0 -2
BITMAP
88
88
50
20
20
40
40
80
ENDCHAR
STARTCHAR z
ENCODING 122
SWIDTH 500 0
DWIDTH 6 0
BBX 5 6 0 0
BITMAP
F8
10
20
40
80
F8
ENDCHAR
STARTCHAR braceleft
ENCODING 123
SWIDTH 500 0
DWIDTH 6 0
BBX 5 11 0 -1
BITMAP
18
20
20
20
20
C0
20
20
20
20
18
ENDCHAR
STARTCHAR bar
ENCODING 124
SWIDTH 500 0
DWIDTH 6 0
BBX 1 11 2 -1
BITMAP
80
80
80
80
80
80
80
80
80
80
80
ENDCHAR
STARTCHAR braceright
ENCODING 125
SWIDTH 500 0
DWIDTH 6 0
BBX 5 11 0 -1
BITMAP
C0
20
20
20
20
18
20
20
20
20
C0
ENDCHAR
STARTCHAR asciitilde
ENCODING 126
SWIDTH 1000 0
DWIDTH 6 0
BBX 5 2 0 4
BITMAP
68
90
ENDCHAR
STARTCHAR uni4E00
ENCODING 19968
SWIDTH 1000 0
DWIDTH 12 0
BBX 11 1 0 4
BITMAP
FFE0
ENDCHAR
STARTCHAR uni4E01
ENCODING 19969
SWIDTH 1000 0
DWIDTH 12 0
BBX 11 11 0 -1
BITMAP
FFE0
0200
0200
0200
0200
0200
0200
0200
0200
0200
0E00
ENDCHAR
STARTCHAR uni4E03
ENCODING 19971
SWIDTH 1000 0
DWIDTH 12 0
BBX 11 11 0 -1
BITMAP
1000
1000
10E0
1F00
F000
1000
1000
1000
1040
1040
0FC0
ENDCHAR
STARTCHAR uni4E07
ENCODING 19975
SWIDTH 1000 0
DWIDTH 12 0
BBX 11 11 0 -1
BITMAP
FFE0
0800
0800
0FC0
0840
0840
0840
0840
1040
1040
2380
ENDCHAR
STARTCHAR uni4E08
ENCODING 19976
SWIDTH 1000 0
DWIDTH 12 0
BBX 11 11 0 -1
BITMAP
0200
0200
FFE0
0200
0200
1200
0A00
0400
0A00
3180
C060
ENDCHAR
STARTCHAR uni4E09
ENCODING 19977
SWIDTH 1000 0
DWIDTH 12 0
BBX 11 10 0 -1
BITMAP
7FC0
0000
0000
0000
3F80
0000
0000
0000
0000
FFE0
ENDCHAR
STARTCHAR uni4E0A
ENCODING 19978
SWIDTH 1000 0
DWIDTH 12 0
BBX 11 11 0 -1
BITMAP
0400
0400
0400
07C0
0400
0400
0400
0400
0400
0400
FFE0
ENDCHAR
STARTCHAR uni4E0B
ENCODING 19979
SWIDTH 1000 0
DWIDTH 12 0
BBX 11 11 0 -1
BITMAP
FFE0
0400
0400
0400
0700
04C0
0400
0400
0400
0400
0400
ENDCHAR
STARTCHAR uni4E0C
ENCODING 19980
SWIDTH 1000 0
DWIDTH 12 0
BBX 11 11 0 -1
BITMAP
FFE0
1100
1100
1100
1100
1100
1100
2100
2100
4100
8100
ENDCHAR
STARTCHAR uni4E0D
ENCODING 19981
SWIDTH 1000 0
DWIDTH 12 0
BBX 11 11 0 -1
BITMAP
FFE0
0100
0200
0400
0D00
3480
C440
0420
0400
0400
0400
ENDCHAR
STARTCHAR uni4E0E
ENCODING 19982
SWIDTH 1000 0
DWIDTH 12 0
BBX 11 11 0 -1
BITMAP
2000
3FE0
2000
2000
3FC0
2040
0340
1C40
E040
0040
01C0
ENDCHAR
STARTCHAR uni4E10
ENCODING 19984
SWIDTH 1000 0
DWIDTH 12 0
BBX 11 11 0 -1
BITMAP
FFE0
0400
47C0
4400
4400
7FC0
4040
0040
0040
0040
0180
ENDCHAR
STARTCHAR uni4E11
ENCODING 19985
SWIDTH 1000 0
DWIDTH 12 0
BBX 11 11 0 -1
BITMAP
7F80
0880
0880
0880
0880
FFE0
1100
1100
1100
1100
FFE0
ENDCHAR
STARTCHAR uni4E13
ENCODING 19987
SWIDTH 1083 0
DWIDTH 12 0
BBX 11 11 0 -1
BITMAP
0800
7FC0
1000
FFE0
1000
3FC0
0080
0100
1A00
0400
0200
ENDCHAR
STARTCHAR uni4E14
ENCODING 19988
SWIDTH 1000 0
DWIDTH 12 0
BBX 11 11 0 -1
BITMAP
3F80
2080
2080
3F80
2080
2080
3F80
2080
2080
2080
FFE0
ENDCHAR
STARTCHAR uni4E15
ENCODING 19989
SWIDTH 1000 0
DWIDTH 12 0
BBX 11 11 0 -1
BITMAP
FFE0
0100
0200
0400
0C80
3440
C420
0400
0400
0000
FFE0
ENDCHAR
STARTCHAR uni4E16
ENCODING 19990
SWIDTH 1000 0
DWIDTH 12 0
BBX 11 11 0 -1
BITMAP
2480
2480
2480
FFE0
2480
2480
2480
2780
2000
2000
3FE0
ENDCHAR
STARTCHAR uni4E18
ENCODING 19992
SWIDTH 1000 0
DWIDTH 12 0
BBX 11 11 0 -1
BITMAP
0180
3E00
2000
2000
3FC0
2100
2100
2100
2100
2100
FFE0
ENDCHAR
STARTCHAR uni4E19
ENCODING 19993
SWIDTH 1000 0
DWIDTH 12 0
BBX 11 11 0 -1
BITMAP
FFE0
0400
0400
FFE0
8420
8420
8A20
9120
A0A0
8020
8060
ENDCHAR
STARTCHAR uni4E1A
ENCODING 19994
SWIDTH 1000 0
DWIDTH 12 0
BBX 11 11 0 -1
BITMAP
0A00
0A00
0A20
4A20
4A40
2A40
2A80
2A00
0A00
0A00
FFE0
ENDCHAR
STARTCHAR uni4E1B
ENCODING 19995
SWIDTH 1000 0
DWIDTH 12 0
BBX 11 11 0 -1
BITMAP
1100
1100
1100
1100
1100
2A80
2A80
4440
8820
0000
FFE0
ENDCHAR
STARTCHAR uni4E1C
ENCODING 19996
SWIDTH 1000 0
DWIDTH 12 0
BBX 11 11 0 -1
BITMAP
0400
FFE0
0A00
1200
2200
7FE0
1280
1240
2220
4220
0C00
ENDCHAR
STARTCHAR uni4E1D
ENCODING 19997
SWIDTH 1000 0
DWIDTH 12 0
BBX 11 11 0 -1
BITMAP
1040
2080
2080
4920
F3C0
2080
4100
FBE0
0000
0000
FFE0
ENDCHAR
STARTCHAR uni4E1E
ENCODING 19998
SWIDTH 1000 0
DWIDTH 12 0
BBX 11 11 0 -1
BITMAP
3F80
0100
0200
F520
1540
2480
4440
8420
1C00
0000
FFE0
ENDCHAR
STARTCHAR uni4E22
ENCODING 20002
SWIDTH 1000 0
DWIDTH 12 0
BBX 11 11 0 -1
BITMAP
03C0
7C00
0400
7FC0
0400
0400
FFE0
0800
1080
2040
7FA0
ENDCHAR
STARTCHAR uni4E24
ENCODING 20004
SWIDTH 1000 0
DWIDTH 12 0
BBX 11 11 0 -1
BITMAP
FFE0
0900
7FE0
4920
4920
5520
52A0
64A0
4820
4020
40C0
ENDCHAR
STARTCHAR uni4E25
ENCODING 20005
SWIDTH 1000 0
DWIDTH 12 0
BBX 11 11 0 -1
BITMAP
7FE0
0500
2520
1540
1540
7FE0
4000
4000
4000
4000
8000
ENDCHAR
STARTCHAR uni4E27
ENCODING 20007
SWIDTH 1000 0
DWIDTH 12 0
BBX 11 11 0 -1
BITMAP
0400
FFE0
4440
2480
FFE0
4800
4440
4280
4100
4880
7060
ENDCHAR
STARTCHAR uni4E28
ENCODING 20008
SWIDTH 1000 0
DWIDTH 12 0
BBX 1 11 5 -1
BITMAP
80
80
80
80
80
80
80
80
80
80
80
ENDCHAR
STARTCHAR uni4E2A
ENCODING 20010
SWIDTH 1000 0
DWIDTH 12 0
BBX 11 11 0 -1
BITMAP
0E00
1100
2080
4440
8420
0400
0400
0400
0400
0400
0400
ENDCHAR
STARTCHAR uni4E2B
ENCODING 20011
SWIDTH 1000 0
DWIDTH 12 0
BBX 8 11 2 -1
BITMAP
81
42
24
08
10
10
10
10
10
10
10
ENDCHAR
STARTCHAR uni4E2D
ENCODING 20013
SWIDTH 1000 0
DWIDTH 12 0
BBX 11 11 0 -1
BITMAP
0400
0400
FFE0
8420
8420
8420
FFE0
0400
0400
0400
0400
ENDCHAR
STARTCHAR uni4E30
ENCODING 20016
SWIDTH 1083 0
DWIDTH 13 0
BBX 12 11 0 -1
BITMAP
0400
7FE0
0400
0400
3FC0
0400
0400
FFF0
0400
0400
0400
ENDCHAR
STARTCHAR uni4E32
ENCODING 20018
SWIDTH 1000 0
DWIDTH 12 0
BBX 11 11 0 -1
BITMAP
0400
7FC0
4440
4440
7FC0
0400
FFE0
8420
8420
FFE0
0400
ENDCHAR
STARTCHAR uni4E34
ENCODING 20020
SWIDTH 1000 0
DWIDTH 12 0
BBX 11 11 0 -1
BITMAP
2400
2400
A7E0
AA00
B100
A000
AFE0
A920
A920
2920
2FE0
ENDCHAR
STARTCHAR uni4E36
ENCODING 20022
SWIDTH 1000 0
DWIDTH 12 0
BBX 3 4 4 2
BITMAP
80
40
20
20
ENDCHAR
STARTCHAR uni4E38
ENCODING 20024
SWIDTH 1000 0
DWIDTH 12 0
BBX 11 11 0 -1
BITMAP
1000
1000
FF00
1100
1100
1100
3100
1100
2920
4520
80E0
ENDCHAR
STARTCHAR uni4E39
ENCODING 20025
SWIDTH 1000 0
DWIDTH 12 0
BBX 11 11 0 -1
BITMAP
1F80
1080
1480
1280
1080
FFE0
1080
1080
2080
2080
4380
ENDCHAR
STARTCHAR uni4E3A
ENCODING 20026
SWIDTH 1000 0
DWIDTH 12 0
BBX 11 11 0 -1
BITMAP
2200
1200
1200
7FE0
0420
0620
0520
0920
1020
2020
C0E0
ENDCHAR
STARTCHAR uni4E3B
ENCODING 20027
SWIDTH 1000 0
DWIDTH 12 0
BBX 11 11 0 -1
BITMAP
0800
0400
FFE0
0400
0400
0400
7FC0
0400
0400
0400
FFE0
ENDCHAR
STARTCHAR uni4E3D
ENCODING 20029
SWIDTH 1083 0
DWIDTH 13 0
BBX 12 11 0 -1
BITMAP
FFF0
0000
79E0
4920
4920
69A0
5960
4920
4920
4920
5960
ENDCHAR
STARTCHAR uni4E3E
ENCODING 20030
SWIDTH 1000 0
DWIDTH 12 0
BBX 11 11 0 -1
BITMAP
2440
1240
0080
FFE0
1100
2480
DF60
0400
7FC0
0400
0400
ENDCHAR
STARTCHAR uni4E3F
ENCODING 20031
SWIDTH 1000 0
DWIDTH 12 0
BBX 4 11 2 -1
BITMAP
10
10
10
10
10
10
10
20
20
40
80
ENDCHAR
STARTCHAR uni4E43
ENCODING 20035
SWIDTH 1000 0
DWIDTH 12 0
BBX 11 11 0 -1
BITMAP
7F80
0880
0880
0880
08E0
0820
1020
1020
2020
4020
81C0
ENDCHAR
STARTCHAR uni4E45
ENCODING 20037
SWIDTH 1000 0
DWIDTH 12 0
BBX 11 11 0 -1
BITMAP
1000
1000
1F80
2100
2100
4100
0200
0500
0880
3040
C020
ENDCHAR
STARTCHAR uni4E47
ENCODING 20039
SWIDTH 1000 0
DWIDTH 12 0
BBX 11 11 0 -1
BITMAP
0380
1C00
E800
0800
0800
0FE0
F800
0800
0820
0820
0FE0
ENDCHAR
STARTCHAR uni4E48
ENCODING 20040
SWIDTH 1000 0
DWIDTH 12 0
BBX 10 10 1 0
BITMAP
0400
0800
1100
2100
4200
8400
0900
1080
2080
FF40
ENDCHAR
STARTCHAR uni4E49
ENCODING 20041
SWIDTH 1000 0
DWIDTH 12 0
BBX 11 11 0 -1
BITMAP
4880
4480
2480
2100
1100
1200
0A00
0400
0A00
3180
C060
ENDCHAR
STARTCHAR uni4E4B
ENCODING 20043
SWIDTH 1000 0
DWIDTH 12 0
BBX 11 11 0 -1
BITMAP
0800
0400
7FC0
0040
0080
0100
0200
0400
0800
3000
CFE0
ENDCHAR
STARTCHAR uni4E4C
ENCODING 20044
SWIDTH 1000 0
DWIDTH 12 0
BBX 11 11 0 -1
BITMAP
0800
3F80
2080
2080
2380
2000
3FE0
0020
FFA0
0020
00E0
ENDCHAR
STARTCHAR uni4E4D
ENCODING 20045
SWIDTH 1000 0
DWIDTH 12 0
BBX 10 11 1 -1
BITMAP
4000
7FC0
4800
8800
0F80
0800
0800
0FC0
0800
0800
0800
ENDCHAR
STARTCHAR uni4E4E
ENCODING 20046
SWIDTH 1000 0
DWIDTH 12 0
BBX 11 11 0 -1
BITMAP
01C0
7E00
0400
4440
2480
0400
FFE0
0400
0400
0400
1C00
ENDCHAR
STARTCHAR uni4E4F
ENCODING 20047
SWIDTH 1000 0
DWIDTH 12 0
BBX 11 11 0 -1
BITMAP
03C0
7C00
0400
0400
FFC0
0080
0100
2200
2400
5800
87E0
ENDCHAR
STARTCHAR uni4E50
ENCODING 20048
SWIDTH 1000 0
DWIDTH 12 0
BBX 11 11 0 -1
BITMAP
3FC0
2000
2200
4200
7FE0
0200
1280
2240
4220
8220
0E00
ENDCHAR
STARTCHAR uni4E52
ENCODING 20050
SWIDTH 1000 0
DWIDTH 12 0
BBX 11 11 0 -1
BITMAP
0180
3E00
2000
2000
3FC0
2200
2200
FFE0
0800
3000
C000
ENDCHAR
STARTCHAR uni4E53
ENCODING 20051
SWIDTH 1000 0
DWIDTH 12 0
BBX 11 11 0 -1
BITMAP
3F80
2000
3FC0
2200
2200
2200
FFE0
0000
0300
0080
0040
ENDCHAR
STARTCHAR uni4E54
ENCODING 20052
SWIDTH 1083 0
DWIDTH 13 0
BBX 12 11 0 -1
BITMAP
03C0
7C00
0800
FFF0
1100
1080
28C0
C8B0
0880
1080
6080
ENDCHAR
STARTCHAR uni4E56
ENCODING 20054
SWIDTH 1000 0
DWIDTH 12 0
BBX 11 11 0 -1
BITMAP
7FC0
0400
FFE0
0400
1520
F540
1580
1500
3520
D4E0
0400
ENDCHAR
STARTCHAR uni4E58
ENCODING 20056
SWIDTH 1000 0
DWIDTH 12 0
BBX 11 11 0 -1
BITMAP
7FC0
0400
FFE0
1500
F560
1580
3500
D4E0
0E00
3580
C460
ENDCHAR
STARTCHAR uni4E59
ENCODING 20057
SWIDTH 1000 0
DWIDTH 12 0
BBX 10 10 1 0
BITMAP
FF00
0200
0400
0800
1000
2000
4000
8040
8040
7F80
ENDCHAR
STARTCHAR uni4E5C
ENCODING 20060
SWIDTH 1000 0
DWIDTH 12 0
BBX 11 11 0 -1
BITMAP
2000
2000
2700
3900
E100
2100
2900
2620
2020
2020
1FE0
ENDCHAR
STARTCHAR uni4E5D
ENCODING 20061
SWIDTH 1000 0
DWIDTH 12 0
BBX 11 11 0 -1
BITMAP
0800
0800
FF80
0880
0880
0880
0880
1080
10A0
20A0
C0E0
ENDCHAR
STARTCHAR uni4E5E
ENCODING 20062
SWIDTH 1000 0
DWIDTH 12 0
BBX 11 11 0 -1
BITMAP
2000
3FE0
4000
5F80
8100
0600
0800
1020
2020
2020
1FC0
ENDCHAR
STARTCHAR uni4E5F
ENCODING 20063
SWIDTH 1000 0
DWIDTH 12 0
BBX 11 11 0 -1
BITMAP
0400
24C0
2740
3C40
E440
2440
24C0
2400
2420
2020
1FE0
ENDCHAR
STARTCHAR uni4E60
ENCODING 20064
SWIDTH 1000 0
DWIDTH 12 0
BBX 10 11 1 -1
BITMAP
FFC0
2040
1040
0840
0240
0C40
3040
C040
0040
0040
03C0
ENDCHAR
STARTCHAR uni4E61
ENCODING 20065
SWIDTH 1000 0
DWIDTH 12 0
BBX 9 11 1 -1
BITMAP
0800
1080
2100
7E00
0800
1080
7F80
0100
0600
1800
E000
ENDCHAR
STARTCHAR uni4E66
ENCODING 20070
SWIDTH 1000 0
DWIDTH 12 0
BBX 11 11 0 -1
BITMAP
0840
7FA0
0880
0880
0880
FFE0
0820
0820
08E0
0800
0800
ENDCHAR
STARTCHAR uni4E69
ENCODING 20073
SWIDTH 1000 0
DWIDTH 12 0
BBX 11 11 0 -1
BITMAP
2100
2100
3D00
2100
2100
F900
8900
8920
8920
8920
F8E0
ENDCHAR
STARTCHAR uni4E70
ENCODING 20080
SWIDTH 1000 0
DWIDTH 12 0
BBX 11 11 0 -1
BITMAP
FFE0
0020
2440
1400
4400
2400
FFE0
0A00
1100
2080
C060
ENDCHAR
STARTCHAR uni4E71
ENCODING 20081
SWIDTH 1000 0
DWIDTH 12 0
BBX 11 11 0 -1
BITMAP
0D00
F100
2100
FD00
2100
2100
FD00
8500
8520
8520
FDE0
ENDCHAR
STARTCHAR uni4E73
ENCODING 20083
SWIDTH 1000 0
DWIDTH 12 0
BBX 11 11 0 -1
BITMAP
FE80
2280
9480
4080
FC80
0880
1080
FE80
10A0
10A0
30E0
ENDCHAR
STARTCHAR uni4E7E
ENCODING 20094
SWIDTH 1000 0
DWIDTH 12 0
BBX 11 11 0 -1
BITMAP
2100
F9E0
2200
FC00
8BE0
F840
8880
F900
2220
FC20
23E0
ENDCHAR
STARTCHAR uni4E86
ENCODING 20102
SWIDTH 1000 0
DWIDTH 12 0
BBX 9 11 1 -1
BITMAP
FF80
0100
0200
0400
0800
0800
0800
0800
0800
0800
3800
ENDCHAR
STARTCHAR uni4E88
ENCODING 20104
SWIDTH 1000 0
DWIDTH 12 0
BBX 11 11 0 -1
BITMAP
7F80
0100
0200
0400
FFE0
0440
0480
0400
0400
0400
1C00
ENDCHAR
STARTCHAR uni4E89
ENCODING 20105
SWIDTH 1000 0
DWIDTH 12 0
BBX 11 11 0 -1
BITMAP
1000
3F00
4200
BFC0
0440
FFE0
0440
7FC0
0400
0400
1C00
ENDCHAR
STARTCHAR uni4E8B
ENCODING 20107
SWIDTH 1000 0
DWIDTH 12 0
BBX 11 11 0 -1
BITMAP
0400
FFE0
2480
2480
7FC0
0440
FFE0
0440
7FC0
0400
1C00
ENDCHAR
STARTCHAR uni4E8C
ENCODING 20108
SWIDTH 1000 0
DWIDTH 12 0
BBX 11 8 0 0
BITMAP
7FC0
0000
0000
0000
0000
0000
0000
FFE0
ENDCHAR
STARTCHAR uni4E8D
ENCODING 20109
SWIDTH 1000 0
DWIDTH 12 0
BBX 11 11 0 -1
BITMAP
7FC0
0000
0000
FFE0
0400
0400
0400
0400
0400
0400
1C00
ENDCHAR
STARTCHAR uni4E8E
ENCODING 20110
SWIDTH 1000 0
DWIDTH 12 0
BBX 11 11 0 -1
BITMAP
7FC0
0400
0400
0400
0400
FFE0
0400
0400
0400
0400
1C00
ENDCHAR
STARTCHAR uni4E8F
ENCODING 20111
SWIDTH 1000 0
DWIDTH 12 0
BBX 11 11 0 -1
BITMAP
7F80
0000
0000
FFE0
0800
0800
1F80
0080
0080
0100
0600
ENDCHAR
STARTCHAR uni4E91
ENCODING 20113
SWIDTH 1000 0
DWIDTH 12 0
BBX 11 11 0 -1
BITMAP
7FC0
0000
0000
0000
FFE0
1000
1000
2100
2080
4040
7FA0
ENDCHAR
STARTCHAR uni4E92
ENCODING 20114
SWIDTH 1000 0
DWIDTH 12 0
BBX 11 11 0 -1
BITMAP
FFE0
0400
0800
0F80
1080
1100
2100
3E00
0200
0400
FFE0
ENDCHAR
STARTCHAR uni4E93
ENCODING 20115
SWIDTH 1083 0
DWIDTH 12 0
BBX 11 11 0 -1
BITMAP
7FC0
0000
0000
FFE0
1100
1100
1100
1100
2100
2100
4100
ENDCHAR
STARTCHAR uni4E94
ENCODING 20116
SWIDTH 1000 0
DWIDTH 12 0
BBX 11 11 0 -1
BITMAP
7FC0
0800
0800
0800
7F80
1080
1080
1080
1080
1080
FFE0
ENDCHAR
STARTCHAR uni4E95
ENCODING 20117
SWIDTH 1000 0
DWIDTH 12 0
BBX 11 11 0 -1
BITMAP
1100
1100
FFE0
1100
1100
1100
FFE0
1100
2100
2100
4100
ENDCHAR
STARTCHAR uni4E98
ENCODING 20120
SWIDTH 1000 0
DWIDTH 12 0
BBX 11 11 0 -1
BITMAP
FFE0
0000
3F80
2080
3F80
2080
2080
3F80
0000
0000
FFE0
ENDCHAR
STARTCHAR uni4E9A
ENCODING 20122
SWIDTH 1000 0
DWIDTH 12 0
BBX 12 11 0 -1
BITMAP
7FE0
0900
0900
4940
4940
2980
2980
0900
0900
0900
FFF0
ENDCHAR
STARTCHAR uni4E9B
ENCODING 20123
SWIDTH 1000 0
DWIDTH 12 0
BBX 11 11 0 -1
BITMAP
2200
2260
BB80
A200
A220
BA20
E3E0
0000
3F80
0000
FFE0
ENDCHAR
STARTCHAR uni4E9F
ENCODING 20127
SWIDTH 1000 0
DWIDTH 12 0
BBX 11 11 0 -1
BITMAP
FFE0
1000
1C00
05E0
F520
9540
9480
F540
0E20
0000
FFE0
ENDCHAR
STARTCHAR uni4EA0
ENCODING 20128
SWIDTH 1000 0
DWIDTH 12 0
BBX 11 4 0 5
BITMAP
0800
0400
0000
FFE0
ENDCHAR
STARTCHAR uni4EA1
ENCODING 20129
SWIDTH 1000 0
DWIDTH 12 0
BBX 11 11 0 -1
BITMAP
0400
0400
FFE0
2000
2000
2000
2000
2000
2000
2000
3FC0
ENDCHAR
STARTCHAR uni4EA2
ENCODING 20130
SWIDTH 1000 0
DWIDTH 12 0
BBX 11 11 0 -1
BITMAP
0400
FFE0
0000
1F00
1100
1100
1100
1100
1120
2120
C0E0
ENDCHAR
STARTCHAR uni4EA4
ENCODING 20132
SWIDTH 1000 0
DWIDTH 12 0
BBX 11 11 0 -1
BITMAP
0400
FFE0
1100
2080
4040
1100
0A00
0400
0A00
3180
C060
ENDCHAR
STARTCHAR uni4EA5
ENCODING 20133
SWIDTH 1000 0
DWIDTH 12 0
BBX 11 11 0 -1
BITMAP
0400
FFE0
1000
2100
7E00
0440
1880
6100
0600
1980
E060
ENDCHAR
STARTCHAR uni4EA6
ENCODING 20134
SWIDTH 1000 0
DWIDTH 12 0
BBX 11 11 0 -1
BITMAP
0800
0400
FFE0
0900
0900
4940
4940
8920
9120
1100
6300
ENDCHAR
STARTCHAR uni4EA7
ENCODING 20135
SWIDTH 1000 0
DWIDTH 12 0
BBX 11 11 0 -1
BITMAP
0200
3FE0
0880
0500
3FE0
2000
2000
2000
4000
4000
8000
ENDCHAR
STARTCHAR uni4EA8
ENCODING 20136
SWIDTH 1000 0
DWIDTH 12 0
BBX 11 11 0 -1
BITMAP
0400
FFE0
2080
3F80
0000
7FC0
0080
0100
0200
0200
0E00
ENDCHAR
STARTCHAR uni4EA9
ENCODING 20137
SWIDTH 1000 0
DWIDTH 12 0
BBX 11 11 0 -1
BITMAP
0800
0400
FFE0
0000
7FC0
4440
4440
7FC0
4440
4440
7FC0
ENDCHAR
STARTCHAR uni4EAB
ENCODING 20139
SWIDTH 1000 0
DWIDTH 12 0
BBX 11 11 0 -1
BITMAP
0400
FFE0
1100
1100
3F80
0100
0200
FFE0
0400
0400
1C00
ENDCHAR
STARTCHAR uni4EAC
ENCODING 20140
SWIDTH 1000 0
DWIDTH 12 0
BBX 11 11 0 -1
BITMAP
0400
FFE0
0000
3F80
2080
2080
3F80
0400
4440
8420
1C00
ENDCHAR
STARTCHAR uni4EAD
ENCODING 20141
SWIDTH 1000 0
DWIDTH 12 0
BBX 11 11 0 -1
BITMAP
0400
FFE0
2080
3F80
0000
FFE0
8020
7FC0
0400
0400
1C00
ENDCHAR
STARTCHAR uni4EAE
ENCODING 20142
SWIDTH 1000 0
DWIDTH 12 0
BBX 11 11 0 -1
BITMAP
0800
FFE0
2080
3F80
0000
FFE0
9220
1200
1200
2220
C3E0
ENDCHAR
STARTCHAR uni4EB2
ENCODING 20146
SWIDTH 1000 0
DWIDTH 12 0
BBX 11 11 0 -1
BITMAP
0400
7FC0
1100
0A00
FFE0
0400
7FE0
0400
2480
4440
9C20
ENDCHAR
STARTCHAR uni4EB3
ENCODING 20147
SWIDTH 1000 0
DWIDTH 12 0
BBX 11 11 0 -1
BITMAP
0400
FFE0
1100
1F00
0000
FFE0
8200
3C00
07C0
7C20
07E0
ENDCHAR
STARTCHAR uni4EB5
ENCODING 20149
SWIDTH 1000 0
DWIDTH 12 0
BBX 11 11 0 -1
BITMAP
0800
FFE0
2400
FF80
2480
F6A0
2560
C800
3480
6300
B8E0
ENDCHAR
STARTCHAR uni4EBA
ENCODING 20154
SWIDTH 1000 0
DWIDTH 12 0
BBX 11 11 0 -1
BITMAP
0400
0400
0400
0400
0A00
0A00
1100
1100
2080
4040
8020
ENDCHAR
STARTCHAR uni4EBB
ENCODING 20155
SWIDTH 583 0
DWIDTH 12 0
BBX 5 11 2 -1
BITMAP
08
08
10
30
50
90
10
10
10
10
10
ENDCHAR
STARTCHAR uni4EBF
ENCODING 20159
SWIDTH 1000 0
DWIDTH 12 0
BBX 11 11 0 -1
BITMAP
2FC0
2080
4100
4200
C200
4400
4800
4820
4820
4820
47E0
ENDCHAR
STARTCHAR uni4EC0
ENCODING 20160
SWIDTH 1000 0
DWIDTH 12 0
BBX 11 11 0 -1
BITMAP
2100
2100
4100
5FE0
C100
4100
4100
4100
4100
4100
4100
ENDCHAR
STARTCHAR uni4EC1
ENCODING 20161
SWIDTH 1000 0
DWIDTH 12 0
BBX 11 11 0 -1
BITMAP
2000
2FE0
4000
4000
C000
4000
4000
4000
4000
4000
4FE0
ENDCHAR
STARTCHAR uni4EC2
ENCODING 20162
SWIDTH 1000 0
DWIDTH 12 0
BBX 11 11 0 -1
BITMAP
2200
2200
4200
4FE0
C220
C220
4220
4420
4420
4820
50C0
ENDCHAR
STARTCHAR uni4EC3
ENCODING 20163
SWIDTH 1083 0
DWIDTH 12 0
BBX 11 11 0 -1
BITMAP
2000
2FE0
4100
4100
C100
4100
4100
4100
4100
4100
4700
ENDCHAR
STARTCHAR uni4EC4
ENCODING 20164
SWIDTH 1000 0
DWIDTH 12 0
BBX 11 10 0 -1
BITMAP
7FE0
4000
4200
4200
4200
4500
4500
4880
5040
A020
ENDCHAR
STARTCHAR uni4EC5
ENCODING 20165
SWIDTH 1000 0
DWIDTH 12 0
BBX 11 12 0 -1
BITMAP
1000
17E0
2020
2820
6840
6440
A440
2280
2100
2280
2440
2820
ENDCHAR
STARTCHAR uni4EC6
ENCODING 20166
SWIDTH 1000 0
DWIDTH 12 0
BBX 11 11 0 -1
BITMAP
1100
1100
2100
2100
6180
A140
2120
2100
2100
2100
2100
ENDCHAR
STARTCHAR uni4EC7
ENCODING 20167
SWIDTH 1000 0
DWIDTH 12 0
BBX 14 39 -3 -29
BITMAP
0480
0480
0BF0
0890
1890
0890
0890
0890
0894
0914
0A08
0000
0000
0000
0000
0000
0000
0000
0000
0000
0000
0000
0000
0000
0000
0000
0000
0000
0000
0000
0000
0000
0000
0000
0000
0000
0000
0000
8000
ENDCHAR
STARTCHAR uni4EC9
ENCODING 20169
SWIDTH 1083 0
DWIDTH 12 0
BBX 11 11 0 -1
BITMAP
2780
2480
4480
4480
C480
4480
4480
4480
48A0
48A0
5060
ENDCHAR
STARTCHAR uni4ECA
ENCODING 20170
SWIDTH 1000 0
DWIDTH 12 0
BBX 11 11 0 -1
BITMAP
0F00
1080
2040
5FA0
8000
0000
3FC0
0040
0080
0100
0E00
ENDCHAR
STARTCHAR uni4ECB
ENCODING 20171
SWIDTH 1000 0
DWIDTH 12 0
BBX 11 11 0 -1
BITMAP
0E00
1100
2080
5140
9120
1100
1100
2100
2100
4100
4100
ENDCHAR
STARTCHAR uni4ECD
ENCODING 20173
SWIDTH 1000 0
DWIDTH 12 0
BBX 11 11 0 -1
BITMAP
3F80
2480
4480
4480
C4E0
4420
4420
4820
4820
5020
50C0
ENDCHAR
STARTCHAR uni4ECE
ENCODING 20174
SWIDTH 1000 0
DWIDTH 12 0
BBX 11 11 0 -1
BITMAP
1100
1100
1100
1100
1100
1100
2A80
2A80
4440
4440
8820
ENDCHAR
STARTCHAR uni4ED1
ENCODING 20177
SWIDTH 1000 0
DWIDTH 12 0
BBX 11 11 0 -1
BITMAP
0E00
1100
2080
4040
A020
2300
2C00
3000
2040
2040
1FC0
ENDCHAR
STARTCHAR uni4ED3
ENCODING 20179
SWIDTH 1000 0
DWIDTH 12 0
BBX 11 11 0 -1
BITMAP
0600
0900
1080
2040
DFA0
1080
1080
1280
1120
1020
0FE0
ENDCHAR
STARTCHAR uni4ED4
ENCODING 20180
SWIDTH 1000 0
DWIDTH 12 0
BBX 11 11 0 -1
BITMAP
27E0
2020
4040
4080
C080
4FE0
4080
4080
4080
4080
4380
ENDCHAR
STARTCHAR uni4ED5
ENCODING 20181
SWIDTH 1000 0
DWIDTH 12 0
BBX 11 11 0 -1
BITMAP
2100
2100
4100
4FE0
C100
4100
4100
4100
4100
4100
4FE0
ENDCHAR
STARTCHAR uni4ED6
ENCODING 20182
SWIDTH 1000 0
DWIDTH 12 0
BBX 11 11 0 -1
BITMAP
2200
2AC0
4B40
4E40
DA40
4A40
4AC0
4A00
4A20
4820
4FE0
ENDCHAR
STARTCHAR uni4ED7
ENCODING 20183
SWIDTH 1000 0
DWIDTH 12 0
BBX 11 11 0 -1
BITMAP
2080
2080
4FE0
4080
C080
4480
4280
4180
4080
4340
4C20
ENDCHAR
STARTCHAR uni4ED8
ENCODING 20184
SWIDTH 1000 0
DWIDTH 12 0
BBX 11 11 0 -1
BITMAP
2040
2040
4FE0
4040
C040
4440
4240
4040
4040
4040
41C0
ENDCHAR
STARTCHAR uni4ED9
ENCODING 20185
SWIDTH 1000 0
DWIDTH 12 0
BBX 11 11 0 -1
BITMAP
2100
2100
4100
4920
C920
4920
4920
4920
4920
4920
4FE0
ENDCHAR
STARTCHAR uni4EDD
ENCODING 20189
SWIDTH 1000 0
DWIDTH 12 0
BBX 11 11 0 -1
BITMAP
0E00
1100
2080
4040
8020
3F80
0400
0400
0400
0400
7FC0
ENDCHAR
STARTCHAR uni4EDE
ENCODING 20190
SWIDTH 1000 0
DWIDTH 12 0
BBX 11 11 0 -1
BITMAP
2FE0
2220
4220
4A20
C620
4220
4320
4220
4420
4820
50E0
ENDCHAR
STARTCHAR uni4EDF
ENCODING 20191
SWIDTH 1000 0
DWIDTH 12 0
BBX 11 11 0 -1
BITMAP
20E0
2F00
4100
4100
C100
5FE0
4100
4100
4100
4100
4100
ENDCHAR
STARTCHAR uni4EE1
ENCODING 20193
SWIDTH 1083 0
DWIDTH 12 0
BBX 11 11 0 -1
BITMAP
2400
2400
4FE0
5000
CF80
4100
4200
4400
4820
4820
47E0
ENDCHAR
STARTCHAR uni4EE3
ENCODING 20195
SWIDTH 1000 0
DWIDTH 12 0
BBX 11 11 0 -1
BITMAP
2240
2220
4200
5FE0
C200
4200
4200
4100
4120
40A0
4040
ENDCHAR
STARTCHAR uni4EE4
ENCODING 20196
SWIDTH 1000 0
DWIDTH 12 0
BBX 11 11 0 -1
BITMAP
0400
0A00
3180
DF60
0000
7FC0
0080
1100
0A00
0400
0200
ENDCHAR
STARTCHAR uni4EE5
ENCODING 20197
SWIDTH 1000 0
DWIDTH 12 0
BBX 11 11 0 -1
BITMAP
2040
2440
2440
2240
2240
2040
2080
3880
C140
0620
1820
ENDCHAR
STARTCHAR uni4EE8
ENCODING 20200
SWIDTH 1083 0
DWIDTH 12 0
BBX 11 11 0 -1
BITMAP
2000
2FE0
4000
4000
C000
4FC0
4000
4000
4000
4000
5FE0
ENDCHAR
STARTCHAR uni4EEA
ENCODING 20202
SWIDTH 1000 0
DWIDTH 12 0
BBX 11 11 0 -1
BITMAP
2440
2240
5280
4880
C880
4500
4200
4200
4500
4880
5060
ENDCHAR
STARTCHAR uni4EEB
ENCODING 20203
SWIDTH 1083 0
DWIDTH 12 0
BBX 11 11 0 -1
BITMAP
1200
1200
2200
2480
6480
A900
3100
2240
2440
2FE0
2020
ENDCHAR
STARTCHAR uni4EEC
ENCODING 20204
SWIDTH 1000 0
DWIDTH 12 0
BBX 11 11 0 -1
BITMAP
15E0
2220
2820
6820
A820
2820
2820
2820
2820
2820
28C0
ENDCHAR
STARTCHAR uni4EF0
ENCODING 20208
SWIDTH 1000 0
DWIDTH 12 0
BBX 11 11 0 -1
BITMAP
2200
2DE0
4920
4920
C920
4920
4920
4B20
4D20
5960
4100
ENDCHAR
STARTCHAR uni4EF2
ENCODING 20210
SWIDTH 1000 0
DWIDTH 12 0
BBX 11 11 0 -1
BITMAP
2100
2100
5FE0
5120
D120
5120
5FE0
4100
4100
4100
4100
ENDCHAR
STARTCHAR uni4EF3
ENCODING 20211
SWIDTH 1000 0
DWIDTH 12 0
BBX 11 11 0 -1
BITMAP
2100
2900
4900
4920
CFC0
4900
4900
4900
4920
4B20
5DE0
ENDCHAR
STARTCHAR uni4EF5
ENCODING 20213
SWIDTH 1000 0
DWIDTH 12 0
BBX 11 11 0 -1
BITMAP
2400
2400
4FE0
4900
D100
4100
5FE0
4100
4100
4100
4100
ENDCHAR
STARTCHAR uni4EF6
ENCODING 20214
SWIDTH 1000 0
DWIDTH 12 0
BBX 11 11 0 -1
BITMAP
2900
2900
4FE0
4900
D100
4100
5FE0
4100
4100
4100
4100
ENDCHAR
STARTCHAR uni4EF7
ENCODING 20215
SWIDTH 1000 0
DWIDTH 12 0
BBX 11 11 0 -1
BITMAP
2300
2480
4840
5020
C480
4480
4480
4480
4480
4880
4880
ENDCHAR
STARTCHAR uni4EFB
ENCODING 20219
SWIDTH 1000 0
DWIDTH 12 0
BBX 11 10 0 -1
BITMAP
20C0
2F00
4100
4100
DFE0
4100
4100
4100
4100
4FE0
ENDCHAR
STARTCHAR uni4EFD
ENCODING 20221
SWIDTH 1000 0
DWIDTH 12 0
BBX 11 11 0 -1
BITMAP
2500
4480
4880
C840
5FA0
6480
4480
4480
4880
4880
5300
ENDCHAR
STARTCHAR uni4EFF
ENCODING 20223
SWIDTH 1083 0
DWIDTH 13 0
BBX 12 11 0 -1
BITMAP
1100
2FF0
2200
6200
63E0
A220
2220
2220
2420
2420
28C0
ENDCHAR
STARTCHAR uni4F01
ENCODING 20225
SWIDTH 1000 0
DWIDTH 12 0
BBX 11 11 0 -1
BITMAP
0E00
1100
2080
4440
8420
0400
2780
2400
2400
2400
FFE0
ENDCHAR
STARTCHAR uni4F09
ENCODING 20233
SWIDTH 1000 0
DWIDTH 12 0
BBX 11 11 0 -1
BITMAP
2100
2FE0
4000
4000
C780
4480
4480
4480
44A0
44A0
48E0
ENDCHAR
STARTCHAR uni4F0A
ENCODING 20234
SWIDTH 1000 0
DWIDTH 12 0
BBX 11 11 0 -1
BITMAP
2FE0
2120
4120
5FE0
C120
4120
4FE0
4100
4100
4200
4C00
ENDCHAR
STARTCHAR uni4F0D
ENCODING 20237
SWIDTH 1000 0
DWIDTH 12 0
BBX 11 11 0 -1
BITMAP
2000
3FE0
4200
4200
DFC0
4440
4440
4440
4440
4440
5FE0
ENDCHAR
STARTCHAR uni4F0E
ENCODING 20238
SWIDTH 1000 0
DWIDTH 12 0
BBX 11 11 0 -1
BITMAP
2100
2100
5FE0
4100
CFC0
4040
4440
4280
4100
4280
5C60
ENDCHAR
STARTCHAR uni4F0F
ENCODING 20239
SWIDTH 1000 0
DWIDTH 12 0
BBX 11 11 0 -1
BITMAP
2140
2120
4100
5FE0
C100
4100
4100
4280
4280
4440
5820
ENDCHAR
STARTCHAR uni4F10
ENCODING 20240
SWIDTH 1000 0
DWIDTH 12 0
BBX 11 11 0 -1
BITMAP
2240
2220
4200
5FE0
C100
4120
4140
4080
4180
4640
5820
ENDCHAR
STARTCHAR uni4F11
ENCODING 20241
SWIDTH 1000 0
DWIDTH 12 0
BBX 11 11 0 -1
BITMAP
2100
2100
5FE0
4100
C100
4300
4580
4940
5120
4100
4100
ENDCHAR
STARTCHAR uni4F17
ENCODING 20247
SWIDTH 1000 0
DWIDTH 12 0
BBX 11 11 0 -1
BITMAP
0400
0400
0A00
3180
C060
1100
1100
1100
2A80
4440
8820
ENDCHAR
STARTCHAR uni4F18
ENCODING 20248
SWIDTH 1000 0
DWIDTH 12 0
BBX 11 11 0 -1
BITMAP
2500
2480
4400
7FE0
C500
4500
4500
4500
4920
4920
51E0
ENDCHAR
STARTCHAR uni4F19
ENCODING 20249
SWIDTH 1000 0
DWIDTH 12 0
BBX 11 11 0 -1
BITMAP
2200
2200
4240
CA80
4B00
5200
4500
4500
4880
5040
6020
ENDCHAR
STARTCHAR uni4F1A
ENCODING 20250
SWIDTH 1000 0
DWIDTH 12 0
BBX 11 11 0 -1
BITMAP
0E00
1100
2080
5F40
8020
0000
FFE0
0800
1080
2080
3F40
ENDCHAR
STARTCHAR uni4F1B
ENCODING 20251
SWIDTH 1000 0
DWIDTH 12 0
BBX 11 11 0 -1
BITMAP
2000
2FE0
4800
4C40
CA80
4900
4900
4A80
4C40
4840
4FE0
ENDCHAR
STARTCHAR uni4F1E
ENCODING 20254
SWIDTH 1000 0
DWIDTH 12 0
BBX 11 12 0 -1
BITMAP
0400
0A00
1100
2480
C460
2480
1500
FFE0
0400
0400
0400
0400
ENDCHAR
STARTCHAR uni4F1F
ENCODING 20255
SWIDTH 1083 0
DWIDTH 12 0
BBX 11 11 0 -1
BITMAP
2200
2200
5FE0
4200
CFC0
4200
5FE0
4220
4220
42E0
4200
ENDCHAR
STARTCHAR uni4F20
ENCODING 20256
SWIDTH 1000 0
DWIDTH 12 0
BBX 11 11 0 -1
BITMAP
2100
2FC0
4100
5FE0
C200
4400
4FE0
4040
4480
4300
40C0
ENDCHAR
STARTCHAR uni4F22
ENCODING 20258
SWIDTH 1000 0
DWIDTH 12 0
BBX 11 11 0 -1
BITMAP
2000
2FE0
4080
4880
C880
5FE0
4280
4280
4480
4880
5380
ENDCHAR
STARTCHAR uni4F24
ENCODING 20260
SWIDTH 1000 0
DWIDTH 12 0
BBX 11 11 0 -1
BITMAP
1200
1200
23E0
2400
6900
A7E0
2120
2120
2220
2220
24E0
ENDCHAR
STARTCHAR uni4F25
ENCODING 20261
SWIDTH 1000 0
DWIDTH 12 0
BBX 11 11 0 -1
BITMAP
2800
2880
4900
4A00
CC00
7FE0
4A00
4A00
4900
4880
4E40
ENDCHAR
STARTCHAR uni4F26
ENCODING 20262
SWIDTH 1000 0
DWIDTH 12 0
BBX 11 11 0 -1
BITMAP
1100
2280
2440
6820
B440
2480
2500
2600
2420
2420
23E0
ENDCHAR
STARTCHAR uni4F27
ENCODING 20263
SWIDTH 1000 0
DWIDTH 12 0
BBX 11 11 0 -1
BITMAP
2200
2500
4880
5060
EF80
4880
4A80
4980
4820
4820
47E0
ENDCHAR
STARTCHAR uni4F2A
ENCODING 20266
SWIDTH 1000 0
DWIDTH 12 0
BBX 11 11 0 -1
BITMAP
2A00
2A00
4200
5FE0
C220
4220
4520
4520
4820
4820
50C0
ENDCHAR
STARTCHAR uni4F2B
ENCODING 20267
SWIDTH 1000 0
DWIDTH 12 0
BBX 11 11 0 -1
BITMAP
2000
2200
5FE0
5020
C000
4000
4000
4000
4000
4000
5FE0
ENDCHAR
STARTCHAR uni4F2F
ENCODING 20271
SWIDTH 1000 0
DWIDTH 12 0
BBX 11 11 0 -1
BITMAP
2100
2200
4FE0
4820
C820
4820
4FE0
4820
4820
4820
4FE0
ENDCHAR
STARTCHAR uni4F30
ENCODING 20272
SWIDTH 1000 0
DWIDTH 12 0
BBX 11 11 0 -1
BITMAP
2100
2100
4FE0
4100
C100
4100
4FE0
4820
4820
4820
4FE0
ENDCHAR
STARTCHAR uni4F32
ENCODING 20274
SWIDTH 1000 0
DWIDTH 12 0
BBX 11 11 0 -1
BITMAP
2FC0
2840
4840
4FC0
C800
4A40
4A80
4B00
5220
5220
63E0
ENDCHAR
STARTCHAR uni4F34
ENCODING 20276
SWIDTH 1000 0
DWIDTH 12 0
BBX 11 11 0 -1
BITMAP
2100
2920
4540
4100
CFE0
4100
4100
4FE0
4100
4100
4100
ENDCHAR
STARTCHAR uni4F36
ENCODING 20278
SWIDTH 1000 0
DWIDTH 12 0
BBX 11 11 0 -1
BITMAP
2380
2440
4820
47C0
C000
5FE0
4220
4220
4220
42C0
4200
ENDCHAR
STARTCHAR uni4F38
ENCODING 20280
SWIDTH 1000 0
DWIDTH 12 0
BBX 11 11 0 -1
BITMAP
2100
2FE0
4920
4920
CFE0
4920
4920
4FE0
4100
4100
4100
ENDCHAR
STARTCHAR uni4F3A
ENCODING 20282
SWIDTH 1000 0
DWIDTH 12 0
BBX 11 11 0 -1
BITMAP
2FE0
2020
4020
4F20
C020
4F20
4920
4920
4F20
4020
4060
ENDCHAR
STARTCHAR uni4F3C
ENCODING 20284
SWIDTH 1000 0
DWIDTH 12 0
BBX 11 11 0 -1
BITMAP
2840
2840
4A40
4940
C840
4840
4880
4C80
7140
4220
4C20
ENDCHAR
STARTCHAR uni4F3D
ENCODING 20285
SWIDTH 1000 0
DWIDTH 12 0
BBX 11 11 0 -1
BITMAP
2800
28E0
5EA0
4AA0
CAA0
4AA0
4AA0
4AA0
4AA0
4AA0
56E0
ENDCHAR
STARTCHAR uni4F43
ENCODING 20291
SWIDTH 1000 0
DWIDTH 12 0
BBX 11 11 0 -1
BITMAP
2000
2FE0
4920
4920
C920
4FE0
4920
4920
4920
4920
4FE0
ENDCHAR
STARTCHAR uni4F46
ENCODING 20294
SWIDTH 1000 0
DWIDTH 12 0
BBX 11 11 0 -1
BITMAP
2FE0
2820
4820
4FE0
C820
4820
4820
4FE0
4000
4000
4FE0
ENDCHAR
STARTCHAR uni4F4D
ENCODING 20301
SWIDTH 1000 0
DWIDTH 12 0
BBX 11 11 0 -1
BITMAP
2200
2100
5FE0
4000
C840
4840
4440
4440
4480
4080
5FE0
ENDCHAR
STARTCHAR uni4F4E
ENCODING 20302
SWIDTH 1000 0
DWIDTH 12 0
BBX 11 11 0 -1
BITMAP
20C0
2F00
4900
4900
CFE0
C900
4900
4880
4EA0
5860
4720
ENDCHAR
STARTCHAR uni4F4F
ENCODING 20303
SWIDTH 1000 0
DWIDTH 12 0
BBX 11 11 0 -1
BITMAP
2200
2100
5FE0
4100
C100
4100
4FE0
4100
4100
4100
5FE0
ENDCHAR
STARTCHAR uni4F50
ENCODING 20304
SWIDTH 1000 0
DWIDTH 12 0
BBX 11 11 0 -1
BITMAP
2200
3FE0
4400
4400
C400
4FE0
4880
5080
5080
6080
4FE0
ENDCHAR
STARTCHAR uni4F51
ENCODING 20305
SWIDTH 1000 0
DWIDTH 12 0
BBX 11 11 0 -1
BITMAP
2100
2FE0
4100
4100
C200
47E0
4C20
7420
4420
4420
47E0
ENDCHAR
STARTCHAR uni4F53
ENCODING 20307
SWIDTH 1000 0
DWIDTH 12 0
BBX 11 11 0 -1
BITMAP
2100
2100
5FE0
4100
C300
4580
4940
5120
4FC0
4100
4100
ENDCHAR
STARTCHAR uni4F55
ENCODING 20309
SWIDTH 1000 0
DWIDTH 12 0
BBX 11 11 0 -1
BITMAP
2FE0
2040
4040
4E40
CA40
4A40
4A40
4E40
4040
4040
41C0
ENDCHAR
STARTCHAR uni4F57
ENCODING 20311
SWIDTH 1000 0
DWIDTH 12 0
BBX 11 11 0 -1
BITMAP
2100
2FE0
4820
4000
C420
44C0
4700
4400
4420
4420
47E0
ENDCHAR
STARTCHAR uni4F58
ENCODING 20312
SWIDTH 1000 0
DWIDTH 12 0
BBX 11 12 0 -1
BITMAP
0400
0A00
1100
2080
DF60
0000
7FC0
0400
1500
2480
4440
1C00
ENDCHAR
STARTCHAR uni4F59
ENCODING 20313
SWIDTH 1000 0
DWIDTH 12 0
BBX 11 11 0 -1
BITMAP
0E00
1100
2080
5F40
8420
0400
7FC0
0400
4440
8420
1C00
ENDCHAR
STARTCHAR uni4F5A
ENCODING 20314
SWIDTH 1000 0
DWIDTH 12 0
BBX 11 11 0 -1
BITMAP
2100
2900
4FE0
5100
C100
4FE0
4100
4100
4280
4440
5820
ENDCHAR
STARTCHAR uni4F5B
ENCODING 20315
SWIDTH 1000 0
DWIDTH 12 0
BBX 11 11 0 -1
BITMAP
2280
3FE0
42A0
4FE0
CA80
4A80
4FE0
42A0
42A0
44C0
5880
ENDCHAR
STARTCHAR uni4F5C
ENCODING 20316
SWIDTH 1000 0
DWIDTH 12 0
BBX 11 11 0 -1
BITMAP
2400
27E0
4500
4900
C1E0
4100
4100
41E0
4100
4100
4100
ENDCHAR
STARTCHAR uni4F5D
ENCODING 20317
SWIDTH 1000 0
DWIDTH 12 0
BBX 11 11 0 -1
BITMAP
2400
27E0
4420
4820
C720
4520
4520
4720
4020
4020
41E0
ENDCHAR
STARTCHAR uni4F5E
ENCODING 20318
SWIDTH 1000 0
DWIDTH 12 0
BBX 11 11 0 -1
BITMAP
2FC0
2000
5FE0
4200
DFE0
4480
4480
4880
4700
4280
5C60
ENDCHAR
STARTCHAR uni4F5F
ENCODING 20319
SWIDTH 1000 0
DWIDTH 12 0
BBX 11 11 0 -1
BITMAP
2400
2400
47C0
4880
D500
4300
4480
5A60
6100
4400
4300
ENDCHAR
STARTCHAR uni4F60
ENCODING 20320
SWIDTH 1000 0
DWIDTH 12 0
BBX 11 11 0 -1
BITMAP
1200
1200
27E0
2420
6940
A100
2540
2520
2920
3120
2700
ENDCHAR
STARTCHAR uni4F63
ENCODING 20323
SWIDTH 1000 0
DWIDTH 12 0
BBX 11 11 0 -1
BITMAP
2FE0
2920
4920
4FE0
C920
4920
4FE0
4920
4920
4920
5160
ENDCHAR
STARTCHAR uni4F64
ENCODING 20324
SWIDTH 1000 0
DWIDTH 12 0
BBX 11 11 0 -1
BITMAP
2000
3FE0
4800
4800
CF80
4880
4E80
4980
48A0
4AA0
5CE0
ENDCHAR
STARTCHAR uni4F65
ENCODING 20325
SWIDTH 1000 0
DWIDTH 12 0
BBX 11 11 0 -1
BITMAP
0400
0A00
1100
2080
DF60
0000
2440
1480
1480
0100
FFE0
ENDCHAR
STARTCHAR uni4F67
ENCODING 20327
SWIDTH 1000 0
DWIDTH 12 0
BBX 11 11 0 -1
BITMAP
2200
2200
43E0
4200
FFE0
4200
4200
4300
4280
4240
4200
ENDCHAR
STARTCHAR uni4F69
ENCODING 20329
SWIDTH 1000 0
DWIDTH 12 0
BBX 11 11 0 -1
BITMAP
1FC0
3040
5F40
D440
5440
5F40
5540
5540
5540
5740
6420
ENDCHAR
STARTCHAR uni4F6C
ENCODING 20332
SWIDTH 1000 0
DWIDTH 12 0
BBX 11 11 0 -1
BITMAP
2240
2FC0
4280
C300
5FE0
4200
4480
4F00
5420
4420
43E0
ENDCHAR
STARTCHAR uni4F6F
ENCODING 20335
SWIDTH 1000 0
DWIDTH 12 0
BBX 11 11 0 -1
BITMAP
2440
2280
4FE0
4100
C100
4FE0
4100
4100
5FE0
4100
4100
ENDCHAR
STARTCHAR uni4F70
ENCODING 20336
SWIDTH 1000 0
DWIDTH 12 0
BBX 11 11 0 -1
BITMAP
2FE0
2200
4400
4FE0
C820
4820
4FE0
4820
4820
4820
4FE0
ENDCHAR
STARTCHAR uni4F73
ENCODING 20339
SWIDTH 1000 0
DWIDTH 12 0
BBX 11 11 0 -1
BITMAP
2100
2FE0
4100
4100
DFE0
4100
4100
4FE0
4100
4100
5FE0
ENDCHAR
STARTCHAR uni4F74
ENCODING 20340
SWIDTH 1000 0
DWIDTH 12 0
BBX 11 11 0 -1
BITMAP
2000
3FE0
4880
4F80
C880
4F80
4880
4880
7FE0
4080
4080
ENDCHAR
STARTCHAR uni4F76
ENCODING 20342
SWIDTH 1000 0
DWIDTH 12 0
BBX 11 11 0 -1
BITMAP
2100
2FE0
4100
4100
CFE0
4000
4FE0
4820
4820
4820
4FE0
ENDCHAR
STARTCHAR uni4F7B
ENCODING 20347
SWIDTH 1000 0
DWIDTH 12 0
BBX 11 11 0 -1
BITMAP
2500
2520
5540
4D00
C500
4580
4D40
5520
4500
4920
50E0
ENDCHAR
STARTCHAR uni4F7C
ENCODING 20348
SWIDTH 1000 0
DWIDTH 12 0
BBX 11 11 0 -1
BITMAP
2200
3FE0
4100
4480
C840
54A0
4480
4100
4200
4480
5860
ENDCHAR
STARTCHAR uni4F7E
ENCODING 20350
SWIDTH 1000 0
DWIDTH 12 0
BBX 11 11 0 -1
BITMAP
2500
2500
4880
5040
EFA0
4880
4F80
4880
4F80
4880
4980
ENDCHAR
STARTCHAR uni4F7F
ENCODING 20351
SWIDTH 1000 0
DWIDTH 12 0
BBX 11 11 0 -1
BITMAP
2100
2FE0
4100
4FE0
C920
4920
4FE0
4100
4500
4200
4DE0
ENDCHAR
STARTCHAR uni4F83
ENCODING 20355
SWIDTH 1000 0
DWIDTH 12 0
BBX 11 11 0 -1
BITMAP
2F80
2880
4880
4F80
C000
4A80
4A80
4A80
4AA0
52A0
6060
ENDCHAR
STARTCHAR uni4F84
ENCODING 20356
SWIDTH 1000 0
DWIDTH 12 0
BBX 11 11 0 -1
BITMAP
2000
3FE0
4400
4880
DF40
4200
4200
5FC0
4200
4200
7FE0
ENDCHAR
STARTCHAR uni4F88
ENCODING 20360
SWIDTH 1000 0
DWIDTH 12 0
BBX 11 11 0 -1
BITMAP
2100
23E0
4C20
4240
C180
4E00
43E0
4C20
4240
4180
5E00
ENDCHAR
STARTCHAR uni4F89
ENCODING 20361
SWIDTH 1000 0
DWIDTH 12 0
BBX 11 11 0 -1
BITMAP
2200
3FE0
4480
4FC0
D020
5FE0
4400
4FC0
4040
4040
4180
ENDCHAR
STARTCHAR uni4F8B
ENCODING 20363
SWIDTH 1000 0
DWIDTH 12 0
BBX 11 11 0 -1
BITMAP
3F20
28A0
48A0
4EA0
CAA0
52A0
4AA0
44A0
4420
4820
7060
ENDCHAR
STARTCHAR uni4F8D
ENCODING 20365
SWIDTH 1000 0
DWIDTH 12 0
BBX 11 11 0 -1
BITMAP
2100
2FE0
4100
4100
DFE0
4040
5FE0
4040
4440
4240
40C0
ENDCHAR
STARTCHAR uni4F8F
ENCODING 20367
SWIDTH 1000 0
DWIDTH 12 0
BBX 11 11 0 -1
BITMAP
2100
2500
4FE0
4900
D100
4FE0
4100
4380
4540
5920
4100
ENDCHAR
STARTCHAR uni4F91
ENCODING 20369
SWIDTH 1000 0
DWIDTH 12 0
BBX 11 11 0 -1
BITMAP
2100
2FE0
4200
4200
C7E0
4420
4FE0
5420
47E0
4420
4460
ENDCHAR
STARTCHAR uni4F94
ENCODING 20372
SWIDTH 1000 0
DWIDTH 12 0
BBX 11 11 0 -1
BITMAP
2200
2400
4840
5FA0
CA00
4FC0
5200
5200
7FE0
4200
4200
ENDCHAR
STARTCHAR uni4F97
ENCODING 20375
SWIDTH 1000 0
DWIDTH 12 0
BBX 11 11 0 -1
BITMAP
3FE0
5020
57A0
D020
57A0
54A0
54A0
57A0
5020
5020
50E0
ENDCHAR
STARTCHAR uni4F9B
ENCODING 20379
SWIDTH 1000 0
DWIDTH 12 0
BBX 11 11 0 -1
BITMAP
2480
2480
5FE0
4480
C480
4480
5FE0
4000
4480
4840
5020
ENDCHAR
STARTCHAR uni4F9D
ENCODING 20381
SWIDTH 1000 0
DWIDTH 12 0
BBX 11 11 0 -1
BITMAP
2100
3FE0
4200
4200
C520
4920
5940
6880
4880
4B40
5C20
ENDCHAR
STARTCHAR uni4FA0
ENCODING 20384
SWIDTH 1000 0
DWIDTH 12 0
BBX 11 11 0 -1
BITMAP
2100
2100
4FE0
4920
C540
4100
5FE0
4100
4280
4440
5820
ENDCHAR
STARTCHAR uni4FA3
ENCODING 20387
SWIDTH 1000 0
DWIDTH 12 0
BBX 11 11 0 -1
BITMAP
27C0
2440
4440
47C0
C000
4FE0
4820
4820
4820
4820
4FE0
ENDCHAR
STARTCHAR uni4FA5
ENCODING 20389
SWIDTH 1000 0
DWIDTH 12 0
BBX 11 11 0 -1
BITMAP
1260
2F80
2240
61A0
AE60
2000
3FE0
2480
24A0
24A0
2860
ENDCHAR
STARTCHAR uni4FA6
ENCODING 20390
SWIDTH 1000 0
DWIDTH 12 0
BBX 11 11 0 -1
BITMAP
1100
11E0
2100
27E0
6420
A520
2520
2520
2520
2280
2C60
ENDCHAR
STARTCHAR uni4FA7
ENCODING 20391
SWIDTH 1000 0
DWIDTH 12 0
BBX 12 11 0 -1
BITMAP
2010
5F50
5150
D550
5550
5550
5550
5550
4410
4A10
5120
ENDCHAR
STARTCHAR uni4FA8
ENCODING 20392
SWIDTH 1000 0
DWIDTH 12 0
BBX 11 11 0 -1
BITMAP
11E0
1E00
2200
3FE0
6280
A440
2A60
3240
2240
2240
2440
ENDCHAR
STARTCHAR uni4FA9
ENCODING 20393
SWIDTH 1000 0
DWIDTH 12 0
BBX 11 11 0 -1
BITMAP
1100
1280
2440
2820
67C0
6000
AFE0
2100
2200
2440
2FA0
ENDCHAR
STARTCHAR uni4FAA
ENCODING 20394
SWIDTH 1000 0
DWIDTH 12 0
BBX 11 11 0 -1
BITMAP
2200
3FE0
4480
4300
C480
5860
4480
4480
4480
4880
5080
ENDCHAR
STARTCHAR uni4FAC
ENCODING 20396
SWIDTH 1000 0
DWIDTH 12 0
BBX 11 11 0 -1
BITMAP
2200
3FE0
5420
4600
CA40
4A80
5900
6900
4880
4A40
4C20
ENDCHAR
STARTCHAR uni4FAE
ENCODING 20398
SWIDTH 1000 0
DWIDTH 12 0
BBX 11 11 0 -1
BITMAP
2400
27E0
4800
4FC0
C540
4540
5FE0
4A40
4A40
4FE0
4080
ENDCHAR
STARTCHAR uni4FAF
ENCODING 20399
SWIDTH 1000 0
DWIDTH 12 0
BBX 11 11 0 -1
BITMAP
2FC0
2040
4040
5FE0
C400
47E0
4900
5FE0
4280
4440
5820
ENDCHAR
STARTCHAR uni4FB5
ENCODING 20405
SWIDTH 1000 0
DWIDTH 12 0
BBX 11 11 0 -1
BITMAP
2FC0
2040
4FC0
4040
DFE0
5020
4FC0
4480
4300
4480
5860
ENDCHAR
STARTCHAR uni4FBF
ENCODING 20415
SWIDTH 1000 0
DWIDTH 12 0
BBX 11 11 0 -1
BITMAP
2FE0
2100
4FE0
4920
CFE0
4920
4FE0
4500
4300
4480
5860
ENDCHAR
STARTCHAR uni4FC3
ENCODING 20419
SWIDTH 1000 0
DWIDTH 12 0
BBX 11 11 0 -1
BITMAP
2FE0
2820
4820
4FE0
C100
4100
49E0
4900
4900
4F00
50E0
ENDCHAR
STARTCHAR uni4FC4
ENCODING 20420
SWIDTH 1000 0
DWIDTH 12 0
BBX 11 11 0 -1
BITMAP
2080
2EA0
4480
5FE0
C480
4680
4CA0
54C0
4580
44A0
5C40
ENDCHAR
STARTCHAR uni4FC5
ENCODING 20421
SWIDTH 1000 0
DWIDTH 12 0
BBX 11 11 0 -1
BITMAP
2280
2240
5FE0
4200
D220
4B40
4280
4680
5A40
4220
4600
ENDCHAR
STARTCHAR uni4FCA
ENCODING 20426
SWIDTH 1000 0
DWIDTH 12 0
BBX 11 11 0 -1
BITMAP
2280
2440
5FE0
4480
DA60
4380
4480
4A80
5100
4680
5860
ENDCHAR
STARTCHAR uni4FCE
ENCODING 20430
SWIDTH 1000 0
DWIDTH 12 0
BBX 11 11 0 -1
BITMAP
23C0
2240
2240
23C0
5240
8A40
23C0
2240
2240
5240
8FE0
ENDCHAR
STARTCHAR uni4FCF
ENCODING 20431
SWIDTH 1000 0
DWIDTH 12 0
BBX 11 11 0 -1
BITMAP
1100
1520
2540
2100
6FE0
A820
2FE0
2820
2FE0
2820
28C0
ENDCHAR
STARTCHAR uni4FD0
ENCODING 20432
SWIDTH 1000 0
DWIDTH 12 0
BBX 11 11 0 -1
BITMAP
2320
3CA0
44A0
44A0
DFA0
44A0
4CA0
4E20
5520
5420
4460
ENDCHAR
STARTCHAR uni4FD1
ENCODING 20433
SWIDTH 1000 0
DWIDTH 12 0
BBX 11 11 0 -1
BITMAP
2FC0
2440
4280
4FE0
C920
4FE0
4920
4FE0
4920
4920
4960
ENDCHAR
STARTCHAR uni4FD7
ENCODING 20439
SWIDTH 1000 0
DWIDTH 12 0
BBX 11 11 0 -1
BITMAP
2480
2840
4000
4300
C480
4840
5020
4FC0
4840
4840
4FC0
ENDCHAR
STARTCHAR uni4FD8
ENCODING 20440
SWIDTH 1000 0
DWIDTH 12 0
BBX 11 11 0 -1
BITMAP
2060
2F80
4A40
5120
CFC0
4080
4100
5FE0
4100
4100
4300
ENDCHAR
STARTCHAR uni4FDA
ENCODING 20442
SWIDTH 1000 0
DWIDTH 12 0
BBX 11 11 0 -1
BITMAP
2FE0
2920
4FE0
4920
C920
4FE0
4100
4FE0
4100
4100
4FE0
ENDCHAR
STARTCHAR uni4FDC
ENCODING 20444
SWIDTH 1083 0
DWIDTH 12 0
BBX 11 11 0 -1
BITMAP
2200
2FC0
4A40
4FC0
CA40
5FE0
4400
4FC0
4040
4040
41C0
ENDCHAR
STARTCHAR uni4FDD
ENCODING 20445
SWIDTH 1000 0
DWIDTH 12 0
BBX 11 11 0 -1
BITMAP
2FE0
2820
4820
4FE0
C100
4FE0
4300
4580
4940
5120
4100
ENDCHAR
STARTCHAR uni4FDE
ENCODING 20446
SWIDTH 1000 0
DWIDTH 12 0
BBX 10 11 1 -1
BITMAP
0C00
1200
2100
DEC0
0000
F840
8A40
FA40
8A40
FA40
88C0
ENDCHAR
STARTCHAR uni4FDF
ENCODING 20447
SWIDTH 1000 0
DWIDTH 12 0
BBX 11 11 0 -1
BITMAP
2280
2440
5FE0
4400
C7E0
4900
4900
5FE0
4280
4440
5820
ENDCHAR
STARTCHAR uni4FE1
ENCODING 20449
SWIDTH 1000 0
DWIDTH 12 0
BBX 11 11 0 -1
BITMAP
2200
3FE0
2000
4FC0
4000
CFC0
4000
4FC0
4840
4840
4FC0
ENDCHAR
STARTCHAR uni4FE3
ENCODING 20451
SWIDTH 1000 0
DWIDTH 12 0
BBX 11 11 0 -1
BITMAP
2FC0
2840
4840
4FC0
C000
5FC0
4200
5FE0
4500
4880
7060
ENDCHAR
STARTCHAR uni4FE6
ENCODING 20454
SWIDTH 1000 0
DWIDTH 12 0
BBX 11 11 0 -1
BITMAP
2200
3FE0
4400
5FC0
C400
7FE0
4880
4FE0
5480
6280
4180
ENDCHAR
STARTCHAR uni4FE8
ENCODING 20456
SWIDTH 1000 0
DWIDTH 12 0
BBX 11 11 0 -1
BITMAP
3FE0
2540
4D80
4500
DFE0
5000
5000
5000
5000
5000
6000
ENDCHAR
STARTCHAR uni4FE9
ENCODING 20457
SWIDTH 1000 0
DWIDTH 12 0
BBX 11 11 0 -1
BITMAP
2000
3FE0
4500
5FE0
D520
5520
5520
5AA0
5260
5420
50C0
ENDCHAR
STARTCHAR uni4FEA
ENCODING 20458
SWIDTH 1000 0
DWIDTH 12 0
BBX 11 11 0 -1
BITMAP
2FE0
2000
4EE0
4AA0
CAA0
4AA0
4EE0
4AA0
4AA0
4AA0
5760
ENDCHAR
STARTCHAR uni4FED
ENCODING 20461
SWIDTH 1000 0
DWIDTH 12 0
BBX 11 11 0 -1
BITMAP
2300
2480
4840
57A0
C000
4A40
4540
4540
4280
4080
5FE0
ENDCHAR
STARTCHAR uni4FEE
ENCODING 20462
SWIDTH 1000 0
DWIDTH 12 0
BBX 11 11 0 -1
BITMAP
2200
27C0
5A80
5100
D280
5D60
5640
5180
5640
5180
4E00
ENDCHAR
STARTCHAR uni4FEF
ENCODING 20463
SWIDTH 1000 0
DWIDTH 12 0
BBX 11 11 0 -1
BITMAP
2200
3FE0
5240
5240
D7E0
5C40
5540
54C0
5440
6440
44C0
ENDCHAR
STARTCHAR uni4FF1
ENCODING 20465
SWIDTH 1000 0
DWIDTH 12 0
BBX 11 11 0 -1
BITMAP
2F80
2880
4F80
C880
4F80
4880
4880
7FE0
4480
4840
5020
ENDCHAR
STARTCHAR uni4FF3
ENCODING 20467
SWIDTH 1000 0
DWIDTH 12 0
BBX 11 11 0 -1
BITMAP
2480
2480
5CE0
4480
DCE0
4480
4480
5CE0
4480
4880
5080
ENDCHAR
STARTCHAR uni4FF8
ENCODING 20472
SWIDTH 1000 0
DWIDTH 12 0
BBX 11 11 0 -1
BITMAP
2100
2FE0
4200
4FE0
C480
5FE0
4940
57E0
4100
4FE0
4100
ENDCHAR
STARTCHAR uni4FFA
ENCODING 20474
SWIDTH 1000 0
DWIDTH 12 0
BBX 11 11 0 -1
BITMAP
2200
3FE0
4880
5240
FFE0
5240
5FC0
5240
5FC0
4200
41E0
ENDCHAR
STARTCHAR uni4FFE
ENCODING 20478
SWIDTH 1000 0
DWIDTH 12 0
BBX 11 11 0 -1
BITMAP
2200
2FE0
4920
4FE0
C920
4920
4FE0
4280
5FE0
4080
4080
ENDCHAR
STARTCHAR uni500C
ENCODING 20492
SWIDTH 1083 0
DWIDTH 12 0
BBX 11 11 0 -1
BITMAP
2200
3FE0
5020
4FC0
C840
4FC0
4800
4FC0
4840
4840
4FC0
ENDCHAR
STARTCHAR uni500D
ENCODING 20493
SWIDTH 1000 0
DWIDTH 12 0
BBX 11 11 0 -1
BITMAP
2200
3FE0
4480
4480
DFE0
4000
4FC0
4840
4840
4840
4FC0
ENDCHAR
STARTCHAR uni500F
ENCODING 20495
SWIDTH 1000 0
DWIDTH 12 0
BBX 11 11 0 -1
BITMAP
2200
23C0
5680
5900
D280
5D60
5140
5FE0
5280
4440
5820
ENDCHAR
STARTCHAR uni5012
ENCODING 20498
SWIDTH 1000 0
DWIDTH 12 0
BBX 11 11 0 -1
BITMAP
3F20
2420
48A0
52A0
DDA0
44A0
44A0
5EA0
44A0
4620
5860
ENDCHAR
STARTCHAR uni5014
ENCODING 20500
SWIDTH 1000 0
DWIDTH 12 0
BBX 11 11 0 -1
BITMAP
2FE0
2820
4FE0
4880
CAA0
4AA0
4BE0
4880
4AA0
52A0
53E0
ENDCHAR
STARTCHAR uni5018
ENCODING 20504
SWIDTH 1000 0
DWIDTH 12 0
BBX 11 11 0 -1
BITMAP
2200
2A40
4680
4200
DFE0
5020
57A0
54A0
54A0
57A0
5060
ENDCHAR
STARTCHAR uni5019
ENCODING 20505
SWIDTH 1000 0
DWIDTH 12 0
BBX 11 11 0 -1
BITMAP
27C0
2040
5040
5FE0
D200
53E0
5480
57E0
5080
5140
4620
ENDCHAR
STARTCHAR uni501A
ENCODING 20506
SWIDTH 1000 0
DWIDTH 12 0
BBX 11 11 0 -1
BITMAP
2100
2FE0
4280
4440
C820
5FE0
4040
4740
4540
4740
40C0
ENDCHAR
STARTCHAR uni501C
ENCODING 20508
SWIDTH 1000 0
DWIDTH 12 0
BBX 11 11 0 -1
BITMAP
2FE0
2920
4FE0
4920
CFE0
4820
4BE0
4A60
4BE0
5020
60E0
ENDCHAR
STARTCHAR uni501F
ENCODING 20511
SWIDTH 1000 0
DWIDTH 12 0
BBX 11 11 0 -1
BITMAP
2480
3FE0
4480
4480
DFE0
4000
4FC0
4840
4FC0
4840
4FC0
ENDCHAR
STARTCHAR uni5021
ENCODING 20513
SWIDTH 1000 0
DWIDTH 12 0
BBX 11 11 0 -1
BITMAP
2FC0
2840
4FC0
4840
CFC0
4000
5FE0
5020
5FE0
5020
5FE0
ENDCHAR
STARTCHAR uni5025
ENCODING 20517
SWIDTH 1000 0
DWIDTH 12 0
BBX 11 11 0 -1
BITMAP
2200
3FE0
5020
4500
C520
49E0
5000
4FC0
4200
4200
5FE0
ENDCHAR
STARTCHAR uni5026
ENCODING 20518
SWIDTH 1000 0
DWIDTH 12 0
BBX 11 11 0 -1
BITMAP
2A40
2A80
5FE0
4480
DFE0
4440
4FE0
7840
4FC0
4820
4FE0
ENDCHAR
STARTCHAR uni5028
ENCODING 20520
SWIDTH 1000 0
DWIDTH 12 0
BBX 11 11 0 -1
BITMAP
2FE0
2820
4FE0
4880
CFE0
4880
4880
4FE0
5420
5420
47E0
ENDCHAR
STARTCHAR uni5029
ENCODING 20521
SWIDTH 1000 0
DWIDTH 12 0
BBX 11 11 0 -1
BITMAP
2200
2FC0
4200
4FC0
C200
5FE0
4A40
4FC0
4840
4840
48C0
ENDCHAR
STARTCHAR uni502A
ENCODING 20522
SWIDTH 1000 0
DWIDTH 12 0
BBX 11 11 0 -1
BITMAP
2200
2CE0
4820
4EE0
C820
4820
4FE0
4280
4280
44A0
58E0
ENDCHAR
STARTCHAR uni502C
ENCODING 20524
SWIDTH 1000 0
DWIDTH 12 0
BBX 11 11 0 -1
BITMAP
2200
23E0
4200
4FC0
C840
4FC0
4840
4FC0
4200
5FE0
4200
ENDCHAR
STARTCHAR uni502D
ENCODING 20525
SWIDTH 1000 0
DWIDTH 12 0
BBX 11 11 0 -1
BITMAP
2FC0
2100
5FE0
4580
D960
4200
5FE0
4480
4D00
4380
5C40
ENDCHAR
STARTCHAR uni502E
ENCODING 20526
SWIDTH 1000 0
DWIDTH 12 0
BBX 11 11 0 -1
BITMAP
2FC0
2940
4FC0
4940
CFC0
4100
5FE0
4580
4940
7120
4100
ENDCHAR
STARTCHAR uni503A
ENCODING 20538
SWIDTH 1000 0
DWIDTH 12 0
BBX 11 11 0 -1
BITMAP
1100
1FE0
2100
2FC0
6100
BFE0
2440
2540
2540
2280
2C60
ENDCHAR
STARTCHAR uni503C
ENCODING 20540
SWIDTH 1000 0
DWIDTH 12 0
BBX 11 11 0 -1
BITMAP
1100
1FE0
2100
27C0
6440
A7C0
2440
27C0
2440
2440
2FE0
ENDCHAR
STARTCHAR uni503E
ENCODING 20542
SWIDTH 1000 0
DWIDTH 12 0
BBX 11 11 0 -1
BITMAP
43E0
5080
53E0
DE20
52A0
52A0
56A0
5AA0
5080
4140
4620
ENDCHAR
STARTCHAR uni5043
ENCODING 20547
SWIDTH 1000 0
DWIDTH 12 0
BBX 11 11 0 -1
BITMAP
2FE0
2A20
4BE0
4A20
CBE0
4880
4FE0
4940
49C0
4A20
4FE0
ENDCHAR
STARTCHAR uni5047
ENCODING 20551
SWIDTH 1000 0
DWIDTH 12 0
BBX 11 11 0 -1
BITMAP
2EE0
2A20
4A20
4EE0
C800
48E0
4E20
48A0
4EA0
4840
48A0
ENDCHAR
STARTCHAR uni5048
ENCODING 20552
SWIDTH 1000 0
DWIDTH 12 0
BBX 11 11 0 -1
BITMAP
2FC0
2840
4FC0
4840
CFC0
4400
4FE0
5920
4AA0
4F20
40C0
ENDCHAR
STARTCHAR uni504C
ENCODING 20556
SWIDTH 1083 0
DWIDTH 12 0
BBX 11 11 0 -1
BITMAP
2480
3FE0
4480
4200
DFE0
4400
4800
57C0
6440
4440
47C0
ENDCHAR
STARTCHAR uni504E
ENCODING 20558
SWIDTH 1000 0
DWIDTH 12 0
BBX 11 11 1 -1
BITMAP
2FC0
2A40
4FC0
4A40
CFC0
4000
7FE0
4A80
4900
4E80
4860
ENDCHAR
STARTCHAR uni504F
ENCODING 20559
SWIDTH 1000 0
DWIDTH 12 0
BBX 11 11 0 -1
BITMAP
2FE0
2800
4FE0
4820
CFE0
4800
5FE0
6AA0
4FE0
4AA0
4AA0
ENDCHAR
STARTCHAR uni5055
ENCODING 20565
SWIDTH 1000 0
DWIDTH 12 0
BBX 11 11 0 -1
BITMAP
2880
2EE0
4880
4880
CE60
4100
4FE0
4820
4FE0
4820
4FE0
ENDCHAR
STARTCHAR uni505A
ENCODING 20570
SWIDTH 1000 0
DWIDTH 12 0
BBX 11 11 0 -1
BITMAP
2900
29E0
5D40
4A40
C940
5D40
5540
5480
5480
5D40
4220
ENDCHAR
STARTCHAR uni505C
ENCODING 20572
SWIDTH 1000 0
DWIDTH 12 0
BBX 11 11 0 -1
BITMAP
2200
3FE0
4840
4FC0
C000
5FE0
5020
4FC0
4100
4100
4700
ENDCHAR
STARTCHAR uni5065
ENCODING 20581
SWIDTH 1000 0
DWIDTH 12 0
BBX 11 11 0 -1
BITMAP
2080
23E0
5CA0
47E0
C8A0
4BE0
5C80
47E0
4880
5480
63E0
ENDCHAR
STARTCHAR uni506C
ENCODING 20588
SWIDTH 1000 0
DWIDTH 12 0
BBX 11 11 0 -1
BITMAP
2400
2FE0
52A0
4CA0
CB20
52A0
4040
4200
4940
68A0
4780
ENDCHAR
STARTCHAR uni5076
ENCODING 20598
SWIDTH 1000 0
DWIDTH 12 0
BBX 11 11 0 -1
BITMAP
2FE0
2920
4FE0
4920
CFE0
4100
4FE0
4A20
4AA0
4FA0
4860
ENDCHAR
STARTCHAR uni5077
ENCODING 20599
SWIDTH 1000 0
DWIDTH 12 0
BBX 11 11 0 -1
BITMAP
2200
2500
4880
5740
E020
5C40
5540
5D40
5540
5D40
54C0
ENDCHAR
STARTCHAR uni507B
ENCODING 20603
SWIDTH 1083 0
DWIDTH 12 0
BBX 11 11 0 -1
BITMAP
2A40
2680
5FE0
4A80
D260
4400
5FE0
4480
4C80
4300
5CE0
ENDCHAR
STARTCHAR uni507E
ENCODING 20606
SWIDTH 1000 0
DWIDTH 12 0
BBX 11 11 0 -1
BITMAP
2100
2FE0
4540
5FE0
C440
4FE0
4820
4920
4920
4280
5C60
ENDCHAR
STARTCHAR uni507F
ENCODING 20607
SWIDTH 1000 0
DWIDTH 12 0
BBX 11 11 0 -1
BITMAP
2940
2100
5FE0
5020
CFC0
4000
5FE0
4200
4440
4840
5FA0
ENDCHAR
STARTCHAR uni5080
ENCODING 20608
SWIDTH 1000 0
DWIDTH 12 0
BBX 11 11 0 -1
BITMAP
2200
2FE0
4920
4FE0
C920
4920
4FE0
4540
45C0
4920
48E0
ENDCHAR
STARTCHAR uni5085
ENCODING 20613
SWIDTH 1000 0
DWIDTH 12 0
BBX 11 11 0 -1
BITMAP
2140
2FE0
4100
4FE0
C920
4FE0
4920
4040
5FE0
4440
42C0
ENDCHAR
STARTCHAR uni5088
ENCODING 20616
SWIDTH 1000 0
DWIDTH 12 0
BBX 11 11 0 -1
BITMAP
3FE0
2280
4FE0
4AA0
CFE0
4100
5FE0
4300
4540
5920
4300
ENDCHAR
STARTCHAR uni508D
ENCODING 20621
SWIDTH 1000 0
DWIDTH 12 0
BBX 11 11 0 -1
BITMAP
2100
3FE0
4480
5FE0
D220
4FC0
4200
43C0
4440
4440
48C0
ENDCHAR
STARTCHAR uni50A3
ENCODING 20643
SWIDTH 1000 0
DWIDTH 12 0
BBX 11 11 0 -1
BITMAP
2200
3FC0
4200
5FC0
C400
7FE0
5240
6AA0
4700
4A80
5240
ENDCHAR
STARTCHAR uni50A5
ENCODING 20645
SWIDTH 1000 0
DWIDTH 12 0
BBX 11 11 0 -1
BITMAP
2A40
2A80
5FE0
5020
CFC0
4840
4FC0
4500
4520
4520
58E0
ENDCHAR
STARTCHAR uni50A7
ENCODING 20647
SWIDTH 1000 0
DWIDTH 12 0
BBX 11 11 0 -1
BITMAP
2100
3FE0
5020
4FC0
C800
4FE0
4880
4880
7FE0
4480
5860
ENDCHAR
STARTCHAR uni50A8
ENCODING 20648
SWIDTH 1000 0
DWIDTH 12 0
BBX 11 11 0 -1
BITMAP
2120
27C0
5140
57E0
C100
73C0
5640
53C0
5A40
5240
43C0
ENDCHAR
STARTCHAR uni50A9
ENCODING 20649
SWIDTH 1000 0
DWIDTH 12 0
BBX 11 11 0 -1
BITMAP
2080
3D40
45E0
5740
D5E0
4940
49E0
5540
55E0
6340
41E0
ENDCHAR
STARTCHAR uni50AC
ENCODING 20652
SWIDTH 1000 0
DWIDTH 12 0
BBX 11 11 0 -1
BITMAP
2920
2920
4FE0
4440
CFE0
5880
6FE0
4880
4FE0
4880
4FE0
ENDCHAR
STARTCHAR uni50B2
ENCODING 20658
SWIDTH 1000 0
DWIDTH 12 0
BBX 11 11 0 -1
BITMAP
2480
3E80
44E0
5EA0
C520
5EA0
48A0
4E40
4A40
52A0
46A0
ENDCHAR
STARTCHAR uni50BA
ENCODING 20666
SWIDTH 1000 0
DWIDTH 12 0
BBX 11 11 0 -1
BITMAP
2900
2DE0
5540
6D80
C880
5760
6000
5FC0
4A80
5240
6640
ENDCHAR
STARTCHAR uni50BB
ENCODING 20667
SWIDTH 1083 0
DWIDTH 13 0
BBX 12 11 0 -1
BITMAP
1100
1FE0
2AA0
2920
6FE0
A540
2BA0
3650
2980
2240
2C30
ENDCHAR
STARTCHAR uni50CF
ENCODING 20687
SWIDTH 1000 0
DWIDTH 12 0
BBX 11 11 0 -1
BITMAP
2380
2480
4FE0
5920
CFE0
4520
5A40
4580
5B40
4520
5B00
ENDCHAR
STARTCHAR uni50D6
ENCODING 20694
SWIDTH 1000 0
DWIDTH 12 0
BBX 11 11 0 -1
BITMAP
2200
3FE0
4200
4FC0
C840
4FC0
4480
5FE0
4840
4840
4FC0
ENDCHAR
STARTCHAR uni50DA
ENCODING 20698
SWIDTH 1000 0
DWIDTH 12 0
BBX 11 11 0 -1
BITMAP
2200
3FE0
5480
4FC0
D860
4FC0
6840
4FC0
4100
4940
5320
ENDCHAR
STARTCHAR uni50E6
ENCODING 20710
SWIDTH 1000 0
DWIDTH 12 0
BBX 11 11 0 -1
BITMAP
2480
3EA0
41E0
5E80
D280
5E80
4480
56C0
5540
6540
4D20
ENDCHAR
STARTCHAR uni50E7
ENCODING 20711
SWIDTH 1000 0
DWIDTH 12 0
BBX 11 11 0 -1
BITMAP
2480
3FE0
5120
5FE0
D120
5FE0
4840
4FC0
4840
4840
4FC0
ENDCHAR
STARTCHAR uni50EC
ENCODING 20716
SWIDTH 1000 0
DWIDTH 12 0
BBX 11 11 0 -1
BITMAP
2900
2FE0
5900
6FC0
C900
4FC0
4900
4FE0
4000
5540
5520
ENDCHAR
STARTCHAR uni50ED
ENCODING 20717
SWIDTH 1000 0
DWIDTH 12 0
BBX 11 11 0 -1
BITMAP
2480
3FE0
5480
5FE0
C940
5260
4FC0
4840
4FC0
4840
4FC0
ENDCHAR
STARTCHAR uni50EE
ENCODING 20718
SWIDTH 1000 0
DWIDTH 12 0
BBX 11 11 0 -1
BITMAP
2200
3FE0
4480
5FC0
C940
4FC0
4940
4940
5FE0
4100
5FE0
ENDCHAR
STARTCHAR uni50F3
ENCODING 20723
SWIDTH 1000 0
DWIDTH 12 0
BBX 11 11 0 -1
BITMAP
3FE0
4500
5FC0
D540
5540
5FC0
4A80
7FE0
4200
4A80
5240
ENDCHAR
STARTCHAR uni50F5
ENCODING 20725
SWIDTH 1000 0
DWIDTH 12 0
BBX 11 11 0 -1
BITMAP
3FE0
2940
4FC0
4940
CFC0
4000
5FE0
4940
4FC0
4940
5FE0
ENDCHAR
STARTCHAR uni50FB
ENCODING 20731
SWIDTH 1000 0
DWIDTH 12 0
BBX 11 11 0 -1
BITMAP
1C80
37E0
5540
D540
5D40
53E0
5C80
7480
57E0
5480
5C80
ENDCHAR
STARTCHAR uni5106
ENCODING 20742
SWIDTH 1000 0
DWIDTH 12 0
BBX 11 11 0 -1
BITMAP
2A80
3F80
4AE0
50A0
DF20
62A0
5E40
5240
5E40
42A0
4EA0
ENDCHAR
STARTCHAR uni5107
ENCODING 20743
SWIDTH 1000 0
DWIDTH 12 0
BBX 11 11 0 -1
BITMAP
2FE0
2AA0
4FE0
4000
DFE0
4440
47C0
4280
46A0
4A40
5320
ENDCHAR
STARTCHAR uni510B
ENCODING 20747
SWIDTH 1000 0
DWIDTH 12 0
BBX 11 11 0 -1
BITMAP
2400
2FC0
5080
7FE0
D540
5FE0
5000
57C0
5440
5440
67C0
ENDCHAR
STARTCHAR uni5112
ENCODING 20754
SWIDTH 1000 0
DWIDTH 12 0
BBX 11 11 0 -1
BITMAP
2FE0
2100
4FE0
4920
CB60
4000
5FE0
4100
4FE0
4AA0
4AA0
ENDCHAR
STARTCHAR uni5121
ENCODING 20769
SWIDTH 1000 0
DWIDTH 12 0
BBX 11 11 0 -1
BITMAP
2FC0
2940
4FC0
4940
CFC0
4000
5FE0
52A0
5FE0
52A0
5FE0
ENDCHAR
STARTCHAR uni513F
ENCODING 20799
SWIDTH 1000 0
DWIDTH 12 0
BBX 11 11 0 -1
BITMAP
1100
1100
1100
1100
1100
1100
1100
2100
2120
4120
81E0
ENDCHAR
STARTCHAR uni5140
ENCODING 20800
SWIDTH 1000 0
DWIDTH 12 0
BBX 11 11 0 -1
BITMAP
FFE0
1100
1100
1100
1100
1100
1100
2100
2120
4120
80E0
ENDCHAR
STARTCHAR uni5141
ENCODING 20801
SWIDTH 1000 0
DWIDTH 12 0
BBX 11 11 0 -1
BITMAP
0800
1080
1080
2040
FFC0
1220
1200
1200
1200
2220
C1E0
ENDCHAR
STARTCHAR uni5143
ENCODING 20803
SWIDTH 1000 0
DWIDTH 12 0
BBX 11 11 0 -1
BITMAP
7FC0
0000
0000
0000
FFE0
1200
1200
1200
1220
2220
C3E0
ENDCHAR
STARTCHAR uni5144
ENCODING 20804
SWIDTH 1000 0
DWIDTH 12 0
BBX 11 11 0 -1
BITMAP
7F80
4080
4080
4080
7F80
1200
1200
1200
1220
2220
C1E0
ENDCHAR
STARTCHAR uni5145
ENCODING 20805
SWIDTH 1000 0
DWIDTH 12 0
BBX 11 11 0 -1
BITMAP
0400
FFE0
1000
1100
2080
7FC0
1240
1200
1200
2220
C1E0
ENDCHAR
STARTCHAR uni5146
ENCODING 20806
SWIDTH 1000 0
DWIDTH 12 0
BBX 11 11 0 -1
BITMAP
1200
9220
5240
1280
1200
3280
5240
9220
1200
2220
C3E0
ENDCHAR
STARTCHAR uni5148
ENCODING 20808
SWIDTH 1000 0
DWIDTH 12 0
BBX 11 11 0 -1
BITMAP
2400
2400
3FC0
4400
8400
FFE0
0900
0900
0920
1120
E1E0
ENDCHAR
STARTCHAR uni5149
ENCODING 20809
SWIDTH 1000 0
DWIDTH 12 0
BBX 11 11 0 -1
BITMAP
0400
4440
2480
0400
0400
FFE0
1200
1200
1220
2220
C3E0
ENDCHAR
STARTCHAR uni514B
ENCODING 20811
SWIDTH 1000 0
DWIDTH 12 0
BBX 11 11 0 -1
BITMAP
0400
FFE0
0400
3F80
2080
2080
3F80
1200
1220
2220
C3E0
ENDCHAR
STARTCHAR uni514D
ENCODING 20813
SWIDTH 1000 0
DWIDTH 12 0
BBX 11 11 0 -1
BITMAP
2000
3F00
4200
FFC0
4440
4440
7FC0
1200
1220
2220
C3E0
ENDCHAR
STARTCHAR uni5151
ENCODING 20817
SWIDTH 1000 0
DWIDTH 12 0
BBX 11 11 0 -1
BITMAP
1100
0A00
3FC0
2040
2040
3FC0
0A00
0A00
0A20
1220
E1E0
ENDCHAR
STARTCHAR uni5154
ENCODING 20820
SWIDTH 1000 0
DWIDTH 12 0
BBX 11 11 0 -1
BITMAP
1000
3F00
4200
FFC0
4440
4440
7FC0
1500
14A0
2420
C7E0
ENDCHAR
STARTCHAR uni5155
ENCODING 20821
SWIDTH 1000 0
DWIDTH 12 0
BBX 11 11 0 -1
BITMAP
F3C0
9240
9240
9E40
8040
FFC0
1200
1200
1220
2220
C3E0
ENDCHAR
STARTCHAR uni5156
ENCODING 20822
SWIDTH 1000 0
DWIDTH 12 0
BBX 11 11 0 -1
BITMAP
0400
FFE0
2200
4980
9040
2100
7F80
1200
1220
1220
61E0
ENDCHAR
STARTCHAR uni515A
ENCODING 20826
SWIDTH 1000 0
DWIDTH 12 0
BBX 11 11 0 -1
BITMAP
4440
2480
FFE0
8020
BFA0
2080
2080
3F80
1220
2220
C3E0
ENDCHAR
STARTCHAR uni515C
ENCODING 20828
SWIDTH 1000 0
DWIDTH 12 0
BBX 11 11 0 -1
BITMAP
4800
9F60
9120
9F20
9120
DF60
0000
1200
1220
2220
C3C0
ENDCHAR
STARTCHAR uni5162
ENCODING 20834
SWIDTH 1000 0
DWIDTH 12 0
BBX 11 11 0 -1
BITMAP
2080
FBE0
2080
FBE0
8A20
8A20
FBE0
5140
5140
5140
9A60
ENDCHAR
STARTCHAR uni5165
ENCODING 20837
SWIDTH 1000 0
DWIDTH 12 0
BBX 11 11 0 -1
BITMAP
1C00
0400
0400
0400
0A00
0A00
1100
1100
2080
4040
8020
ENDCHAR
STARTCHAR uni5168
ENCODING 20840
SWIDTH 1000 0
DWIDTH 12 0
BBX 11 11 0 -1
BITMAP
0E00
1100
2080
4040
BFA0
0400
0400
3F80
0400
0400
FFE0
ENDCHAR
STARTCHAR uni516B
ENCODING 20843
SWIDTH 1000 0
DWIDTH 12 0
BBX 11 11 0 -1
BITMAP
0100
1100
1100
1100
1100
1100
1100
2080
2080
4040
8020
ENDCHAR
STARTCHAR uni516C
ENCODING 20844
SWIDTH 1000 0
DWIDTH 12 0
BBX 11 11 0 -1
BITMAP
0300
2100
2100
2080
4880
4840
8820
1080
1080
2340
7C40
ENDCHAR
STARTCHAR uni516D
ENCODING 20845
SWIDTH 1000 0
DWIDTH 12 0
BBX 11 11 0 -1
BITMAP
0800
0400
FFE0
0000
0000
2080
2080
4040
4040
8020
8020
ENDCHAR
STARTCHAR uni516E
ENCODING 20846
SWIDTH 1000 0
DWIDTH 12 0
BBX 11 11 0 -1
BITMAP
2780
2080
4040
7FC0
9020
1000
1F80
0080
0080
0080
0780
ENDCHAR
STARTCHAR uni5170
ENCODING 20848
SWIDTH 1083 0
DWIDTH 13 0
BBX 12 11 0 -1
BITMAP
1080
0900
7FE0
0000
0000
0000
3FC0
0000
0000
0000
FFF0
ENDCHAR
STARTCHAR uni5171
ENCODING 20849
SWIDTH 1000 0
DWIDTH 12 0
BBX 11 11 0 -1
BITMAP
1100
1100
7FC0
1100
1100
1100
FFE0
0000
1100
2080
4040
ENDCHAR
STARTCHAR uni5173
ENCODING 20851
SWIDTH 1000 0
DWIDTH 12 0
BBX 11 11 0 -1
BITMAP
1100
0A00
7FC0
0400
0400
FFE0
0400
0500
0880
3040
C020
ENDCHAR
STARTCHAR uni5174
ENCODING 20852
SWIDTH 1083 0
DWIDTH 12 0
BBX 11 11 0 -1
BITMAP
0800
0840
4440
2480
2100
FFE0
0000
1100
2080
4040
8040
ENDCHAR
STARTCHAR uni5175
ENCODING 20853
SWIDTH 1000 0
DWIDTH 12 0
BBX 11 11 0 -1
BITMAP
0180
3E00
2000
3FC0
2100
2100
2100
FFE0
1100
2080
C060
ENDCHAR
STARTCHAR uni5176
ENCODING 20854
SWIDTH 1000 0
DWIDTH 12 0
BBX 11 11 0 -1
BITMAP
1100
FFE0
1100
1F00
1100
1F00
1100
FFE0
1100
2080
C060
ENDCHAR
STARTCHAR uni5177
ENCODING 20855
SWIDTH 1000 0
DWIDTH 12 0
BBX 11 11 0 -1
BITMAP
3F80
2080
3F80
2080
3F80
2080
2080
FFE0
0000
3180
C060
ENDCHAR
STARTCHAR uni5178
ENCODING 20856
SWIDTH 1000 0
DWIDTH 12 0
BBX 11 12 0 -1
BITMAP
0A00
0A00
7FC0
4A40
4A40
7FC0
4A40
4A40
FFE0
0000
3180
C060
ENDCHAR
STARTCHAR uni5179
ENCODING 20857
SWIDTH 1000 0
DWIDTH 12 0
BBX 11 11 0 -1
BITMAP
1080
0900
FFE0
1080
1080
2520
7BC0
1080
2080
4920
7DE0
ENDCHAR
STARTCHAR uni517B
ENCODING 20859
SWIDTH 1000 0
DWIDTH 12 0
BBX 11 11 0 -1
BITMAP
1100
7FC0
0400
3F80
0800
FFE0
2180
D140
1100
2100
4100
ENDCHAR
STARTCHAR uni517C
ENCODING 20860
SWIDTH 1000 0
DWIDTH 12 0
BBX 11 11 0 -1
BITMAP
1100
FFE0
1200
7F80
1280
FFE0
1280
7F80
1200
5240
9220
ENDCHAR
STARTCHAR uni517D
ENCODING 20861
SWIDTH 1000 0
DWIDTH 12 0
BBX 11 11 0 -1
BITMAP
0A00
3F80
2480
3F80
2480
3F80
0000
FFE0
2080
2080
3F80
ENDCHAR
STARTCHAR uni5180
ENCODING 20864
SWIDTH 1000 0
DWIDTH 12 0
BBX 11 11 0 -1
BITMAP
0A60
FB80
0A20
FFE0
2480
3F80
2480
7FC0
1100
FFE0
2080
ENDCHAR
STARTCHAR uni5181
ENCODING 20865
SWIDTH 1000 0
DWIDTH 12 0
BBX 11 11 0 -1
BITMAP
8FE0
5420
FFE0
A540
FFE0
A540
FFE0
2540
FD60
2540
29A0
ENDCHAR
STARTCHAR uni5182
ENCODING 20866
SWIDTH 1000 0
DWIDTH 12 0
BBX 9 11 1 -1
BITMAP
FF80
8080
8080
8080
8080
8080
8080
8080
8080
8080
8380
ENDCHAR
STARTCHAR uni5185
ENCODING 20869
SWIDTH 1000 0
DWIDTH 12 0
BBX 11 11 0 -1
BITMAP
0400
0400
FFE0
8420
8420
8A20
9120
A0A0
8020
8020
80E0
ENDCHAR
STARTCHAR uni5188
ENCODING 20872
SWIDTH 1083 0
DWIDTH 13 0
BBX 10 11 1 -1
BITMAP
FFC0
8040
A240
9440
8840
8840
9440
A240
8040
8040
81C0
ENDCHAR
STARTCHAR uni5189
ENCODING 20873
SWIDTH 1000 0
DWIDTH 12 0
BBX 11 11 0 -1
BITMAP
0400
7FC0
4440
4440
7FC0
4440
4440
FFE0
4040
4040
40C0
ENDCHAR
STARTCHAR uni518C
ENCODING 20876
SWIDTH 1000 0
DWIDTH 12 0
BBX 11 11 0 -1
BITMAP
7BC0
4A40
4A40
4A40
FFE0
4A40
4A40
4A40
4A40
4A40
9480
ENDCHAR
STARTCHAR uni518D
ENCODING 20877
SWIDTH 1000 0
DWIDTH 12 0
BBX 11 11 0 -1
BITMAP
FFE0
0400
7FC0
4440
7FC0
4440
4440
FFE0
4040
4040
40C0
ENDCHAR
STARTCHAR uni5192
ENCODING 20882
SWIDTH 1000 0
DWIDTH 12 0
BBX 9 11 1 -1
BITMAP
FF80
8080
FF80
8080
FF80
4100
7F00
4100
7F00
4100
7F00
ENDCHAR
STARTCHAR uni5195
ENCODING 20885
SWIDTH 1000 0
DWIDTH 12 0
BBX 11 11 0 -1
BITMAP
7FC0
4040
5F40
4040
5F40
2200
FFC0
4440
7FC0
1220
E3E0
ENDCHAR
STARTCHAR uni5196
ENCODING 20886
SWIDTH 1000 0
DWIDTH 12 0
BBX 10 2 1 4
BITMAP
FFC0
8040
ENDCHAR
STARTCHAR uni5197
ENCODING 20887
SWIDTH 1000 0
DWIDTH 12 0
BBX 11 11 0 -1
BITMAP
FFE0
8020
8020
1F00
1100
1100
1100
1100
1120
2120
C1E0
ENDCHAR
STARTCHAR uni5199
ENCODING 20889
SWIDTH 1000 0
DWIDTH 12 0
BBX 11 11 0 -1
BITMAP
FFE0
9020
9FA0
1000
2000
3F80
0080
FFE0
0080
0080
0780
ENDCHAR
STARTCHAR uni519B
ENCODING 20891
SWIDTH 1000 0
DWIDTH 12 0
BBX 11 11 0 -1
BITMAP
FFE0
8820
7FC0
1400
2400
7FC0
0400
0400
FFE0
0400
0400
ENDCHAR
STARTCHAR uni519C
ENCODING 20892
SWIDTH 1000 0
DWIDTH 12 0
BBX 11 11 0 -1
BITMAP
0400
7FE0
4420
0A00
1240
1280
3100
5080
9240
1420
1800
ENDCHAR
STARTCHAR uni51A0
ENCODING 20896
SWIDTH 1000 0
DWIDTH 12 0
BBX 11 11 0 -1
BITMAP
FFE0
8020
0080
F880
07E0
FA80
5280
5080
51A0
5020
8FE0
ENDCHAR
STARTCHAR uni51A2
ENCODING 20898
SWIDTH 1000 0
DWIDTH 12 0
BBX 11 11 0 -1
BITMAP
FFE0
8020
BFA0
2400
0440
1A80
7300
1680
1A40
E220
0C00
ENDCHAR
STARTCHAR uni51A4
ENCODING 20900
SWIDTH 1000 0
DWIDTH 12 0
BBX 10 11 1 -1
BITMAP
FFC0
A040
BF40
4400
FF80
4880
7F80
1600
1540
2440
C3C0
ENDCHAR
STARTCHAR uni51A5
ENCODING 20901
SWIDTH 1000 0
DWIDTH 12 0
BBX 11 11 0 -1
BITMAP
FFE0
8020
3F80
2080
3F80
2080
3F80
0400
FFE0
2080
C040
ENDCHAR
STARTCHAR uni51AB
ENCODING 20907
SWIDTH 1000 0
DWIDTH 12 0
BBX 3 11 3 -1
BITMAP
80
40
40
00
00
20
40
40
80
80
80
ENDCHAR
STARTCHAR uni51AC
ENCODING 20908
SWIDTH 1000 0
DWIDTH 12 0
BBX 11 11 0 -1
BITMAP
0800
0F80
1080
6900
0600
1980
E460
0300
1000
0C00
0380
ENDCHAR
STARTCHAR uni51AF
ENCODING 20911
SWIDTH 1000 0
DWIDTH 12 0
BBX 11 11 0 -1
BITMAP
4FC0
2040
0440
0440
0440
4FE0
4020
9FA0
8020
8020
00C0
ENDCHAR
STARTCHAR uni51B0
ENCODING 20912
SWIDTH 1000 0
DWIDTH 12 0
BBX 11 11 0 -1
BITMAP
0100
8100
5D20
0540
0580
0580
2940
4940
5120
9120
8300
ENDCHAR
STARTCHAR uni51B1
ENCODING 20913
SWIDTH 1000 0
DWIDTH 12 0
BBX 11 10 0 -1
BITMAP
9FE0
4400
07C0
0480
4880
4F80
8080
8080
8080
3FE0
ENDCHAR
STARTCHAR uni51B2
ENCODING 20914
SWIDTH 1000 0
DWIDTH 12 0
BBX 11 11 0 -1
BITMAP
0100
8100
4FE0
2920
0920
0920
2FE0
4100
4100
8100
8100
ENDCHAR
STARTCHAR uni51B3
ENCODING 20915
SWIDTH 1000 0
DWIDTH 12 0
BBX 11 11 0 -1
BITMAP
0200
8FC0
4240
0240
0240
1FE0
0200
4200
4280
8440
9820
ENDCHAR
STARTCHAR uni51B5
ENCODING 20917
SWIDTH 1000 0
DWIDTH 12 0
BBX 10 11 1 -1
BITMAP
1FC0
9040
5040
1040
1FC0
0500
0500
4500
4540
8940
B1C0
ENDCHAR
STARTCHAR uni51B6
ENCODING 20918
SWIDTH 1000 0
DWIDTH 12 0
BBX 11 11 0 -1
BITMAP
0200
8440
4840
2FA0
0000
0FE0
0820
0820
2820
4820
8FE0
ENDCHAR
STARTCHAR uni51B7
ENCODING 20919
SWIDTH 1000 0
DWIDTH 12 0
BBX 11 11 0 -1
BITMAP
0300
8480
4840
1020
0FC0
0000
5FE0
4220
8220
82C0
0200
ENDCHAR
STARTCHAR uni51BB
ENCODING 20923
SWIDTH 1000 0
DWIDTH 12 0
BBX 11 11 0 -1
BITMAP
4200
2FE0
8400
4500
0900
1FE0
4100
4540
8920
9120
8600
ENDCHAR
STARTCHAR uni51BC
ENCODING 20924
SWIDTH 1083 0
DWIDTH 12 0
BBX 11 11 0 -1
BITMAP
0200
8A00
4FC0
1200
0200
5FE0
4500
8500
8520
8920
31E0
ENDCHAR
STARTCHAR uni51BD
ENCODING 20925
SWIDTH 1000 0
DWIDTH 12 0
BBX 11 11 0 -1
BITMAP
1E20
88A0
48A0
1EA0
12A0
4AA0
44A0
84A0
8820
9020
20E0
ENDCHAR
STARTCHAR uni51C0
ENCODING 20928
SWIDTH 1000 0
DWIDTH 12 0
BBX 11 11 0 -1
BITMAP
8780
4900
1FC0
2240
1FE0
0240
4240
5FC0
8200
8200
8E00
ENDCHAR
STARTCHAR uni51C4
ENCODING 20932
SWIDTH 1000 0
DWIDTH 12 0
BBX 11 11 0 -1
BITMAP
0200
9FE0
4240
1FE0
0240
0FC0
0200
5FE0
4440
8380
9C60
ENDCHAR
STARTCHAR uni51C6
ENCODING 20934
SWIDTH 1000 0
DWIDTH 12 0
BBX 11 11 0 -1
BITMAP
0500
8480
4FE0
0900
1FE0
0900
0FE0
4900
4FE0
8900
8FE0
ENDCHAR
STARTCHAR uni51C7
ENCODING 20935
SWIDTH 1083 0
DWIDTH 12 0
BBX 11 11 0 -1
BITMAP
8880
4940
1D40
0940
0E20
5AA0
5C80
A900
8940
8A40
0BA0
ENDCHAR
STARTCHAR uni51C9
ENCODING 20937
SWIDTH 1000 0
DWIDTH 12 0
BBX 11 11 0 -1
BITMAP
0100
9FE0
4000
0FC0
0840
0840
0FC0
4100
4940
9120
8300
ENDCHAR
STARTCHAR uni51CB
ENCODING 20939
SWIDTH 1000 0
DWIDTH 12 0
BBX 11 11 0 -1
BITMAP
1FE0
9220
5220
1FA0
1220
1FA0
5020
57A0
94A0
A7A0
2060
ENDCHAR
STARTCHAR uni51CC
ENCODING 20940
SWIDTH 1000 0
DWIDTH 12 0
BBX 11 11 0 -1
BITMAP
0100
9FE0
4100
1FE0
0480
1860
0780
5C80
4300
8480
9860
ENDCHAR
STARTCHAR uni51CF
ENCODING 20943
SWIDTH 1000 0
DWIDTH 12 0
BBX 11 11 0 -1
BITMAP
0140
9FE0
5100
1D00
1140
1D40
5540
5480
9DA0
92A0
AC60
ENDCHAR
STARTCHAR uni51D1
ENCODING 20945
SWIDTH 1000 0
DWIDTH 12 0
BBX 11 11 0 -1
BITMAP
0100
9FE0
4200
0FC0
0480
1FE0
4940
57A0
8100
8280
9C60
ENDCHAR
STARTCHAR uni51DB
ENCODING 20955
SWIDTH 1000 0
DWIDTH 12 0
BBX 11 11 0 -1
BITMAP
0200
BFE0
5540
1740
1040
1FC0
4000
7FE0
8200
9240
A620
ENDCHAR
STARTCHAR uni51DD
ENCODING 20957
SWIDTH 1000 0
DWIDTH 12 0
BBX 11 11 0 -1
BITMAP
13E0
9C40
5080
0FE0
10A0
1E80
0880
5EE0
4A80
9680
A3E0
ENDCHAR
STARTCHAR uni51E0
ENCODING 20960
SWIDTH 1000 0
DWIDTH 12 0
BBX 11 11 0 -1
BITMAP
3F00
2100
2100
2100
2100
2100
2100
2100
2120
4120
80E0
ENDCHAR
STARTCHAR uni51E1
ENCODING 20961
SWIDTH 1000 0
DWIDTH 12 0
BBX 11 11 0 -1
BITMAP
3F00
2100
2100
2100
2900
2500
2100
2100
4120
4120
81E0
ENDCHAR
STARTCHAR uni51E4
ENCODING 20964
SWIDTH 1083 0
DWIDTH 13 0
BBX 12 11 0 -1
BITMAP
3FC0
2040
3F40
2140
2A40
2440
2A40
2940
5150
4050
8020
ENDCHAR
STARTCHAR uni51EB
ENCODING 20971
SWIDTH 1000 0
DWIDTH 12 0
BBX 11 11 0 -1
BITMAP
0800
7F80
5080
4A80
4100
7FE0
0020
3EA0
2240
2220
C1E0
ENDCHAR
STARTCHAR uni51ED
ENCODING 20973
SWIDTH 1000 0
DWIDTH 12 0
BBX 11 11 0 -1
BITMAP
2FC0
2200
4FC0
C200
4200
4FC0
0000
1F00
1100
1120
61E0
ENDCHAR
STARTCHAR uni51EF
ENCODING 20975
SWIDTH 1000 0
DWIDTH 12 0
BBX 11 11 0 -1
BITMAP
AB80
AA80
FA80
0280
FA80
0A80
FA80
8280
92A0
E4A0
8860
ENDCHAR
STARTCHAR uni51F0
ENCODING 20976
SWIDTH 1000 0
DWIDTH 12 0
BBX 11 11 0 -1
BITMAP
7FC0
4440
5F40
5140
5F40
5140
5F40
4440
5F40
8420
BFA0
ENDCHAR
STARTCHAR uni51F3
ENCODING 20979
SWIDTH 1000 0
DWIDTH 12 0
BBX 11 11 0 -1
BITMAP
3A80
4920
2F40
1080
3FC0
D0A0
1F80
0900
FFC0
1120
61E0
ENDCHAR
STARTCHAR uni51F5
ENCODING 20981
SWIDTH 1000 0
DWIDTH 12 0
BBX 10 10 1 -1
BITMAP
8040
8040
8040
8040
8040
8040
8040
8040
8040
FFC0
ENDCHAR
STARTCHAR uni51F6
ENCODING 20982
SWIDTH 1000 0
DWIDTH 12 0
BBX 10 10 1 -1
BITMAP
8240
A240
9440
8840
8C40
9240
A240
8040
8040
FFC0
ENDCHAR
STARTCHAR uni51F8
ENCODING 20984
SWIDTH 1000 0
DWIDTH 12 0
BBX 11 11 0 -1
BITMAP
1F00
1100
1100
1100
1100
F1E0
8020
8020
8020
8020
FFE0
ENDCHAR
STARTCHAR uni51F9
ENCODING 20985
SWIDTH 1000 0
DWIDTH 12 0
BBX 11 11 0 -1
BITMAP
F1E0
9120
9120
9120
9120
9F20
8020
8020
8020
8020
FFE0
ENDCHAR
STARTCHAR uni51FA
ENCODING 20986
SWIDTH 1000 0
DWIDTH 12 0
BBX 11 11 0 -1
BITMAP
0400
4440
4440
4440
7FC0
0400
0400
8420
8420
8420
FFE0
ENDCHAR
STARTCHAR uni51FB
ENCODING 20987
SWIDTH 1000 0
DWIDTH 12 0
BBX 11 11 0 -1
BITMAP
0400
7FC0
0400
0400
FFE0
0400
4440
4440
4440
4440
7FC0
ENDCHAR
STARTCHAR uni51FC
ENCODING 20988
SWIDTH 1000 0
DWIDTH 12 0
BBX 10 11 1 -1
BITMAP
0400
8440
F540
9640
9440
A640
A540
C4C0
8C40
8040
FFC0
ENDCHAR
STARTCHAR uni51FD
ENCODING 20989
SWIDTH 1000 0
DWIDTH 12 0
BBX 11 11 0 -1
BITMAP
FFE0
0800
0C00
A4A0
9520
8420
9520
A4A0
CC60
8020
FFE0
ENDCHAR
STARTCHAR uni51FF
ENCODING 20991
SWIDTH 1000 0
DWIDTH 12 0
BBX 11 11 0 -1
BITMAP
4A40
2A80
FFE0
1100
4A20
5FA0
4420
5FA0
4420
4020
7FE0
ENDCHAR
STARTCHAR uni5200
ENCODING 20992
SWIDTH 1000 0
DWIDTH 12 0
BBX 10 11 1 -1
BITMAP
FFC0
0840
0840
0840
0840
0840
0840
1040
1040
2040
4180
ENDCHAR
STARTCHAR uni5201
ENCODING 20993
SWIDTH 1000 0
DWIDTH 12 0
BBX 10 11 1 -1
BITMAP
FFC0
0040
0240
0440
0840
3040
C040
0040
0040
0040
01C0
ENDCHAR
STARTCHAR uni5202
ENCODING 20994
SWIDTH 1000 0
DWIDTH 12 0
BBX 4 11 4 -1
BITMAP
10
10
90
90
90
90
90
90
10
10
30
ENDCHAR
STARTCHAR uni5203
ENCODING 20995
SWIDTH 1000 0
DWIDTH 12 0
BBX 11 11 0 -1
BITMAP
FFE0
0820
0820
2820
1820
0820
0C20
1220
1020
2020
C1E0
ENDCHAR
STARTCHAR uni5206
ENCODING 20998
SWIDTH 1000 0
DWIDTH 12 0
BBX 11 11 0 -1
BITMAP
2700
2080
2080
4040
4040
BFA0
0880
0880
1080
1080
6300
ENDCHAR
STARTCHAR uni5207
ENCODING 20999
SWIDTH 1000 0
DWIDTH 12 0
BBX 11 11 0 -1
BITMAP
4FE0
4220
4220
F220
4220
4220
5220
6220
4220
0420
08C0
ENDCHAR
STARTCHAR uni5208
ENCODING 21000
SWIDTH 1000 0
DWIDTH 12 0
BBX 11 11 0 -1
BITMAP
0820
0920
8920
4920
3120
1120
1120
2920
2420
4020
8060
ENDCHAR
STARTCHAR uni520A
ENCODING 21002
SWIDTH 1000 0
DWIDTH 12 0
BBX 11 11 0 -1
BITMAP
7C20
1120
1120
1120
FF20
1120
1120
1120
1020
1020
10E0
ENDCHAR
STARTCHAR uni520D
ENCODING 21005
SWIDTH 1000 0
DWIDTH 12 0
BBX 11 11 0 -1
BITMAP
0800
1FC0
2100
4200
BFE0
0020
0020
1FE0
0020
0020
3FE0
ENDCHAR
STARTCHAR uni520E
ENCODING 21006
SWIDTH 1000 0
DWIDTH 12 0
BBX 11 11 0 -1
BITMAP
4020
7D20
D520
5520
5520
5520
9520
A520
2420
4420
1860
ENDCHAR
STARTCHAR uni5211
ENCODING 21009
SWIDTH 1000 0
DWIDTH 12 0
BBX 11 11 0 -1
BITMAP
FC20
4920
4920
4920
FD20
4920
4920
4920
4820
8820
8860
ENDCHAR
STARTCHAR uni5212
ENCODING 21010
SWIDTH 1000 0
DWIDTH 12 0
BBX 11 11 0 -1
BITMAP
2820
2420
20A0
3EA0
E0A0
24A0
28A0
10A0
3220
4A20
86E0
ENDCHAR
STARTCHAR uni5216
ENCODING 21014
SWIDTH 1000 0
DWIDTH 12 0
BBX 11 11 0 -1
BITMAP
7C20
4520
4520
7D20
4520
4520
7D20
4520
4420
4420
8CE0
ENDCHAR
STARTCHAR uni5217
ENCODING 21015
SWIDTH 1000 0
DWIDTH 12 0
BBX 11 11 0 -1
BITMAP
FC20
2120
2120
7D20
4520
A520
1520
0920
0820
1020
6060
ENDCHAR
STARTCHAR uni5218
ENCODING 21016
SWIDTH 1083 0
DWIDTH 13 0
BBX 12 11 0 -1
BITMAP
2010
1010
FE90
0490
4490
2890
1090
1090
2890
4410
0060
ENDCHAR
STARTCHAR uni5219
ENCODING 21017
SWIDTH 1000 0
DWIDTH 12 0
BBX 11 11 0 -1
BITMAP
7C20
44A0
54A0
54A0
54A0
54A0
54A0
10A0
2820
4420
82E0
ENDCHAR
STARTCHAR uni521A
ENCODING 21018
SWIDTH 1000 0
DWIDTH 12 0
BBX 10 11 1 -1
BITMAP
FC40
8540
D540
A540
A540
D540
9540
8540
8440
8440
9DC0
ENDCHAR
STARTCHAR uni521B
ENCODING 21019
SWIDTH 1000 0
DWIDTH 12 0
BBX 11 11 0 -1
BITMAP
1820
24A0
42A0
BDA0
24A0
24A0
34A0
2820
2220
2220
1E40
ENDCHAR
STARTCHAR uni521D
ENCODING 21021
SWIDTH 1000 0
DWIDTH 12 0
BBX 11 11 0 -1
BITMAP
8FE0
4220
E220
2220
4220
5220
E220
5220
4420
4420
48C0
ENDCHAR
STARTCHAR uni5220
ENCODING 21024
SWIDTH 1000 0
DWIDTH 12 0
BBX 11 11 0 -1
BITMAP
EEA0
AAA0
AAA0
AAA0
FFA0
AAA0
AAA0
AAA0
AA20
AA20
AAE0
ENDCHAR
STARTCHAR uni5224
ENCODING 21028
SWIDTH 1000 0
DWIDTH 12 0
BBX 11 11 0 -1
BITMAP
2020
A520
A920
2120
FD20
2120
2120
FD20
2120
2020
4060
ENDCHAR
STARTCHAR uni5228
ENCODING 21032
SWIDTH 1000 0
DWIDTH 12 0
BBX 11 11 0 -1
BITMAP
2020
7CA0
44A0
F4A0
54A0
54A0
74A0
4CA0
4220
4220
3EE0
ENDCHAR
STARTCHAR uni5229
ENCODING 21033
SWIDTH 1000 0
DWIDTH 12 0
BBX 11 11 0 -1
BITMAP
0C20
F120
1120
1120
FD20
1120
3120
5920
9420
1020
1060
ENDCHAR
STARTCHAR uni522B
ENCODING 21035
SWIDTH 1000 0
DWIDTH 12 0
BBX 11 11 0 -1
BITMAP
7C20
4420
4520
7D20
0120
2120
FD20
2520
2420
4420
9CE0
ENDCHAR
STARTCHAR uni522D
ENCODING 21037
SWIDTH 1000 0
DWIDTH 12 0
BBX 11 12 0 -1
BITMAP
0020
FC20
08A0
10A0
2CA0
C2A0
00A0
7CA0
10A0
1020
1C20
F0E0
ENDCHAR
STARTCHAR uni522E
ENCODING 21038
SWIDTH 1000 0
DWIDTH 12 0
BBX 11 11 0 -1
BITMAP
1820
E120
2120
2120
FD20
2120
2120
F920
8820
8820
F860
ENDCHAR
STARTCHAR uni5230
ENCODING 21040
SWIDTH 1000 0
DWIDTH 12 0
BBX 11 11 0 -1
BITMAP
FC20
1120
2120
4920
FD20
1320
1120
FD20
1020
1C20
F0E0
ENDCHAR
STARTCHAR uni5233
ENCODING 21043
SWIDTH 1000 0
DWIDTH 12 0
BBX 11 11 0 -1
BITMAP
1020
FD20
4920
8520
FD20
0120
FD20
4120
FC20
0420
1C60
ENDCHAR
STARTCHAR uni5236
ENCODING 21046
SWIDTH 1000 0
DWIDTH 12 0
BBX 11 11 0 -1
BITMAP
1020
50A0
7CA0
90A0
FEA0
10A0
FEA0
92A0
9220
9620
1060
ENDCHAR
STARTCHAR uni5237
ENCODING 21047
SWIDTH 1000 0
DWIDTH 12 0
BBX 11 11 0 -1
BITMAP
FE20
82A0
FEA0
80A0
88A0
BEA0
AAA0
AAA0
AA20
AE20
8860
ENDCHAR
STARTCHAR uni5238
ENCODING 21048
SWIDTH 1000 0
DWIDTH 12 0
BBX 11 11 0 -1
BITMAP
4440
2480
7FC0
0900
FFE0
1080
3FC0
C8A0
0880
1080
6300
ENDCHAR
STARTCHAR uni5239
ENCODING 21049
SWIDTH 1000 0
DWIDTH 12 0
BBX 11 11 0 -1
BITMAP
4420
2920
1120
2920
C520
1120
FD20
3120
5820
9420
10E0
ENDCHAR
STARTCHAR uni523A
ENCODING 21050
SWIDTH 1000 0
DWIDTH 12 0
BBX 11 11 0 -1
BITMAP
1020
FEA0
10A0
FEA0
92A0
92A0
92A0
38A0
5420
9220
10C0
ENDCHAR
STARTCHAR uni523B
ENCODING 21051
SWIDTH 1000 0
DWIDTH 12 0
BBX 11 11 0 -1
BITMAP
1020
FD20
1120
2120
7D20
0920
1120
6520
0820
3420
C2E0
ENDCHAR
STARTCHAR uni523D
ENCODING 21053
SWIDTH 1000 0
DWIDTH 12 0
BBX 11 11 0 -1
BITMAP
1820
24A0
42A0
BDA0
00A0
FEA0
10A0
24A0
4420
7A20
00E0
ENDCHAR
STARTCHAR uni523F
ENCODING 21055
SWIDTH 1000 0
DWIDTH 12 0
BBX 11 11 0 -1
BITMAP
4A20
4AA0
7EA0
10A0
3EA0
22A0
54A0
94A0
0820
3020
C0E0
ENDCHAR
STARTCHAR uni5240
ENCODING 21056
SWIDTH 1000 0
DWIDTH 12 0
BBX 11 11 0 -1
BITMAP
5220
52A0
7EA0
00A0
FCA0
04A0
7CA0
40A0
4C20
7020
40E0
ENDCHAR
STARTCHAR uni5241
ENCODING 21057
SWIDTH 1000 0
DWIDTH 12 0
BBX 11 11 0 -1
BITMAP
3C20
2420
24A0
24A0
C3A0
10A0
FEA0
18A0
34A0
5220
90E0
ENDCHAR
STARTCHAR uni5242
ENCODING 21058
SWIDTH 1000 0
DWIDTH 12 0
BBX 11 11 0 -1
BITMAP
1020
FEA0
24A0
18A0
24A0
C2A0
24A0
24A0
2420
4420
84E0
ENDCHAR
STARTCHAR uni5243
ENCODING 21059
SWIDTH 1000 0
DWIDTH 12 0
BBX 11 11 0 -1
BITMAP
4420
28A0
FEA0
12A0
FEA0
90A0
FEA0
12A0
3220
5620
9060
ENDCHAR
STARTCHAR uni524A
ENCODING 21066
SWIDTH 1000 0
DWIDTH 12 0
BBX 11 11 0 -1
BITMAP
2020
A520
6920
2120
FD20
8520
FD20
8520
FC20
8420
8C60
ENDCHAR
STARTCHAR uni524C
ENCODING 21068
SWIDTH 1000 0
DWIDTH 12 0
BBX 11 11 0 -1
BITMAP
2020
FD20
2120
FD20
A520
A520
FD20
3120
6820
A420
2060
ENDCHAR
STARTCHAR uni524D
ENCODING 21069
SWIDTH 1000 0
DWIDTH 12 0
BBX 11 11 0 -1
BITMAP
2080
1100
FFE0
0000
7D40
4540
7D40
4540
7D40
4540
4CC0
ENDCHAR
STARTCHAR uni5250
ENCODING 21072
SWIDTH 1000 0
DWIDTH 12 0
BBX 11 11 0 -1
BITMAP
7C20
44A0
44A0
7CA0
10A0
FEA0
92A0
AAA0
C220
8220
8EE0
ENDCHAR
STARTCHAR uni5251
ENCODING 21073
SWIDTH 1000 0
DWIDTH 12 0
BBX 11 11 0 -1
BITMAP
1C20
22A0
41A0
BEA0
00A0
52A0
54A0
2CA0
0720
F820
0060
ENDCHAR
STARTCHAR uni5254
ENCODING 21076
SWIDTH 1000 0
DWIDTH 12 0
BBX 11 11 0 -1
BITMAP
7C20
44A0
7CA0
44A0
7CA0
20A0
7EA0
AAA0
4A20
1220
2C60
ENDCHAR
STARTCHAR uni5256
ENCODING 21078
SWIDTH 1000 0
DWIDTH 12 0
BBX 11 11 0 -1
BITMAP
2020
FD20
4920
4920
FD20
0120
FD20
8520
8420
8420
FC60
ENDCHAR
STARTCHAR uni525C
ENCODING 21084
SWIDTH 1083 0
DWIDTH 13 0
BBX 12 11 0 -1
BITMAP
1010
FF10
8150
2050
7750
5550
D550
5750
2450
2510
4670
ENDCHAR
STARTCHAR uni525E
ENCODING 21086
SWIDTH 1000 0
DWIDTH 12 0
BBX 11 11 0 -1
BITMAP
1020
FCA0
10A0
28A0
44A0
FEA0
04A0
E4A0
A4A0
E420
0C60
ENDCHAR
STARTCHAR uni5261
ENCODING 21089
SWIDTH 1000 0
DWIDTH 12 0
BBX 11 11 0 -1
BITMAP
5420
5920
9120
2920
4520
9520
5920
9120
2820
4420
82E0
ENDCHAR
STARTCHAR uni5265
ENCODING 21093
SWIDTH 1000 0
DWIDTH 12 0
BBX 11 11 0 -1
BITMAP
7820
0920
7920
0920
FD20
5120
3520
1920
5420
9220
30E0
ENDCHAR
STARTCHAR uni5267
ENCODING 21095
SWIDTH 1000 0
DWIDTH 12 0
BBX 11 11 0 -1
BITMAP
7E20
42A0
7EA0
48A0
7EA0
48A0
48A0
7EA0
6220
A220
BEE0
ENDCHAR
STARTCHAR uni5269
ENCODING 21097
SWIDTH 1000 0
DWIDTH 12 0
BBX 11 11 0 -1
BITMAP
FE20
10A0
FEA0
54A0
D6A0
54A0
D6A0
18A0
3420
D220
1060
ENDCHAR
STARTCHAR uni526A
ENCODING 21098
SWIDTH 1000 0
DWIDTH 12 0
BBX 11 11 0 -1
BITMAP
1100
FFE0
4840
7A40
4A40
7A40
48C0
0000
7FC0
1040
E3C0
ENDCHAR
STARTCHAR uni526F
ENCODING 21103
SWIDTH 1000 0
DWIDTH 12 0
BBX 11 11 0 -1
BITMAP
FE20
00A0
7CA0
44A0
7CA0
00A0
FEA0
92A0
FE20
9220
FE60
ENDCHAR
STARTCHAR uni5272
ENCODING 21106
SWIDTH 1000 0
DWIDTH 12 0
BBX 11 11 0 -1
BITMAP
1020
FE20
9220
7D20
1120
7D20
1120
FF20
4520
4420
7C60
ENDCHAR
STARTCHAR uni527D
ENCODING 21117
SWIDTH 1000 0
DWIDTH 12 0
BBX 11 11 0 -1
BITMAP
FE20
28A0
FEA0
AAA0
FEA0
00A0
FEA0
00A0
FE20
5420
B260
ENDCHAR
STARTCHAR uni527F
ENCODING 21119
SWIDTH 1000 0
DWIDTH 12 0
BBX 11 11 0 -1
BITMAP
A820
5520
FD20
A520
FD20
A520
FD20
2120
6820
A420
20E0
ENDCHAR
STARTCHAR uni5281
ENCODING 21121
SWIDTH 1000 0
DWIDTH 12 0
BBX 11 11 0 -1
BITMAP
2820
7EA0
C8A0
7EA0
48A0
7EA0
48A0
7EA0
0020
AA20
AAE0
ENDCHAR
STARTCHAR uni5282
ENCODING 21122
SWIDTH 1000 0
DWIDTH 12 0
BBX 11 11 0 -1
BITMAP
FF20
8020
D4A0
AEA0
FAA0
A4A0
A4A0
F4A0
A6A0
AA20
CAE0
ENDCHAR
STARTCHAR uni5288
ENCODING 21128
SWIDTH 1000 0
DWIDTH 12 0
BBX 11 11 0 -1
BITMAP
7880
4BE0
7940
43E0
7880
ABE0
3880
0000
7FE0
1020
E0C0
ENDCHAR
STARTCHAR uni5290
ENCODING 21136
SWIDTH 1000 0
DWIDTH 12 0
BBX 11 11 0 -1
BITMAP
4820
FE20
50A0
7EA0
D0A0
7EA0
50A0
FEA0
24A0
1820
E660
ENDCHAR
STARTCHAR uni5293
ENCODING 21139
SWIDTH 1000 0
DWIDTH 12 0
BBX 11 11 0 -1
BITMAP
2020
7C20
44A0
7CA0
44A0
FEA0
92A0
FEA0
92A0
FFA0
4860
ENDCHAR
STARTCHAR uni529B
ENCODING 21147
SWIDTH 1000 0
DWIDTH 12 0
BBX 11 11 0 -1
BITMAP
0800
0800
FFE0
0820
0820
0820
0820
1020
1020
2040
C180
ENDCHAR
STARTCHAR uni529D
ENCODING 21149
SWIDTH 1000 0
DWIDTH 12 0
BBX 11 11 0 -1
BITMAP
0100
F100
1FE0
5120
2120
2120
5220
5220
8420
0820
30E0
ENDCHAR
STARTCHAR uni529E
ENCODING 21150
SWIDTH 1000 0
DWIDTH 12 0
BBX 11 11 0 -1
BITMAP
0800
0800
FF80
0880
48C0
48A0
88A0
1080
1080
2480
C300
ENDCHAR
STARTCHAR uni529F
ENCODING 21151
SWIDTH 1000 0
DWIDTH 12 0
BBX 11 11 0 -1
BITMAP
0100
F100
2FE0
2120
2120
2120
2120
2220
3220
C420
08E0
ENDCHAR
STARTCHAR uni52A0
ENCODING 21152
SWIDTH 1000 0
DWIDTH 12 0
BBX 11 11 0 -1
BITMAP
2000
21E0
FD20
2520
2520
2520
2520
2520
4520
4520
99E0
ENDCHAR
STARTCHAR uni52A1
ENCODING 21153
SWIDTH 1000 0
DWIDTH 12 0
BBX 11 11 0 -1
BITMAP
0800
1F00
2900
0600
1980
E460
3F80
0880
0880
1080
6380
ENDCHAR
STARTCHAR uni52A2
ENCODING 21154
SWIDTH 1000 0
DWIDTH 12 0
BBX 11 11 0 -1
BITMAP
FD00
2100
27E0
3920
2920
2920
2920
2920
2920
4A20
94E0
ENDCHAR
STARTCHAR uni52A3
ENCODING 21155
SWIDTH 1000 0
DWIDTH 12 0
BBX 11 11 0 -1
BITMAP
0480
2440
2C20
4180
1E00
E400
3FE0
0420
0820
3020
C0C0
ENDCHAR
STARTCHAR uni52A8
ENCODING 21160
SWIDTH 1000 0
DWIDTH 12 0
BBX 11 11 0 -1
BITMAP
7100
0100
07E0
F920
2120
4120
9220
EA20
0420
0820
30C0
ENDCHAR
STARTCHAR uni52A9
ENCODING 21161
SWIDTH 1000 0
DWIDTH 12 0
BBX 11 11 0 -1
BITMAP
0100
7900
4FE0
7920
4920
7920
4920
4D20
7A20
C420
08C0
ENDCHAR
STARTCHAR uni52AA
ENCODING 21162
SWIDTH 1000 0
DWIDTH 12 0
BBX 11 11 0 -1
BITMAP
23E0
FC20
4940
4880
3140
CA20
0400
7FC0
0440
1840
61C0
ENDCHAR
STARTCHAR uni52AB
ENCODING 21163
SWIDTH 1000 0
DWIDTH 12 0
BBX 11 11 0 -1
BITMAP
2100
2100
FFE0
2120
2120
F920
2120
2120
4920
8A20
F4C0
ENDCHAR
STARTCHAR uni52AC
ENCODING 21164
SWIDTH 1000 0
DWIDTH 12 0
BBX 11 11 0 -1
BITMAP
4100
7900
8FE0
8920
E920
A920
A920
E920
0920
0A20
7AE0
ENDCHAR
STARTCHAR uni52AD
ENCODING 21165
SWIDTH 1000 0
DWIDTH 12 0
BBX 11 11 0 -1
BITMAP
F900
4900
4FE0
8920
B120
0120
F920
8920
8920
8A20
FAE0
ENDCHAR
STARTCHAR uni52B1
ENCODING 21169
SWIDTH 1000 0
DWIDTH 12 0
BBX 11 11 0 -1
BITMAP
7C80
4080
7DE0
50A0
50A0
5CA0
54A0
54A0
54A0
5520
AA40
ENDCHAR
STARTCHAR uni52B2
ENCODING 21170
SWIDTH 1000 0
DWIDTH 12 0
BBX 11 11 0 -1
BITMAP
F900
2100
53E0
8920
0120
F920
2120
2120
3920
E220
0460
ENDCHAR
STARTCHAR uni52B3
ENCODING 21171
SWIDTH 1000 0
DWIDTH 12 0
BBX 11 11 0 -1
BITMAP
1100
FFE0
1100
FFE0
8820
7F80
0880
1080
1080
2080
C300
ENDCHAR
STARTCHAR uni52BE
ENCODING 21182
SWIDTH 1000 0
DWIDTH 12 0
BBX 11 11 0 -1
BITMAP
2100
F900
47E0
8920
5120
2120
4920
9120
2120
5120
8AE0
ENDCHAR
STARTCHAR uni52BF
ENCODING 21183
SWIDTH 1000 0
DWIDTH 12 0
BBX 11 11 0 -1
BITMAP
4200
F780
4280
EA80
44A0
CAA0
1060
FF80
1080
2080
C380
ENDCHAR
STARTCHAR uni52C3
ENCODING 21187
SWIDTH 1000 0
DWIDTH 12 0
BBX 11 11 0 -1
BITMAP
2100
F900
27E0
F920
8920
7120
1120
2120
FA20
2220
64C0
ENDCHAR
STARTCHAR uni52C7
ENCODING 21191
SWIDTH 1000 0
DWIDTH 12 0
BBX 11 11 0 -1
BITMAP
7F80
0900
7FC0
4440
7FC0
4440
4440
FFE0
0820
3020
C1E0
ENDCHAR
STARTCHAR uni52C9
ENCODING 21193
SWIDTH 1000 0
DWIDTH 12 0
BBX 11 11 0 -1
BITMAP
7100
9100
27E0
F920
A920
A920
F920
5220
54C0
5000
8FE0
ENDCHAR
STARTCHAR uni52CB
ENCODING 21195
SWIDTH 1083 0
DWIDTH 12 0
BBX 11 11 0 -1
BITMAP
7880
4880
7880
03E0
FD20
8520
A520
A520
A520
4A20
84E0
ENDCHAR
STARTCHAR uni52D0
ENCODING 21200
SWIDTH 1000 0
DWIDTH 12 0
BBX 11 11 0 -1
BITMAP
7C80
0880
FDE0
10A0
30A0
00A0
7CA0
54A0
54A0
FD20
0260
ENDCHAR
STARTCHAR uni52D2
ENCODING 21202
SWIDTH 1000 0
DWIDTH 12 0
BBX 11 11 0 -1
BITMAP
5100
F900
57E0
7120
2120
F920
A920
F920
2220
FA20
24C0
ENDCHAR
STARTCHAR uni52D6
ENCODING 21206
SWIDTH 1000 0
DWIDTH 12 0
BBX 11 11 0 -1
BITMAP
FE80
8280
BA80
83E0
BAA0
00A0
7CA0
44A0
7CA0
44A0
7D60
ENDCHAR
STARTCHAR uni52D8
ENCODING 21208
SWIDTH 1000 0
DWIDTH 12 0
BBX 11 11 0 -1
BITMAP
2480
FC80
27E0
3CA0
24A0
24A0
FEA0
54A0
66A0
40A0
7D40
ENDCHAR
STARTCHAR uni52DF
ENCODING 21215
SWIDTH 1000 0
DWIDTH 12 0
BBX 11 11 0 -1
BITMAP
1100
FFE0
1100
3F80
2080
FFE0
2080
7FC0
88A0
1080
6300
ENDCHAR
STARTCHAR uni52E4
ENCODING 21220
SWIDTH 1000 0
DWIDTH 12 0
BBX 11 11 0 -1
BITMAP
5100
F900
57E0
F920
A920
A920
F920
2120
F920
2120
FA40
ENDCHAR
STARTCHAR uni52F0
ENCODING 21232
SWIDTH 1000 0
DWIDTH 12 0
BBX 11 11 0 -1
BITMAP
23E0
FAA0
2BE0
4AA0
9AA0
53E0
FC40
5520
5740
5520
ADE0
ENDCHAR
STARTCHAR uni52F9
ENCODING 21241
SWIDTH 1000 0
DWIDTH 12 0
BBX 11 11 0 -1
BITMAP
2000
3FE0
4020
8020
0020
0020
0020
0020
0020
0020
00E0
ENDCHAR
STARTCHAR uni52FA
ENCODING 21242
SWIDTH 1000 0
DWIDTH 12 0
BBX 11 11 0 -1
BITMAP
2000
2000
3FE0
4020
9020
0820
0420
0020
0020
0040
0180
ENDCHAR
STARTCHAR uni52FE
ENCODING 21246
SWIDTH 1000 0
DWIDTH 12 0
BBX 11 11 0 -1
BITMAP
2000
3FE0
2020
4820
4820
9020
1220
2220
3D20
0040
0180
ENDCHAR
STARTCHAR uni52FF
ENCODING 21247
SWIDTH 1000 0
DWIDTH 12 0
BBX 11 11 0 -1
BITMAP
2000
3FE0
2920
4920
8920
1120
1220
2220
4420
0820
00E0
ENDCHAR
STARTCHAR uni5300
ENCODING 21248
SWIDTH 1000 0
DWIDTH 12 0
BBX 11 11 0 -1
BITMAP
1000
3FE0
2020
4C20
8220
0020
0720
7820
0020
0020
00E0
ENDCHAR
STARTCHAR uni5305
ENCODING 21253
SWIDTH 1000 0
DWIDTH 12 0
BBX 11 11 0 -1
BITMAP
2000
3FE0
4020
7F20
A120
A120
3F20
20C0
2000
2020
3FE0
ENDCHAR
STARTCHAR uni5306
ENCODING 21254
SWIDTH 1000 0
DWIDTH 12 0
BBX 11 11 0 -1
BITMAP
2000
3FE0
2920
4920
8920
3120
1E20
23A0
4420
0840
0180
ENDCHAR
STARTCHAR uni5308
ENCODING 21256
SWIDTH 1000 0
DWIDTH 12 0
BBX 11 11 0 -1
BITMAP
2000
3FE0
4020
6220
9520
4920
5520
6320
4120
7F20
00E0
ENDCHAR
STARTCHAR uni530D
ENCODING 21261
SWIDTH 1000 0
DWIDTH 12 0
BBX 11 11 0 -1
BITMAP
2000
3FE0
4A20
BF20
0820
3F20
2920
3F20
2920
3F20
2960
ENDCHAR
STARTCHAR uni530F
ENCODING 21263
SWIDTH 1000 0
DWIDTH 12 0
BBX 11 11 0 -1
BITMAP
2200
FBE0
5420
8BA0
FAA0
02A0
FBA0
4260
FA00
0A20
31E0
ENDCHAR
STARTCHAR uni5310
ENCODING 21264
SWIDTH 1000 0
DWIDTH 12 0
BBX 11 11 0 -1
BITMAP
2000
3FE0
4020
7F20
A220
7F20
4920
7F20
4920
7F20
00C0
ENDCHAR
STARTCHAR uni5315
ENCODING 21269
SWIDTH 1000 0
DWIDTH 12 0
BBX 9 11 2 -1
BITMAP
8000
8000
8000
FF00
8000
8000
8000
8080
8080
8080
7F80
ENDCHAR
STARTCHAR uni5316
ENCODING 21270
SWIDTH 1000 0
DWIDTH 12 0
BBX 11 11 0 -1
BITMAP
1200
1200
2220
2240
6280
A300
2200
2200
2220
2220
23E0
ENDCHAR
STARTCHAR uni5317
ENCODING 21271
SWIDTH 1000 0
DWIDTH 12 0
BBX 11 11 0 -1
BITMAP
1200
1200
1260
F380
1200
1200
1200
3200
D220
1220
13E0
ENDCHAR
STARTCHAR uni5319
ENCODING 21273
SWIDTH 1000 0
DWIDTH 12 0
BBX 11 11 0 -1
BITMAP
FA00
8A60
FB80
8A00
FA00
0220
FA20
21E0
B800
E000
9FE0
ENDCHAR
STARTCHAR uni531A
ENCODING 21274
SWIDTH 1000 0
DWIDTH 12 0
BBX 10 10 1 -1
BITMAP
FFC0
8000
8000
8000
8000
8000
8000
8000
8000
FFC0
ENDCHAR
STARTCHAR uni531D
ENCODING 21277
SWIDTH 1000 0
DWIDTH 12 0
BBX 11 11 0 -1
BITMAP
FFE0
8200
8200
9FC0
9240
9240
9240
92C0
8200
8000
FFE0
ENDCHAR
STARTCHAR uni5320
ENCODING 21280
SWIDTH 1000 0
DWIDTH 12 0
BBX 11 11 0 -1
BITMAP
FFE0
8000
9F80
9000
9000
9FC0
9100
9100
A100
8100
FFE0
ENDCHAR
STARTCHAR uni5321
ENCODING 21281
SWIDTH 1000 0
DWIDTH 12 0
BBX 11 11 0 -1
BITMAP
FFE0
8000
BFE0
8200
8200
9FC0
8200
8200
BFE0
8000
FFE0
ENDCHAR
STARTCHAR uni5323
ENCODING 21283
SWIDTH 1000 0
DWIDTH 12 0
BBX 10 11 1 -1
BITMAP
FFC0
8000
BF80
A480
BF80
A480
BF80
8400
8400
8000
FFC0
ENDCHAR
STARTCHAR uni5326
ENCODING 21286
SWIDTH 1000 0
DWIDTH 12 0
BBX 11 11 0 -1
BITMAP
FFC0
9200
FA00
A780
D280
FA80
9280
FA80
92A0
9460
FFC0
ENDCHAR
STARTCHAR uni532A
ENCODING 21290
SWIDTH 1000 0
DWIDTH 12 0
BBX 11 11 0 -1
BITMAP
FFE0
8500
8500
BDE0
8500
9DC0
8500
BDE0
8500
8900
FFE0
ENDCHAR
STARTCHAR uni532E
ENCODING 21294
SWIDTH 1000 0
DWIDTH 12 0
BBX 11 11 0 -1
BITMAP
FFE0
8400
BF80
A480
FFE0
A080
A480
A480
8A00
9100
FFE0
ENDCHAR
STARTCHAR uni5339
ENCODING 21305
SWIDTH 1000 0
DWIDTH 12 0
BBX 10 11 1 -1
BITMAP
FFC0
9200
9200
9200
A200
A200
C1C0
8000
8000
8000
FFC0
ENDCHAR
STARTCHAR uni533A
ENCODING 21306
SWIDTH 1000 0
DWIDTH 12 0
BBX 11 11 0 -1
BITMAP
FFE0
8000
9040
8880
8500
8200
8500
8880
9040
8000
FFE0
ENDCHAR
STARTCHAR uni533B
ENCODING 21307
SWIDTH 1000 0
DWIDTH 12 0
BBX 11 11 0 -1
BITMAP
FFE0
9000
9FC0
9200
A200
BFC0
8500
8880
B040
8000
FFE0
ENDCHAR
STARTCHAR uni533E
ENCODING 21310
SWIDTH 1000 0
DWIDTH 12 0
BBX 11 11 0 -1
BITMAP
FFE0
8400
BF80
A080
BF80
A000
BFC0
B540
DFC0
D540
FFE0
ENDCHAR
STARTCHAR uni533F
ENCODING 21311
SWIDTH 1000 0
DWIDTH 12 0
BBX 11 11 0 -1
BITMAP
FFE0
9100
BFC0
9100
8400
BFC0
8800
9F80
B080
9080
FFE0
ENDCHAR
STARTCHAR uni5341
ENCODING 21313
SWIDTH 1000 0
DWIDTH 12 0
BBX 11 11 0 -1
BITMAP
0400
0400
0400
FFE0
0400
0400
0400
0400
0400
0400
0400
ENDCHAR
STARTCHAR uni5343
ENCODING 21315
SWIDTH 1000 0
DWIDTH 12 0
BBX 11 11 0 -1
BITMAP
03C0
7C00
0400
0400
0400
FFE0
0400
0400
0400
0400
0400
ENDCHAR
STARTCHAR uni5345
ENCODING 21317
SWIDTH 1000 0
DWIDTH 12 0
BBX 11 11 0 -1
BITMAP
2480
2480
2480
2480
FFE0
2480
2480
2480
4480
4480
8480
ENDCHAR
STARTCHAR uni5347
ENCODING 21319
SWIDTH 1000 0
DWIDTH 12 0
BBX 11 11 0 -1
BITMAP
0C80
7080
1080
1080
1080
FFE0
1080
1080
2080
2080
4080
ENDCHAR
STARTCHAR uni5348
ENCODING 21320
SWIDTH 1000 0
DWIDTH 12 0
BBX 11 11 0 -1
BITMAP
2000
3FC0
2400
4400
0400
FFE0
0400
0400
0400
0400
0400
ENDCHAR
STARTCHAR uni5349
ENCODING 21321
SWIDTH 1000 0
DWIDTH 12 0
BBX 11 11 0 -1
BITMAP
0400
FFE0
0400
1480
1080
1080
FFE0
1080
1080
2080
C080
ENDCHAR
STARTCHAR uni534A
ENCODING 21322
SWIDTH 1000 0
DWIDTH 12 0
BBX 11 11 0 -1
BITMAP
0400
4440
2480
0400
7FC0
0400
0400
FFE0
0400
0400
0400
ENDCHAR
STARTCHAR uni534E
ENCODING 21326
SWIDTH 1000 0
DWIDTH 12 0
BBX 11 11 0 -1
BITMAP
1220
22C0
6320
AE20
21E0
2000
0400
FFE0
0400
0400
0400
ENDCHAR
STARTCHAR uni534F
ENCODING 21327
SWIDTH 1000 0
DWIDTH 12 0
BBX 11 11 0 -1
BITMAP
4400
5F80
E480
4480
44C0
54A0
64A0
4480
4880
5080
6380
ENDCHAR
STARTCHAR uni5351
ENCODING 21329
SWIDTH 1000 0
DWIDTH 12 0
BBX 11 11 0 -1
BITMAP
0800
7FC0
4440
7FC0
4440
7FC0
0A00
1200
FFE0
0200
0200
ENDCHAR
STARTCHAR uni5352
ENCODING 21330
SWIDTH 1000 0
DWIDTH 12 0
BBX 11 11 0 -1
BITMAP
0400
FFE0
1100
1100
2A80
4440
FFE0
0400
0400
0400
0400
ENDCHAR
STARTCHAR uni5353
ENCODING 21331
SWIDTH 1000 0
DWIDTH 12 0
BBX 11 11 0 -1
BITMAP
0400
07C0
0400
3F80
2080
3F80
2080
3F80
0400
FFE0
0400
ENDCHAR
STARTCHAR uni5355
ENCODING 21333
SWIDTH 1000 0
DWIDTH 12 0
BBX 11 12 0 -1
BITMAP
2080
1100
7FC0
4440
7FC0
4440
7FC0
0400
FFE0
0400
0400
0400
ENDCHAR
STARTCHAR uni5356
ENCODING 21334
SWIDTH 1000 0
DWIDTH 12 0
BBX 11 11 0 -1
BITMAP
0400
7FC0
0400
FFE0
2020
9440
4400
FFE0
0A00
3180
C060
ENDCHAR
STARTCHAR uni5357
ENCODING 21335
SWIDTH 1000 0
DWIDTH 12 0
BBX 11 11 0 -1
BITMAP
0400
FFE0
0400
FFE0
9120
8A20
BFA0
8420
BFA0
8420
8460
ENDCHAR
STARTCHAR uni535A
ENCODING 21338
SWIDTH 1000 0
DWIDTH 12 0
BBX 11 11 0 -1
BITMAP
4140
5FE0
4100
EFE0
4920
4FE0
4920
4040
5FE0
4440
42C0
ENDCHAR
STARTCHAR uni535C
ENCODING 21340
SWIDTH 1000 0
DWIDTH 12 0
BBX 6 11 3 -1
BITMAP
80
80
80
80
C0
B0
8C
80
80
80
80
ENDCHAR
STARTCHAR uni535E
ENCODING 21342
SWIDTH 1000 0
DWIDTH 12 0
BBX 11 11 0 -1
BITMAP
0800
0400
FFE0
0400
0600
0500
0480
0400
0400
0400
0400
ENDCHAR
STARTCHAR uni535F
ENCODING 21343
SWIDTH 1000 0
DWIDTH 12 0
BBX 11 11 0 -1
BITMAP
F200
9200
9300
9280
9240
9220
9200
F200
0200
0200
0200
ENDCHAR
STARTCHAR uni5360
ENCODING 21344
SWIDTH 1000 0
DWIDTH 12 0
BBX 9 11 1 -1
BITMAP
0800
0800
0F80
0800
0800
0800
FF80
8080
8080
8080
FF80
ENDCHAR
STARTCHAR uni5361
ENCODING 21345
SWIDTH 1000 0
DWIDTH 12 0
BBX 11 11 0 -1
BITMAP
0400
0400
07C0
0400
FFE0
0400
0580
0440
0420
0400
0400
ENDCHAR
STARTCHAR uni5362
ENCODING 21346
SWIDTH 1000 0
DWIDTH 12 0
BBX 11 11 0 -1
BITMAP
0200
03C0
0200
3FE0
2020
2020
3FE0
2000
2000
4000
8000
ENDCHAR
STARTCHAR uni5363
ENCODING 21347
SWIDTH 1000 0
DWIDTH 12 0
BBX 10 11 1 -1
BITMAP
0800
0FC0
0800
FFC0
8040
FE40
8240
8240
FE40
8040
FFC0
ENDCHAR
STARTCHAR uni5364
ENCODING 21348
SWIDTH 1000 0
DWIDTH 12 0
BBX 10 11 1 -1
BITMAP
0800
0FC0
0800
FF80
8080
A280
9480
8880
9480
A280
FF80
ENDCHAR
STARTCHAR uni5366
ENCODING 21350
SWIDTH 1000 0
DWIDTH 12 0
BBX 11 11 0 -1
BITMAP
1080
FC80
1080
1080
FEC0
10A0
1080
FC80
1080
1080
FE80
ENDCHAR
STARTCHAR uni5367
ENCODING 21351
SWIDTH 1000 0
DWIDTH 12 0
BBX 11 11 0 -1
BITMAP
FE80
9080
9080
FCC0
84A0
8480
FC80
9080
9080
FE80
0080
ENDCHAR
STARTCHAR uni5369
ENCODING 21353
SWIDTH 1000 0
DWIDTH 12 0
BBX 5 11 4 -1
BITMAP
F8
88
88
88
88
88
88
88
B0
80
80
ENDCHAR
STARTCHAR uni536B
ENCODING 21355
SWIDTH 1000 0
DWIDTH 12 0
BBX 11 10 0 -1
BITMAP
7FC0
0440
0440
0440
0440
05C0
0400
0400
0400
FFE0
ENDCHAR
STARTCHAR uni536E
ENCODING 21358
SWIDTH 1000 0
DWIDTH 12 0
BBX 11 11 0 -1
BITMAP
01C0
7E00
4000
7FE0
4000
4F80
4880
4880
4980
8820
87E0
ENDCHAR
STARTCHAR uni536F
ENCODING 21359
SWIDTH 1000 0
DWIDTH 12 0
BBX 11 11 0 -1
BITMAP
0DE0
7120
4120
4520
4520
4520
5D20
E520
0560
0900
3100
ENDCHAR
STARTCHAR uni5370
ENCODING 21360
SWIDTH 1000 0
DWIDTH 12 0
BBX 11 11 0 -1
BITMAP
1800
E3E0
8220
8220
FA20
8220
8220
8220
8220
FAE0
0200
ENDCHAR
STARTCHAR uni5371
ENCODING 21361
SWIDTH 1000 0
DWIDTH 12 0
BBX 11 11 0 -1
BITMAP
1F00
2100
4200
FFE0
4000
4F80
4880
4880
4980
8820
8FE0
ENDCHAR
STARTCHAR uni5373
ENCODING 21363
SWIDTH 1000 0
DWIDTH 12 0
BBX 11 11 0 -1
BITMAP
F9E0
8920
8920
F920
8920
8920
F920
8120
9160
8900
F500
ENDCHAR
STARTCHAR uni5374
ENCODING 21364
SWIDTH 1000 0
DWIDTH 12 0
BBX 11 11 0 -1
BITMAP
11E0
1120
FD20
1120
1120
FD20
2120
2120
4540
4500
FB00
ENDCHAR
STARTCHAR uni5375
ENCODING 21365
SWIDTH 1000 0
DWIDTH 12 0
BBX 11 11 0 -1
BITMAP
0DE0
7120
4120
65A0
5560
4520
5D20
E520
0560
0900
3100
ENDCHAR
STARTCHAR uni5377
ENCODING 21367
SWIDTH 1000 0
DWIDTH 12 0
BBX 11 11 0 -1
BITMAP
2480
2480
7FC0
0900
FFE0
1080
3F40
E120
2700
2040
3FC0
ENDCHAR
STARTCHAR uni5378
ENCODING 21368
SWIDTH 1000 0
DWIDTH 12 0
BBX 11 11 0 -1
BITMAP
4000
7DE0
9120
1120
FD20
1120
5D20
5120
5D20
F160
0100
ENDCHAR
STARTCHAR uni537A
ENCODING 21370
SWIDTH 1000 0
DWIDTH 12 0
BBX 11 11 0 -1
BITMAP
3FC0
0100
F660
1580
2440
DF20
0000
3F80
20A0
2320
3FE0
ENDCHAR
STARTCHAR uni537F
ENCODING 21375
SWIDTH 1000 0
DWIDTH 12 0
BBX 11 11 0 -1
BITMAP
2EE0
CAA0
8EA0
AAA0
AAA0
AEA0
A8A0
EAE0
2A80
2D80
4080
ENDCHAR
STARTCHAR uni5382
ENCODING 21378
SWIDTH 1000 0
DWIDTH 12 0
BBX 11 11 0 -1
BITMAP
7FE0
4000
4000
4000
4000
4000
4000
4000
4000
8000
8000
ENDCHAR
STARTCHAR uni5384
ENCODING 21380
SWIDTH 1000 0
DWIDTH 12 0
BBX 11 11 0 -1
BITMAP
7FE0
4000
4000
4FC0
4840
4840
49C0
4800
4820
8820
87E0
ENDCHAR
STARTCHAR uni5385
ENCODING 21381
SWIDTH 1000 0
DWIDTH 12 0
BBX 11 11 0 -1
BITMAP
7FE0
4000
4000
7FE0
4100
4100
4100
4100
4100
8100
8700
ENDCHAR
STARTCHAR uni5386
ENCODING 21382
SWIDTH 1000 0
DWIDTH 12 0
BBX 11 11 0 -1
BITMAP
3FE0
2200
2200
3FE0
2220
2220
2220
4420
4420
8820
B0C0
ENDCHAR
STARTCHAR uni5389
ENCODING 21385
SWIDTH 1000 0
DWIDTH 12 0
BBX 11 11 0 -1
BITMAP
3FE0
2000
3FE0
2400
27C0
2440
2440
4440
4440
8840
3180
ENDCHAR
STARTCHAR uni538B
ENCODING 21387
SWIDTH 1083 0
DWIDTH 13 0
BBX 12 11 0 -1
BITMAP
3FF0
2000
2200
2200
2FE0
2200
2280
4240
4220
8200
BFF0
ENDCHAR
STARTCHAR uni538C
ENCODING 21388
SWIDTH 1000 0
DWIDTH 12 0
BBX 11 11 0 -1
BITMAP
7FE0
4000
4280
4240
5FE0
4200
4500
4480
4880
9040
6020
ENDCHAR
STARTCHAR uni538D
ENCODING 21389
SWIDTH 1083 0
DWIDTH 12 0
BBX 11 11 0 -1
BITMAP
7FE0
4000
4400
5FC0
4A00
5200
5FC0
4200
7FE0
8200
8200
ENDCHAR
STARTCHAR uni5395
ENCODING 21397
SWIDTH 1083 0
DWIDTH 13 0
BBX 12 11 0 -1
BITMAP
7FF0
4000
5F10
5150
5550
5550
5550
5550
4450
4A10
9130
ENDCHAR
STARTCHAR uni5398
ENCODING 21400
SWIDTH 1000 0
DWIDTH 12 0
BBX 11 11 0 -1
BITMAP
7FE0
4000
5FE0
5120
5FE0
5120
5FE0
4100
5FE0
8100
BFE0
ENDCHAR
STARTCHAR uni539A
ENCODING 21402
SWIDTH 1000 0
DWIDTH 12 0
BBX 11 11 0 -1
BITMAP
7FE0
4000
4FE0
4820
4FE0
4820
4FE0
4040
5FE0
8080
8780
ENDCHAR
STARTCHAR uni539D
ENCODING 21405
SWIDTH 1083 0
DWIDTH 12 0
BBX 11 11 0 -1
BITMAP
7FE0
4900
5FC0
4900
7FE0
4000
5F80
5080
5F80
5080
9F80
ENDCHAR
STARTCHAR uni539F
ENCODING 21407
SWIDTH 1000 0
DWIDTH 12 0
BBX 11 11 0 -1
BITMAP
7FE0
4200
5FC0
5040
5FC0
5040
5040
5FC0
8200
9240
2620
ENDCHAR
STARTCHAR uni53A2
ENCODING 21410
SWIDTH 1000 0
DWIDTH 12 0
BBX 11 10 0 0
BITMAP
7FE0
4800
49E0
7F20
4920
4DE0
5B20
69E0
4920
89E0
ENDCHAR
STARTCHAR uni53A3
ENCODING 21411
SWIDTH 1083 0
DWIDTH 12 0
BBX 11 11 0 -1
BITMAP
7FE0
4500
4480
7FE0
4880
7FE0
5240
5FC0
5240
9FC0
8200
ENDCHAR
STARTCHAR uni53A5
ENCODING 21413
SWIDTH 1000 0
DWIDTH 12 0
BBX 11 11 0 -1
BITMAP
7FE0
4000
5500
7FE0
4920
6A80
6A80
7E80
5140
9220
A420
ENDCHAR
STARTCHAR uni53A6
ENCODING 21414
SWIDTH 1000 0
DWIDTH 12 0
BBX 11 11 0 -1
BITMAP
7FE0
4200
5FC0
5040
5FC0
5040
5FE0
4880
B480
8300
3CE0
ENDCHAR
STARTCHAR uni53A8
ENCODING 21416
SWIDTH 1000 0
DWIDTH 12 0
BBX 11 11 0 -1
BITMAP
7FE0
4000
5E40
41E0
5E40
5340
5EC0
4040
5240
8F40
B8C0
ENDCHAR
STARTCHAR uni53A9
ENCODING 21417
SWIDTH 1000 0
DWIDTH 12 0
BBX 11 11 0 -1
BITMAP
7FE0
4000
5DE0
5540
5D40
5540
5DE0
5040
50C0
9540
9A60
ENDCHAR
STARTCHAR uni53AE
ENCODING 21422
SWIDTH 1000 0
DWIDTH 12 0
BBX 11 11 0 -1
BITMAP
FFE0
A400
FEE0
A500
BDE0
A540
BD40
A540
FD40
A640
C240
ENDCHAR
STARTCHAR uni53B6
ENCODING 21430
SWIDTH 1000 0
DWIDTH 12 0
BBX 9 9 2 -1
BITMAP
0800
1000
1000
2000
2200
4200
4100
8100
FE80
ENDCHAR
STARTCHAR uni53BB
ENCODING 21435
SWIDTH 1000 0
DWIDTH 12 0
BBX 11 11 0 -1
BITMAP
0400
0400
7FC0
0400
0400
FFE0
0800
0880
1080
2340
7C40
ENDCHAR
STARTCHAR uni53BF
ENCODING 21439
SWIDTH 1000 0
DWIDTH 12 0
BBX 11 11 0 -1
BITMAP
1F80
1080
1F80
1080
1F80
1080
FFE0
0800
1080
2040
7FA0
ENDCHAR
STARTCHAR uni53C1
ENCODING 21441
SWIDTH 1000 0
DWIDTH 12 0
BBX 11 11 0 -1
BITMAP
0800
1100
3F80
0400
FFE0
1100
2E80
C060
3F80
0000
FFE0
ENDCHAR
STARTCHAR uni53C2
ENCODING 21442
SWIDTH 1000 0
DWIDTH 12 0
BBX 11 11 0 -1
BITMAP
0900
1080
7FC0
0400
FFE0
0880
3140
C620
1880
0300
3C00
ENDCHAR
STARTCHAR uni53C8
ENCODING 21448
SWIDTH 1000 0
DWIDTH 12 0
BBX 11 11 0 -1
BITMAP
7F80
2080
2080
1100
1100
0A00
0400
0A00
1100
2080
C060
ENDCHAR
STARTCHAR uni53C9
ENCODING 21449
SWIDTH 1000 0
DWIDTH 12 0
BBX 11 11 0 -1
BITMAP
7F80
0080
0880
0480
2500
1100
0A00
0400
0A00
3180
C060
ENDCHAR
STARTCHAR uni53CA
ENCODING 21450
SWIDTH 1000 0
DWIDTH 12 0
BBX 11 11 0 -1
BITMAP
7F80
1080
1100
1200
1FC0
1040
2440
2280
4100
4680
9860
ENDCHAR
STARTCHAR uni53CB
ENCODING 21451
SWIDTH 1000 0
DWIDTH 12 0
BBX 11 11 0 -1
BITMAP
0800
FFE0
0800
0F80
1080
1080
2880
2500
4200
8D80
3060
ENDCHAR
STARTCHAR uni53CC
ENCODING 21452
SWIDTH 1000 0
DWIDTH 12 0
BBX 11 11 0 -1
BITMAP
7BE0
0820
0820
4A20
2A20
1140
1140
2880
4480
8140
0220
ENDCHAR
STARTCHAR uni53CD
ENCODING 21453
SWIDTH 1000 0
DWIDTH 12 0
BBX 11 11 0 -1
BITMAP
3FE0
2000
2000
3FC0
2840
2440
2440
2280
4100
4280
9C60
ENDCHAR
STARTCHAR uni53D1
ENCODING 21457
SWIDTH 1000 0
DWIDTH 12 0
BBX 11 11 0 -1
BITMAP
2480
2440
7FE0
0800
0FC0
1040
1440
2280
4100
86C0
3820
ENDCHAR
STARTCHAR uni53D4
ENCODING 21460
SWIDTH 1000 0
DWIDTH 12 0
BBX 11 11 0 -1
BITMAP
23E0
2020
3820
2220
FA20
2140
6940
A880
A480
2140
6620
ENDCHAR
STARTCHAR uni53D6
ENCODING 21462
SWIDTH 1000 0
DWIDTH 12 0
BBX 11 11 0 -1
BITMAP
FC00
4BE0
7820
4A20
4A20
7940
4940
4880
FC80
0940
0A20
ENDCHAR
STARTCHAR uni53D7
ENCODING 21463
SWIDTH 1000 0
DWIDTH 12 0
BBX 11 11 0 -1
BITMAP
7FC0
0880
4480
2100
FFE0
8020
3F80
0080
1100
0E00
71C0
ENDCHAR
STARTCHAR uni53D8
ENCODING 21464
SWIDTH 1000 0
DWIDTH 12 0
BBX 11 11 0 -1
BITMAP
0400
FFE0
2940
2940
4920
BFC0
1080
0900
0600
1980
6060
ENDCHAR
STARTCHAR uni53D9
ENCODING 21465
SWIDTH 1000 0
DWIDTH 12 0
BBX 12 11 0 -1
BITMAP
3000
4BC0
8640
7A40
1140
FD40
1080
5880
9540
9220
7410
ENDCHAR
STARTCHAR uni53DB
ENCODING 21467
SWIDTH 1000 0
DWIDTH 12 0
BBX 11 11 0 -1
BITMAP
27E0
AC00
7400
27C0
F440
2440
3540
E940
2880
5340
5420
ENDCHAR
STARTCHAR uni53DF
ENCODING 21471
SWIDTH 1000 0
DWIDTH 12 0
BBX 11 11 0 -1
BITMAP
0400
75C0
4440
75C0
4440
75C0
0400
7FC0
1100
0E00
F1E0
ENDCHAR
STARTCHAR uni53E0
ENCODING 21472
SWIDTH 1000 0
DWIDTH 12 0
BBX 11 11 0 -1
BITMAP
3F80
1100
0E00
FBE0
5140
FFE0
5540
9320
1F00
1100
FFE0
ENDCHAR
STARTCHAR uni53E3
ENCODING 21475
SWIDTH 1000 0
DWIDTH 12 0
BBX 9 11 2 -1
BITMAP
FF80
8080
8080
8080
8080
8080
8080
8080
8080
8080
FF80
ENDCHAR
STARTCHAR uni53E4
ENCODING 21476
SWIDTH 1000 0
DWIDTH 12 0
BBX 11 11 0 -1
BITMAP
0400
0400
FFE0
0400
0400
0400
3F80
2080
2080
2080
3F80
ENDCHAR
STARTCHAR uni53E5
ENCODING 21477
SWIDTH 1000 0
DWIDTH 12 0
BBX 11 11 0 -1
BITMAP
2000
3FE0
2020
4020
9E20
1220
1220
1220
1E20
0020
00C0
ENDCHAR
STARTCHAR uni53E6
ENCODING 21478
SWIDTH 1000 0
DWIDTH 12 0
BBX 9 11 1 -1
BITMAP
7F80
4080
4080
7F80
0800
FF80
0880
0880
1080
2080
C300
ENDCHAR
STARTCHAR uni53E8
ENCODING 21480
SWIDTH 1000 0
DWIDTH 12 0
BBX 11 11 0 -1
BITMAP
0FE0
F120
9120
9120
9120
9120
9220
9220
9420
F420
08E0
ENDCHAR
STARTCHAR uni53E9
ENCODING 21481
SWIDTH 1000 0
DWIDTH 12 0
BBX 11 11 0 -1
BITMAP
F7E0
9420
9420
9420
9420
9420
9420
9420
F4E0
0400
0400
ENDCHAR
STARTCHAR uni53EA
ENCODING 21482
SWIDTH 1000 0
DWIDTH 12 0
BBX 11 11 0 -1
BITMAP
3FC0
2040
2040
2040
2040
3FC0
0000
0900
1080
2040
C020
ENDCHAR
STARTCHAR uni53EB
ENCODING 21483
SWIDTH 1000 0
DWIDTH 12 0
BBX 10 11 0 -1
BITMAP
0040
F240
9240
9240
9240
9240
9240
93C0
9040
F040
0040
ENDCHAR
STARTCHAR uni53EC
ENCODING 21484
SWIDTH 1000 0
DWIDTH 12 0
BBX 10 11 1 -1
BITMAP
FFC0
0440
0840
3040
C1C0
0000
7F80
4080
4080
4080
7F80
ENDCHAR
STARTCHAR uni53ED
ENCODING 21485
SWIDTH 1000 0
DWIDTH 12 0
BBX 11 10 0 -1
BITMAP
E480
A480
A480
A480
A480
A480
A840
E840
1020
2020
ENDCHAR
STARTCHAR uni53EE
ENCODING 21486
SWIDTH 1000 0
DWIDTH 12 0
BBX 11 11 0 -1
BITMAP
0FE0
F040
9040
9040
9040
9040
9040
9040
9040
F040
01C0
ENDCHAR
STARTCHAR uni53EF
ENCODING 21487
SWIDTH 1000 0
DWIDTH 12 0
BBX 11 11 0 -1
BITMAP
FFE0
0080
0080
7880
4880
4880
4880
7880
0080
0080
0380
ENDCHAR
STARTCHAR uni53F0
ENCODING 21488
SWIDTH 1000 0
DWIDTH 12 0
BBX 11 11 0 -1
BITMAP
1100
2080
4040
FFA0
0000
0000
7FC0
4040
4040
4040
7FC0
ENDCHAR
STARTCHAR uni53F1
ENCODING 21489
SWIDTH 1000 0
DWIDTH 12 0
BBX 11 11 0 -1
BITMAP
0200
F200
9260
9380
9E00
9200
9200
9200
9220
F220
03E0
ENDCHAR
STARTCHAR uni53F2
ENCODING 21490
SWIDTH 1000 0
DWIDTH 12 0
BBX 11 11 0 -1
BITMAP
0400
0400
7FC0
4440
4440
7FC0
0400
3400
0C00
3300
C0E0
ENDCHAR
STARTCHAR uni53F3
ENCODING 21491
SWIDTH 1000 0
DWIDTH 12 0
BBX 11 11 0 -1
BITMAP
0400
FFE0
0400
0400
0800
1FC0
3040
D040
1040
1040
1FC0
ENDCHAR
STARTCHAR uni53F5
ENCODING 21493
SWIDTH 1083 0
DWIDTH 12 0
BBX 10 11 1 -1
BITMAP
FFC0
8000
8000
9F00
9100
9100
9100
9F00
8000
8000
FFC0
ENDCHAR
STARTCHAR uni53F6
ENCODING 21494
SWIDTH 1000 0
DWIDTH 12 0
BBX 11 11 0 -1
BITMAP
0100
F100
9100
9FE0
9100
9100
9100
9100
9100
F100
0100
ENDCHAR
STARTCHAR uni53F7
ENCODING 21495
SWIDTH 1000 0
DWIDTH 12 0
BBX 11 11 0 -1
BITMAP
3F80
2080
2080
3F80
0000
FFE0
1000
1FC0
0040
0040
0380
ENDCHAR
STARTCHAR uni53F8
ENCODING 21496
SWIDTH 1000 0
DWIDTH 12 0
BBX 10 11 0 -1
BITMAP
FFC0
0040
0040
7C40
0040
0040
7C40
4440
4440
7C40
00C0
ENDCHAR
STARTCHAR uni53F9
ENCODING 21497
SWIDTH 1000 0
DWIDTH 12 0
BBX 11 11 0 -1
BITMAP
EFC0
A040
A880
A880
A500
A500
A200
E200
0500
0880
3060
ENDCHAR
STARTCHAR uni53FB
ENCODING 21499
SWIDTH 1000 0
DWIDTH 12 0
BBX 11 11 0 -1
BITMAP
0100
F100
97E0
9120
9120
9120
9220
F220
0420
0820
30E0
ENDCHAR
STARTCHAR uni53FC
ENCODING 21500
SWIDTH 1000 0
DWIDTH 12 0
BBX 11 11 0 -1
BITMAP
07E0
F020
9020
90A0
9120
9220
9C20
9020
F020
0020
01C0
ENDCHAR
STARTCHAR uni53FD
ENCODING 21501
SWIDTH 1000 0
DWIDTH 12 0
BBX 11 11 0 -1
BITMAP
EF80
A880
A880
A880
A880
A880
E880
0880
08A0
10A0
60E0
ENDCHAR
STARTCHAR uni5401
ENCODING 21505
SWIDTH 1000 0
DWIDTH 12 0
BBX 11 11 0 -1
BITMAP
07E0
F080
9080
9080
9080
9FE0
9080
9080
9080
F080
0380
ENDCHAR
STARTCHAR uni5403
ENCODING 21507
SWIDTH 1000 0
DWIDTH 12 0
BBX 11 11 0 -1
BITMAP
0400
F7E0
9800
9000
97C0
9080
9100
9200
9420
F420
03E0
ENDCHAR
STARTCHAR uni5404
ENCODING 21508
SWIDTH 1000 0
DWIDTH 12 0
BBX 11 11 0 -1
BITMAP
1000
1F80
2080
4900
0600
1980
E060
3F80
2080
2080
3F80
ENDCHAR
STARTCHAR uni5406
ENCODING 21510
SWIDTH 1000 0
DWIDTH 12 0
BBX 11 10 0 0
BITMAP
0200
E240
A440
A480
AF80
A100
A200
E400
0840
1FA0
ENDCHAR
STARTCHAR uni5408
ENCODING 21512
SWIDTH 1000 0
DWIDTH 12 0
BBX 11 11 0 -1
BITMAP
0E00
1100
2080
4040
BFA0
0000
3F80
2080
2080
2080
3F80
ENDCHAR
STARTCHAR uni5409
ENCODING 21513
SWIDTH 1000 0
DWIDTH 12 0
BBX 11 11 0 -1
BITMAP
0400
FFE0
0400
0400
7FC0
0000
3F80
2080
2080
2080
3F80
ENDCHAR
STARTCHAR uni540A
ENCODING 21514
SWIDTH 1000 0
DWIDTH 12 0
BBX 9 11 1 -1
BITMAP
7F00
4100
4100
7F00
0800
FF80
8880
8880
8880
8B80
0800
ENDCHAR
STARTCHAR uni540C
ENCODING 21516
SWIDTH 1000 0
DWIDTH 12 0
BBX 11 11 0 -1
BITMAP
FFE0
8020
8020
BFA0
8020
9F20
9120
9120
9120
9F20
8060
ENDCHAR
STARTCHAR uni540D
ENCODING 21517
SWIDTH 1000 0
DWIDTH 12 0
BBX 11 11 0 -1
BITMAP
0400
0FC0
1040
6880
0500
0200
0FE0
3820
C820
0820
0FE0
ENDCHAR
STARTCHAR uni540E
ENCODING 21518
SWIDTH 1000 0
DWIDTH 12 0
BBX 11 11 0 -1
BITMAP
01C0
7E00
4000
4000
7FE0
4000
5FC0
5040
5040
9040
9FC0
ENDCHAR
STARTCHAR uni540F
ENCODING 21519
SWIDTH 1000 0
DWIDTH 12 0
BBX 11 11 0 -1
BITMAP
0400
FFE0
0400
7FC0
4440
4440
7FC0
0400
4800
3000
CFE0
ENDCHAR
STARTCHAR uni5410
ENCODING 21520
SWIDTH 1000 0
DWIDTH 12 0
BBX 11 11 0 -1
BITMAP
0100
F100
9100
9FE0
9100
9100
9100
9100
9100
F100
0FE0
ENDCHAR
STARTCHAR uni5411
ENCODING 21521
SWIDTH 1000 0
DWIDTH 12 0
BBX 11 11 0 -1
BITMAP
0400
0800
FFE0
8020
8020
9F20
9120
9120
9F20
8020
80E0
ENDCHAR
STARTCHAR uni5412
ENCODING 21522
SWIDTH 1000 0
DWIDTH 12 0
BBX 11 11 0 -1
BITMAP
01C0
EE00
A200
A260
A380
BE00
A200
E200
0220
0220
01E0
ENDCHAR
STARTCHAR uni5413
ENCODING 21523
SWIDTH 1000 0
DWIDTH 12 0
BBX 11 11 0 -1
BITMAP
EFE0
A100
A100
A100
A180
A140
A120
E100
0100
0100
0100
ENDCHAR
STARTCHAR uni5415
ENCODING 21525
SWIDTH 1000 0
DWIDTH 12 0
BBX 10 11 1 -1
BITMAP
7F80
4080
4080
4080
7F80
0000
FFC0
8040
8040
8040
FFC0
ENDCHAR
STARTCHAR uni5416
ENCODING 21526
SWIDTH 1000 0
DWIDTH 12 0
BBX 11 11 0 -1
BITMAP
0820
0440
F280
9100
9100
9100
9100
9100
F100
0100
0100
ENDCHAR
STARTCHAR uni5417
ENCODING 21527
SWIDTH 1000 0
DWIDTH 12 0
BBX 11 11 0 -1
BITMAP
0FC0
E040
A440
A440
A440
A7E0
A020
AFA0
E020
0020
00E0
ENDCHAR
STARTCHAR uni541B
ENCODING 21531
SWIDTH 1000 0
DWIDTH 12 0
BBX 11 11 0 -1
BITMAP
3FC0
0440
FFE0
0440
7FC0
0800
1FC0
3040
D040
1040
1FC0
ENDCHAR
STARTCHAR uni541D
ENCODING 21533
SWIDTH 1000 0
DWIDTH 12 0
BBX 11 11 0 -1
BITMAP
0400
FFE0
2080
1100
0E00
3180
C060
3F80
2080
2080
3F80
ENDCHAR
STARTCHAR uni541E
ENCODING 21534
SWIDTH 1000 0
DWIDTH 12 0
BBX 11 11 0 -1
BITMAP
7FC0
0400
FFE0
0A00
1100
2080
FFE0
2080
2080
2080
3F80
ENDCHAR
STARTCHAR uni541F
ENCODING 21535
SWIDTH 1000 0
DWIDTH 12 0
BBX 11 11 0 -1
BITMAP
0300
0480
E840
B7A0
A000
AFC0
A040
A080
E100
0200
0400
ENDCHAR
STARTCHAR uni5420
ENCODING 21536
SWIDTH 1000 0
DWIDTH 12 0
BBX 11 11 0 -1
BITMAP
0140
E120
A100
BFE0
A100
A100
A100
A280
A280
E440
1820
ENDCHAR
STARTCHAR uni5421
ENCODING 21537
SWIDTH 1000 0
DWIDTH 12 0
BBX 11 11 0 -1
BITMAP
0900
E900
A920
AF40
A980
A900
A900
E900
0920
0D20
18E0
ENDCHAR
STARTCHAR uni5423
ENCODING 21539
SWIDTH 1000 0
DWIDTH 12 0
BBX 11 11 0 -1
BITMAP
E200
A100
A480
A400
AC40
AC20
B420
E400
0440
0440
03C0
ENDCHAR
STARTCHAR uni5426
ENCODING 21542
SWIDTH 1000 0
DWIDTH 12 0
BBX 11 11 0 -1
BITMAP
FFE0
0200
0400
1C80
E440
0420
3F80
2080
2080
2080
3F80
ENDCHAR
STARTCHAR uni5427
ENCODING 21543
SWIDTH 1000 0
DWIDTH 12 0
BBX 11 11 0 -1
BITMAP
EFE0
A920
A920
A920
AFE0
A800
E800
0820
0820
0820
07E0
ENDCHAR
STARTCHAR uni5428
ENCODING 21544
SWIDTH 1000 0
DWIDTH 12 0
BBX 11 11 0 -1
BITMAP
0200
EFE0
A200
AA40
AA40
AA40
AFC0
E200
0220
0220
03E0
ENDCHAR
STARTCHAR uni5429
ENCODING 21545
SWIDTH 1000 0
DWIDTH 12 0
BBX 11 11 0 -1
BITMAP
0580
E440
A440
A820
A000
AFC0
A440
A440
A440
E840
0980
ENDCHAR
STARTCHAR uni542B
ENCODING 21547
SWIDTH 1000 0
DWIDTH 12 0
BBX 11 11 0 -1
BITMAP
1F00
2080
5F40
8020
3F80
0100
0200
3F80
2080
2080
3F80
ENDCHAR
STARTCHAR uni542C
ENCODING 21548
SWIDTH 1000 0
DWIDTH 12 0
BBX 11 11 0 -1
BITMAP
0060
F780
9400
9400
97E0
9480
9480
9480
9480
F480
0880
ENDCHAR
STARTCHAR uni542D
ENCODING 21549
SWIDTH 1000 0
DWIDTH 12 0
BBX 11 11 0 -1
BITMAP
0100
07C0
F000
9380
9280
9280
9280
9280
92A0
F4A0
08E0
ENDCHAR
STARTCHAR uni542E
ENCODING 21550
SWIDTH 1000 0
DWIDTH 12 0
BBX 11 11 0 -1
BITMAP
0200
E440
A440
BFA0
A000
A480
A480
A480
E4A0
08A0
30E0
ENDCHAR
STARTCHAR uni542F
ENCODING 21551
SWIDTH 1000 0
DWIDTH 12 0
BBX 11 11 0 -1
BITMAP
0200
3FE0
2020
3FE0
2000
2000
2FE0
2820
4820
4820
8FE0
ENDCHAR
STARTCHAR uni5431
ENCODING 21553
SWIDTH 1000 0
DWIDTH 12 0
BBX 11 11 0 -1
BITMAP
E200
BFC0
A200
A200
AFC0
A040
A880
E500
0200
0D80
7060
ENDCHAR
STARTCHAR uni5432
ENCODING 21554
SWIDTH 1000 0
DWIDTH 12 0
BBX 11 11 0 -1
BITMAP
F7A0
90A0
90A0
97A0
9420
9420
F7A0
00A0
00A0
00A0
03A0
ENDCHAR
STARTCHAR uni5434
ENCODING 21556
SWIDTH 1083 0
DWIDTH 12 0
BBX 11 11 0 -1
BITMAP
3F80
2080
3F80
0000
3F80
0400
0400
FFE0
0A00
3180
C060
ENDCHAR
STARTCHAR uni5435
ENCODING 21557
SWIDTH 1083 0
DWIDTH 12 0
BBX 11 11 0 -1
BITMAP
0100
E100
A540
A520
A920
A100
A100
E020
0040
0180
0E00
ENDCHAR
STARTCHAR uni5438
ENCODING 21560
SWIDTH 1000 0
DWIDTH 12 0
BBX 11 11 0 -1
BITMAP
0FC0
F480
9480
9500
95C0
9440
F640
0A80
0980
1240
6C20
ENDCHAR
STARTCHAR uni5439
ENCODING 21561
SWIDTH 1000 0
DWIDTH 12 0
BBX 11 11 0 -1
BITMAP
0400
F7E0
9520
9920
9140
9100
9100
9280
F280
0440
1820
ENDCHAR
STARTCHAR uni543B
ENCODING 21563
SWIDTH 1000 0
DWIDTH 12 0
BBX 11 11 0 -1
BITMAP
0800
EFE0
AAA0
B2A0
A4A0
A520
A920
B220
A420
E020
00E0
ENDCHAR
STARTCHAR uni543C
ENCODING 21564
SWIDTH 1000 0
DWIDTH 12 0
BBX 11 11 0 -1
BITMAP
1E80
E280
A480
A480
A480
A680
BC80
A480
A4A0
E4A0
0C40
ENDCHAR
STARTCHAR uni543E
ENCODING 21566
SWIDTH 1000 0
DWIDTH 12 0
BBX 11 11 0 -1
BITMAP
7FC0
0800
7F80
0880
1080
FFE0
0000
3F80
2080
2080
3F80
ENDCHAR
STARTCHAR uni5440
ENCODING 21568
SWIDTH 1000 0
DWIDTH 12 0
BBX 11 11 0 -1
BITMAP
07E0
F040
9240
9240
9240
97E0
9140
9140
F240
0440
18C0
ENDCHAR
STARTCHAR uni5443
ENCODING 21571
SWIDTH 1000 0
DWIDTH 12 0
BBX 11 11 0 -1
BITMAP
0FE0
E800
A800
ABC0
AA40
AA40
AA40
EAC0
0A00
1220
63E0
ENDCHAR
STARTCHAR uni5446
ENCODING 21574
SWIDTH 1000 0
DWIDTH 12 0
BBX 11 11 0 -1
BITMAP
3F80
2080
2080
3F80
0400
FFE0
0400
0C00
3580
C460
0400
ENDCHAR
STARTCHAR uni5448
ENCODING 21576
SWIDTH 1000 0
DWIDTH 12 0
BBX 11 11 0 -1
BITMAP
3F80
2080
2080
3F80
0000
7FC0
0400
3F80
0400
0400
FFE0
ENDCHAR
STARTCHAR uni544A
ENCODING 21578
SWIDTH 1000 0
DWIDTH 12 0
BBX 11 11 0 -1
BITMAP
2200
2200
3FC0
4200
8200
FFE0
0000
3FC0
2040
2040
3FC0
ENDCHAR
STARTCHAR uni544B
ENCODING 21579
SWIDTH 1000 0
DWIDTH 12 0
BBX 11 11 0 -1
BITMAP
0200
EFC0
A200
A200
A200
BFE0
A200
E500
0500
0880
3060
ENDCHAR
STARTCHAR uni5450
ENCODING 21584
SWIDTH 1000 0
DWIDTH 12 0
BBX 11 11 0 -1
BITMAP
0100
E100
AFE0
A920
A920
AAA0
ACA0
E820
0820
0820
08C0
ENDCHAR
STARTCHAR uni5452
ENCODING 21586
SWIDTH 1000 0
DWIDTH 12 0
BBX 11 11 0 -1
BITMAP
FFE0
A200
A200
A200
BFE0
A500
A500
E920
0920
1120
60E0
ENDCHAR
STARTCHAR uni5453
ENCODING 21587
SWIDTH 1000 0
DWIDTH 12 0
BBX 11 11 0 -1
BITMAP
0480
FFE0
A480
AFC0
A080
A100
A200
E400
0820
0820
07E0
ENDCHAR
STARTCHAR uni5454
ENCODING 21588
SWIDTH 1000 0
DWIDTH 12 0
BBX 11 11 0 -1
BITMAP
E200
A200
BFE0
A200
A200
A500
E500
0480
0A80
1140
6020
ENDCHAR
STARTCHAR uni5455
ENCODING 21589
SWIDTH 1000 0
DWIDTH 12 0
BBX 11 11 0 -1
BITMAP
0FE0
E800
AC40
AA80
A900
AA80
AA40
EC40
0800
0800
0FE0
ENDCHAR
STARTCHAR uni5456
ENCODING 21590
SWIDTH 1000 0
DWIDTH 12 0
BBX 11 11 0 -1
BITMAP
07E0
F400
9480
9480
97E0
94A0
94A0
F4A0
0520
0920
1260
ENDCHAR
STARTCHAR uni5457
ENCODING 21591
SWIDTH 1000 0
DWIDTH 12 0
BBX 11 11 0 -1
BITMAP
07C0
F440
9540
9540
9540
9540
9540
9540
F100
0280
0C60
ENDCHAR
STARTCHAR uni5458
ENCODING 21592
SWIDTH 1000 0
DWIDTH 12 0
BBX 9 11 1 -1
BITMAP
3F00
2100
3F00
0000
7F80
4080
4880
4880
4880
1600
E180
ENDCHAR
STARTCHAR uni5459
ENCODING 21593
SWIDTH 1000 0
DWIDTH 12 0
BBX 10 11 1 -1
BITMAP
3F00
2100
2100
3F00
0400
FFC0
8440
8A40
9140
E040
80C0
ENDCHAR
STARTCHAR uni545B
ENCODING 21595
SWIDTH 1000 0
DWIDTH 12 0
BBX 11 11 0 -1
BITMAP
0200
E500
A880
B040
AF80
A880
AA80
E900
0820
0820
07E0
ENDCHAR
STARTCHAR uni545C
ENCODING 21596
SWIDTH 1000 0
DWIDTH 12 0
BBX 11 11 0 -1
BITMAP
0200
07C0
E440
A440
A580
A400
A7E0
E020
1FA0
0020
00E0
ENDCHAR
STARTCHAR uni5462
ENCODING 21602
SWIDTH 1000 0
DWIDTH 12 0
BBX 11 11 0 -1
BITMAP
0FC0
E840
A840
AFC0
AA00
AA40
AA80
EB00
1220
1220
23E0
ENDCHAR
STARTCHAR uni5464
ENCODING 21604
SWIDTH 1000 0
DWIDTH 12 0
BBX 11 11 0 -1
BITMAP
E200
A500
A480
AA60
B100
A080
AFC0
E080
0500
0200
0100
ENDCHAR
STARTCHAR uni5466
ENCODING 21606
SWIDTH 1000 0
DWIDTH 12 0
BBX 11 11 0 -1
BITMAP
0880
EA80
B5E0
BCA0
A4A0
A8A0
B4A0
BEA0
E120
0220
0CE0
ENDCHAR
STARTCHAR uni5468
ENCODING 21608
SWIDTH 1000 0
DWIDTH 12 0
BBX 11 11 0 -1
BITMAP
7FE0
4420
5F20
4420
5FA0
4020
5F20
5120
5120
5F20
8060
ENDCHAR
STARTCHAR uni5471
ENCODING 21617
SWIDTH 1000 0
DWIDTH 12 0
BBX 11 11 0 -1
BITMAP
0FE0
EA80
AA80
AA80
AA80
AA40
AA40
AA40
AA20
F2A0
17A0
ENDCHAR
STARTCHAR uni5472
ENCODING 21618
SWIDTH 1000 0
DWIDTH 12 0
BBX 11 11 0 -1
BITMAP
0280
E280
AAA0
ABC0
AA80
AA80
EA80
0B80
0EA0
18A0
0060
ENDCHAR
STARTCHAR uni5473
ENCODING 21619
SWIDTH 1000 0
DWIDTH 12 0
BBX 11 11 0 -1
BITMAP
0200
E200
AFC0
A200
A200
BFE0
A700
EA80
1240
2220
0200
ENDCHAR
STARTCHAR uni5475
ENCODING 21621
SWIDTH 1000 0
DWIDTH 12 0
BBX 11 11 0 -1
BITMAP
1FE0
E040
A040
AE40
AA40
AA40
AA40
AE40
A040
E040
01C0
ENDCHAR
STARTCHAR uni5476
ENCODING 21622
SWIDTH 1000 0
DWIDTH 12 0
BBX 11 11 0 -1
BITMAP
09E0
E820
BEA0
AAA0
AAA0
AAA0
AAA0
BC40
A440
EAA0
1120
ENDCHAR
STARTCHAR uni5477
ENCODING 21623
SWIDTH 1000 0
DWIDTH 12 0
BBX 11 11 0 -1
BITMAP
0FE0
E920
A920
AFE0
A920
A920
AFE0
A100
A100
E100
0100
ENDCHAR
STARTCHAR uni5478
ENCODING 21624
SWIDTH 1000 0
DWIDTH 12 0
BBX 11 11 0 -1
BITMAP
FFE0
A100
A200
A200
A680
AA40
B220
E200
0200
0200
3FE0
ENDCHAR
STARTCHAR uni547B
ENCODING 21627
SWIDTH 1000 0
DWIDTH 12 0
BBX 11 11 0 -1
BITMAP
0100
EFE0
A920
A920
AFE0
A920
A920
AFE0
A100
E100
0100
ENDCHAR
STARTCHAR uni547C
ENCODING 21628
SWIDTH 1000 0
DWIDTH 12 0
BBX 11 11 0 -1
BITMAP
00E0
EF00
A100
A920
A540
A100
BFE0
A100
A100
E100
0700
ENDCHAR
STARTCHAR uni547D
ENCODING 21629
SWIDTH 1000 0
DWIDTH 12 0
BBX 10 11 1 -1
BITMAP
1E00
2100
4080
BF40
0000
F7C0
9440
9440
9440
F5C0
0400
ENDCHAR
STARTCHAR uni5480
ENCODING 21632
SWIDTH 1000 0
DWIDTH 12 0
BBX 11 11 0 -1
BITMAP
07C0
E440
A440
A7C0
A440
A440
A7C0
A440
A440
E440
0FE0
ENDCHAR
STARTCHAR uni5482
ENCODING 21634
SWIDTH 1000 0
DWIDTH 12 0
BBX 11 11 0 -1
BITMAP
EFE0
A880
ABE0
AAA0
AAA0
AAA0
AAA0
EAE0
0880
0880
0FE0
ENDCHAR
STARTCHAR uni5484
ENCODING 21636
SWIDTH 1000 0
DWIDTH 12 0
BBX 11 11 0 -1
BITMAP
0100
E920
A920
A920
AFE0
A100
A100
A920
A920
E920
0FE0
ENDCHAR
STARTCHAR uni5486
ENCODING 21638
SWIDTH 1000 0
DWIDTH 12 0
BBX 11 11 0 -1
BITMAP
0400
F7E0
9820
97A0
94A0
94A0
97A0
9460
9400
F420
03E0
ENDCHAR
STARTCHAR uni548B
ENCODING 21643
SWIDTH 1000 0
DWIDTH 12 0
BBX 11 11 0 -1
BITMAP
0400
F7E0
9500
9900
91E0
9100
9100
91E0
9100
F100
0100
ENDCHAR
STARTCHAR uni548C
ENCODING 21644
SWIDTH 1000 0
DWIDTH 12 0
BBX 11 11 0 -1
BITMAP
0C00
F1E0
1120
1120
FF20
1120
1920
3520
5320
91E0
1000
ENDCHAR
STARTCHAR uni548E
ENCODING 21646
SWIDTH 1000 0
DWIDTH 12 0
BBX 11 11 0 -1
BITMAP
4100
7900
D180
2240
5420
8FC0
0000
7F80
4080
4080
7F80
ENDCHAR
STARTCHAR uni548F
ENCODING 21647
SWIDTH 1000 0
DWIDTH 12 0
BBX 11 11 0 -1
BITMAP
0180
F000
9780
90A0
9EC0
9280
9280
94C0
F4A0
08A0
0180
ENDCHAR
STARTCHAR uni5490
ENCODING 21648
SWIDTH 1000 0
DWIDTH 12 0
BBX 11 11 0 -1
BITMAP
0440
E440
ABE0
B840
A840
AA40
A940
A840
A840
E840
08C0
ENDCHAR
STARTCHAR uni5492
ENCODING 21650
SWIDTH 1000 0
DWIDTH 12 0
BBX 11 11 0 -1
BITMAP
7BC0
4A40
4A40
7BC0
0000
1F00
1100
1100
1120
2120
C0E0
ENDCHAR
STARTCHAR uni5494
ENCODING 21652
SWIDTH 1000 0
DWIDTH 12 0
BBX 11 11 0 -1
BITMAP
E200
A3C0
A200
BFE0
A200
A300
A280
E240
0200
0200
0200
ENDCHAR
STARTCHAR uni5495
ENCODING 21653
SWIDTH 1000 0
DWIDTH 12 0
BBX 11 11 0 -1
BITMAP
0100
E100
BFE0
A100
A100
AFC0
A840
E840
0840
0840
0FC0
ENDCHAR
STARTCHAR uni5496
ENCODING 21654
SWIDTH 1000 0
DWIDTH 12 0
BBX 11 11 0 -1
BITMAP
0800
E8E0
BEA0
AAA0
AAA0
AAA0
AAA0
AAA0
EAE0
1200
2400
ENDCHAR
STARTCHAR uni5499
ENCODING 21657
SWIDTH 1000 0
DWIDTH 12 0
BBX 11 11 0 -1
BITMAP
0500
E480
BFE0
A500
A500
A540
A980
EB00
0920
1120
60E0
ENDCHAR
STARTCHAR uni549A
ENCODING 21658
SWIDTH 1000 0
DWIDTH 12 0
BBX 11 11 0 -1
BITMAP
0200
E3E0
A440
AA80
A100
A280
A460
B900
E080
0600
01C0
ENDCHAR
STARTCHAR uni549B
ENCODING 21659
SWIDTH 1000 0
DWIDTH 12 0
BBX 11 11 0 -1
BITMAP
0100
EFE0
A820
A000
AFE0
A100
A100
E100
0100
0100
0700
ENDCHAR
STARTCHAR uni549D
ENCODING 21661
SWIDTH 1000 0
DWIDTH 12 0
BBX 11 11 0 -1
BITMAP
0440
E440
A880
AAA0
BDE0
A440
A840
AE80
F9E0
0000
3FE0
ENDCHAR
STARTCHAR uni54A3
ENCODING 21667
SWIDTH 1000 0
DWIDTH 12 0
BBX 11 11 0 -1
BITMAP
1280
EA80
AB00
A200
BFE0
A500
E500
0500
0920
1120
60E0
ENDCHAR
STARTCHAR uni54A4
ENCODING 21668
SWIDTH 1000 0
DWIDTH 12 0
BBX 11 11 0 -1
BITMAP
0200
FFE0
9820
91A0
9E00
9200
93E0
9E00
9200
F220
03E0
ENDCHAR
STARTCHAR uni54A6
ENCODING 21670
SWIDTH 1083 0
DWIDTH 12 0
BBX 11 11 0 -1
BITMAP
0100
EFE0
A100
AFC0
A140
AFC0
A900
EFE0
02A0
0440
1820
ENDCHAR
STARTCHAR uni54A7
ENCODING 21671
SWIDTH 1000 0
DWIDTH 12 0
BBX 11 11 0 -1
BITMAP
1F20
E8A0
A8A0
AEA0
B2A0
AAA0
A4A0
E4A0
8820
1020
20E0
ENDCHAR
STARTCHAR uni54A8
ENCODING 21672
SWIDTH 1000 0
DWIDTH 12 0
BBX 11 11 0 -1
BITMAP
C400
27E0
0920
0140
2300
4480
8860
3F80
2080
2080
3F80
ENDCHAR
STARTCHAR uni54A9
ENCODING 21673
SWIDTH 1000 0
DWIDTH 12 0
BBX 11 11 0 -1
BITMAP
0880
E500
BFE0
A200
A200
AF80
A200
E200
3FE0
0200
0200
ENDCHAR
STARTCHAR uni54AA
ENCODING 21674
SWIDTH 1000 0
DWIDTH 12 0
BBX 11 11 0 -1
BITMAP
1240
EA80
A200
BFE0
A200
A700
AB00
EA80
1240
6220
0200
ENDCHAR
STARTCHAR uni54AB
ENCODING 21675
SWIDTH 1000 0
DWIDTH 12 0
BBX 11 11 0 -1
BITMAP
7DE0
4520
4520
4520
7DE0
5000
5120
4920
4800
8600
81E0
ENDCHAR
STARTCHAR uni54AC
ENCODING 21676
SWIDTH 1000 0
DWIDTH 12 0
BBX 11 12 0 -1
BITMAP
0200
0100
FFE0
9000
9440
9820
9000
9440
9280
9180
F240
0C20
ENDCHAR
STARTCHAR uni54AD
ENCODING 21677
SWIDTH 1000 0
DWIDTH 12 0
BBX 11 11 0 -1
BITMAP
E100
AFE0
A100
A100
AFE0
A000
AFE0
E820
0820
0820
0FE0
ENDCHAR
STARTCHAR uni54AF
ENCODING 21679
SWIDTH 1000 0
DWIDTH 12 0
BBX 11 11 0 -1
BITMAP
0400
E7C0
A840
B480
A300
A480
B860
AFC0
A840
E840
0FC0
ENDCHAR
STARTCHAR uni54B1
ENCODING 21681
SWIDTH 1000 0
DWIDTH 12 0
BBX 11 11 0 -1
BITMAP
0200
F7E0
9420
9420
97E0
9420
9420
F7E0
0420
0420
07E0
ENDCHAR
STARTCHAR uni54B3
ENCODING 21683
SWIDTH 1000 0
DWIDTH 12 0
BBX 11 11 0 -1
BITMAP
0100
F7E0
9100
9220
97C0
9080
9120
9640
9080
F340
0C20
ENDCHAR
STARTCHAR uni54B4
ENCODING 21684
SWIDTH 1000 0
DWIDTH 12 0
BBX 11 11 0 -1
BITMAP
0400
FFE0
A400
A500
A520
AB40
AD00
EA80
1280
2440
1820
ENDCHAR
STARTCHAR uni54B8
ENCODING 21688
SWIDTH 1000 0
DWIDTH 12 0
BBX 11 11 0 -1
BITMAP
0140
7FE0
4100
5D00
4140
5D40
5480
5480
5DA0
4260
8C20
ENDCHAR
STARTCHAR uni54BB
ENCODING 21691
SWIDTH 1000 0
DWIDTH 12 0
BBX 11 11 0 -1
BITMAP
0280
E480
A7E0
AC80
B480
A5C0
A5A0
E6A0
0480
0480
0480
ENDCHAR
STARTCHAR uni54BD
ENCODING 21693
SWIDTH 1000 0
DWIDTH 12 0
BBX 11 11 0 -1
BITMAP
0FE0
E920
A920
AFE0
A920
A920
A920
AAA0
AC60
E820
0FE0
ENDCHAR
STARTCHAR uni54BF
ENCODING 21695
SWIDTH 1000 0
DWIDTH 12 0
BBX 11 11 0 -1
BITMAP
0BC0
E940
B940
AFE0
A940
AFC0
A900
E900
0A00
0A00
0C00
ENDCHAR
STARTCHAR uni54C0
ENCODING 21696
SWIDTH 1000 0
DWIDTH 12 0
BBX 11 11 0 -1
BITMAP
0400
FFE0
2080
2080
3F80
1200
2120
E140
2080
2C40
7020
ENDCHAR
STARTCHAR uni54C1
ENCODING 21697
SWIDTH 1000 0
DWIDTH 12 0
BBX 11 11 0 -1
BITMAP
3F80
2080
2080
2080
3F80
0000
FBE0
8A20
8A20
8A20
FBE0
ENDCHAR
STARTCHAR uni54C2
ENCODING 21698
SWIDTH 1000 0
DWIDTH 12 0
BBX 11 11 0 -1
BITMAP
0FE0
E280
A280
AFE0
AAA0
AAA0
AAA0
AAE0
AC20
E820
0FE0
ENDCHAR
STARTCHAR uni54C4
ENCODING 21700
SWIDTH 1000 0
DWIDTH 12 0
BBX 11 11 0 -1
BITMAP
0480
E480
BFE0
A480
A480
A480
BFE0
A000
A480
E840
1020
ENDCHAR
STARTCHAR uni54C6
ENCODING 21702
SWIDTH 1083 0
DWIDTH 13 0
BBX 12 11 0 -1
BITMAP
01E0
F220
9540
9080
9100
96F0
9110
F6A0
0040
0180
1E00
ENDCHAR
STARTCHAR uni54C7
ENCODING 21703
SWIDTH 1000 0
DWIDTH 12 0
BBX 11 11 0 -1
BITMAP
0100
F7C0
9100
9100
9FE0
9100
9100
97C0
9100
F100
0FE0
ENDCHAR
STARTCHAR uni54C8
ENCODING 21704
SWIDTH 1000 0
DWIDTH 12 0
BBX 11 11 0 -1
BITMAP
0180
F240
9420
9000
97E0
9000
97E0
9420
9420
F420
07E0
ENDCHAR
STARTCHAR uni54C9
ENCODING 21705
SWIDTH 1000 0
DWIDTH 12 0
BBX 11 11 0 -1
BITMAP
2140
F920
2100
27E0
F900
0140
0140
F880
8880
8940
FE20
ENDCHAR
STARTCHAR uni54CC
ENCODING 21708
SWIDTH 1000 0
DWIDTH 12 0
BBX 11 11 0 -1
BITMAP
EFE0
A800
ABE0
AA80
AAA0
AAC0
EA80
0A40
0A40
12A0
2320
ENDCHAR
STARTCHAR uni54CD
ENCODING 21709
SWIDTH 1000 0
DWIDTH 12 0
BBX 11 11 0 -1
BITMAP
0200
EFE0
A820
ABA0
AAA0
AAA0
AAA0
EBA0
0820
0820
08E0
ENDCHAR
STARTCHAR uni54CE
ENCODING 21710
SWIDTH 1000 0
DWIDTH 12 0
BBX 12 11 0 -1
BITMAP
0280
FFF0
9280
9040
9440
9280
9280
F100
0280
0C40
3030
ENDCHAR
STARTCHAR uni54CF
ENCODING 21711
SWIDTH 1000 0
DWIDTH 12 0
BBX 11 11 0 -1
BITMAP
F7C0
9440
97C0
9440
97C0
9520
9540
F480
0480
0540
0620
ENDCHAR
STARTCHAR uni54D0
ENCODING 21712
SWIDTH 1000 0
DWIDTH 12 0
BBX 11 11 0 -1
BITMAP
EFE0
A800
ABE0
A880
ABE0
A880
A880
EBE0
0800
0800
0FE0
ENDCHAR
STARTCHAR uni54D1
ENCODING 21713
SWIDTH 1000 0
DWIDTH 12 0
BBX 11 11 0 -1
BITMAP
1FE0
E500
A520
B520
B540
AD40
A580
A500
E500
0500
3FE0
ENDCHAR
STARTCHAR uni54D2
ENCODING 21714
SWIDTH 1000 0
DWIDTH 12 0
BBX 11 11 0 -1
BITMAP
1080
E880
A7E0
A080
B880
A880
A940
E920
0A20
1400
23E0
ENDCHAR
STARTCHAR uni54D3
ENCODING 21715
SWIDTH 1000 0
DWIDTH 12 0
BBX 11 11 0 -1
BITMAP
04C0
E300
AE80
A120
AEE0
A000
BFE0
E500
0520
0920
71E0
ENDCHAR
STARTCHAR uni54D4
ENCODING 21716
SWIDTH 1000 0
DWIDTH 12 0
BBX 11 11 0 -1
BITMAP
0900
E920
AF40
A980
AB20
ACE0
A200
BFE0
E200
0200
0200
ENDCHAR
STARTCHAR uni54D5
ENCODING 21717
SWIDTH 1000 0
DWIDTH 12 0
BBX 11 11 0 -1
BITMAP
0920
E920
AFE0
A200
A200
A7E0
E840
3280
0100
0600
3800
ENDCHAR
STARTCHAR uni54D7
ENCODING 21719
SWIDTH 1000 0
DWIDTH 12 0
BBX 11 11 0 -1
BITMAP
E520
A940
B980
AB20
A8E0
A800
E200
1FE0
0200
0200
0200
ENDCHAR
STARTCHAR uni54D9
ENCODING 21721
SWIDTH 1000 0
DWIDTH 12 0
BBX 11 11 0 -1
BITMAP
E100
A280
A440
BBA0
A000
AFE0
A200
E280
0440
0840
1FA0
ENDCHAR
STARTCHAR uni54DA
ENCODING 21722
SWIDTH 1000 0
DWIDTH 12 0
BBX 11 11 0 -1
BITMAP
E780
A480
A480
AA60
A200
BFE0
E300
0680
0A40
3220
0200
ENDCHAR
STARTCHAR uni54DC
ENCODING 21724
SWIDTH 1000 0
DWIDTH 12 0
BBX 11 11 0 -1
BITMAP
0200
FFE0
A840
A480
A300
A480
A860
F480
0480
0880
1080
ENDCHAR
STARTCHAR uni54DD
ENCODING 21725
SWIDTH 1000 0
DWIDTH 12 0
BBX 11 11 0 -1
BITMAP
E200
BFE0
B220
A200
A500
A520
ED40
1480
2480
0540
0620
ENDCHAR
STARTCHAR uni54DE
ENCODING 21726
SWIDTH 1000 0
DWIDTH 12 0
BBX 11 11 0 -1
BITMAP
0200
E400
A880
BF40
A200
AA00
EFC0
1200
3FE0
0200
0200
ENDCHAR
STARTCHAR uni54DF
ENCODING 21727
SWIDTH 1000 0
DWIDTH 12 0
BBX 11 11 0 -1
BITMAP
0880
E880
B2E0
B4A0
BD20
A820
B2A0
BCA0
E220
1C20
00E0
ENDCHAR
STARTCHAR uni54E5
ENCODING 21733
SWIDTH 1000 0
DWIDTH 12 0
BBX 11 11 0 -1
BITMAP
7FE0
2480
3C80
0080
FFE0
0080
3C80
2480
3C80
0080
0180
ENDCHAR
STARTCHAR uni54E6
ENCODING 21734
SWIDTH 1000 0
DWIDTH 12 0
BBX 11 11 0 -1
BITMAP
0100
1EA0
E4A0
A480
A7E0
BC80
A6A0
BCA0
A440
E4A0
0E20
ENDCHAR
STARTCHAR uni54E7
ENCODING 21735
SWIDTH 1000 0
DWIDTH 12 0
BBX 11 11 0 -1
BITMAP
0100
EFC0
A100
BFE0
A280
AA80
AAC0
EAA0
14A0
0880
1180
ENDCHAR
STARTCHAR uni54E8
ENCODING 21736
SWIDTH 1000 0
DWIDTH 12 0
BBX 11 11 0 -1
BITMAP
0100
E920
A540
A100
AFE0
A820
AFE0
A820
AFE0
E820
0860
ENDCHAR
STARTCHAR uni54E9
ENCODING 21737
SWIDTH 1000 0
DWIDTH 12 0
BBX 11 11 0 -1
BITMAP
0FE0
E920
AFE0
A920
A920
AFE0
A100
AFE0
A100
E100
0FE0
ENDCHAR
STARTCHAR uni54EA
ENCODING 21738
SWIDTH 1000 0
DWIDTH 12 0
BBX 11 11 0 -1
BITMAP
1EE0
EAA0
AAA0
AAA0
BEC0
AAA0
BEA0
EAA0
0AC0
1680
0080
ENDCHAR
STARTCHAR uni54ED
ENCODING 21741
SWIDTH 1000 0
DWIDTH 12 0
BBX 11 11 0 -1
BITMAP
7BC0
4A40
4A40
7BC0
0480
0440
FFE0
0400
0A00
3180
C060
ENDCHAR
STARTCHAR uni54EE
ENCODING 21742
SWIDTH 1000 0
DWIDTH 12 0
BBX 11 11 0 -1
BITMAP
0240
EFC0
A280
BFE0
A200
A7C0
B880
AFE0
E100
0100
0700
ENDCHAR
STARTCHAR uni54F2
ENCODING 21746
SWIDTH 1000 0
DWIDTH 12 0
BBX 11 11 0 -1
BITMAP
23E0
FA00
23E0
3A40
E240
2240
6400
3FC0
2040
2040
3FC0
ENDCHAR
STARTCHAR uni54F3
ENCODING 21747
SWIDTH 1000 0
DWIDTH 12 0
BBX 11 11 0 -1
BITMAP
EBE0
BE00
AA00
ABE0
AE40
BA40
EA40
0A40
0A40
0A40
1C40
ENDCHAR
STARTCHAR uni54FA
ENCODING 21754
SWIDTH 1000 0
DWIDTH 12 0
BBX 11 11 0 -1
BITMAP
0140
EFE0
A100
AFE0
A920
AFE0
A920
AFE0
A920
E920
0960
ENDCHAR
STARTCHAR uni54FC
ENCODING 21756
SWIDTH 1000 0
DWIDTH 12 0
BBX 11 11 0 -1
BITMAP
0100
F7E0
9240
9240
93C0
9000
97E0
F040
0080
0080
0180
ENDCHAR
STARTCHAR uni54FD
ENCODING 21757
SWIDTH 1000 0
DWIDTH 12 0
BBX 11 11 0 -1
BITMAP
1FE0
E100
AFE0
A920
AFE0
A920
AFE0
A500
E300
0480
1860
ENDCHAR
STARTCHAR uni54FF
ENCODING 21759
SWIDTH 1000 0
DWIDTH 12 0
BBX 11 11 0 -1
BITMAP
21E0
7D20
2520
4DE0
0000
FFE0
0040
3E40
2240
3E40
00C0
ENDCHAR
STARTCHAR uni5501
ENCODING 21761
SWIDTH 1000 0
DWIDTH 12 0
BBX 11 11 0 -1
BITMAP
F100
97E0
9000
97E0
9000
97E0
9000
F7E0
0420
0420
07E0
ENDCHAR
STARTCHAR uni5506
ENCODING 21766
SWIDTH 1000 0
DWIDTH 12 0
BBX 11 11 0 -1
BITMAP
0280
E440
BFE0
A480
AA60
A400
AFC0
B440
E380
0440
1820
ENDCHAR
STARTCHAR uni5507
ENCODING 21767
SWIDTH 1000 0
DWIDTH 12 0
BBX 11 11 0 -1
BITMAP
7FE0
4000
7FE0
5240
5580
B860
0000
3FC0
2040
2040
3FC0
ENDCHAR
STARTCHAR uni5509
ENCODING 21769
SWIDTH 1000 0
DWIDTH 12 0
BBX 11 11 0 -1
BITMAP
0480
E840
BFE0
A400
AFE0
A900
A900
BFE0
E280
0440
1820
ENDCHAR
STARTCHAR uni550F
ENCODING 21775
SWIDTH 1000 0
DWIDTH 12 0
BBX 11 11 0 -1
BITMAP
0660
F180
9640
9100
9FE0
9200
97E0
9D20
9520
F560
0100
ENDCHAR
STARTCHAR uni5510
ENCODING 21776
SWIDTH 1000 0
DWIDTH 12 0
BBX 11 11 0 -1
BITMAP
0400
7FC0
4240
7FE0
4240
7FC0
4200
5FC0
5040
9040
9FC0
ENDCHAR
STARTCHAR uni5511
ENCODING 21777
SWIDTH 1000 0
DWIDTH 12 0
BBX 11 11 0 -1
BITMAP
EA40
AA40
AA40
AA40
B6A0
B320
A200
EFC0
0200
0200
3FE0
ENDCHAR
STARTCHAR uni5514
ENCODING 21780
SWIDTH 1000 0
DWIDTH 12 0
BBX 11 11 0 -1
BITMAP
1FE0
E200
AFC0
A440
A440
BFE0
A000
EFC0
0840
0840
0FC0
ENDCHAR
STARTCHAR uni551B
ENCODING 21787
SWIDTH 1083 0
DWIDTH 12 0
BBX 11 11 0 -1
BITMAP
0100
EFE0
A100
AFC0
A100
AFE0
A440
EA80
1100
0280
1C60
ENDCHAR
STARTCHAR uni5520
ENCODING 21792
SWIDTH 1000 0
DWIDTH 12 0
BBX 11 11 0 -1
BITMAP
0480
FFE0
A480
A000
BFE0
B220
AFC0
A240
E440
0840
11C0
ENDCHAR
STARTCHAR uni5522
ENCODING 21794
SWIDTH 1000 0
DWIDTH 12 0
BBX 11 11 0 -1
BITMAP
0520
F340
9100
97E0
9420
9520
9520
F520
0280
0440
1820
ENDCHAR
STARTCHAR uni5523
ENCODING 21795
SWIDTH 1000 0
DWIDTH 12 0
BBX 11 11 0 -1
BITMAP
0200
EFC0
A840
AFC0
A840
AFC0
A200
A3E0
EE00
0220
03E0
ENDCHAR
STARTCHAR uni5524
ENCODING 21796
SWIDTH 1000 0
DWIDTH 12 0
BBX 11 11 0 -1
BITMAP
E3C0
A480
A900
AFE0
A920
A920
FFE0
0280
0280
0440
1820
ENDCHAR
STARTCHAR uni5527
ENCODING 21799
SWIDTH 1000 0
DWIDTH 12 0
BBX 11 11 0 -1
BITMAP
EEE0
AAA0
AEA0
AAA0
AEA0
A8A0
E8E0
0A80
0D80
0080
0080
ENDCHAR
STARTCHAR uni552A
ENCODING 21802
SWIDTH 1000 0
DWIDTH 12 0
BBX 11 11 0 -1
BITMAP
0100
EFC0
A100
AFC0
A200
BFE0
A940
B7A0
E100
0FE0
0100
ENDCHAR
STARTCHAR uni552C
ENCODING 21804
SWIDTH 1000 0
DWIDTH 12 0
BBX 11 11 0 -1
BITMAP
01C0
E100
AFE0
A920
A9C0
AB20
A8E0
EB80
0AA0
12A0
24C0
ENDCHAR
STARTCHAR uni552E
ENCODING 21806
SWIDTH 1000 0
DWIDTH 12 0
BBX 11 11 0 -1
BITMAP
1100
3FE0
6200
BFC0
2200
3FC0
2200
3FE0
2040
2040
3FC0
ENDCHAR
STARTCHAR uni552F
ENCODING 21807
SWIDTH 1000 0
DWIDTH 12 0
BBX 11 11 0 -1
BITMAP
0500
0480
EFE0
B900
AFE0
A900
A900
EFE0
0900
0900
0FE0
ENDCHAR
STARTCHAR uni5530
ENCODING 21808
SWIDTH 1000 0
DWIDTH 12 0
BBX 11 11 0 -1
BITMAP
1F20
1120
FFA0
B4A0
BFA0
B5A0
B5A0
F520
1720
1420
2460
ENDCHAR
STARTCHAR uni5531
ENCODING 21809
SWIDTH 1000 0
DWIDTH 12 0
BBX 11 11 0 -1
BITMAP
07C0
E440
A7C0
A440
A7C0
A000
AFE0
A820
EFE0
0820
0FE0
ENDCHAR
STARTCHAR uni5533
ENCODING 21811
SWIDTH 1000 0
DWIDTH 12 0
BBX 11 11 0 -1
BITMAP
0FE0
E800
AFE0
A820
AFE0
A900
AFE0
A900
A900
EA80
1460
ENDCHAR
STARTCHAR uni5537
ENCODING 21815
SWIDTH 1000 0
DWIDTH 12 0
BBX 11 11 0 -1
BITMAP
0200
1FE0
E480
AF40
A000
AFC0
A840
AFC0
E840
0FC0
0840
ENDCHAR
STARTCHAR uni553C
ENCODING 21820
SWIDTH 1000 0
DWIDTH 12 0
BBX 11 11 0 -1
BITMAP
0100
F7E0
9240
9FE0
9100
9FE0
9240
F640
0180
0640
1820
ENDCHAR
STARTCHAR uni553E
ENCODING 21822
SWIDTH 1000 0
DWIDTH 12 0
BBX 11 11 0 -1
BITMAP
0FC0
E100
BFE0
A940
BFE0
A940
A940
BFE0
A100
E100
0FE0
ENDCHAR
STARTCHAR uni553F
ENCODING 21823
SWIDTH 1000 0
DWIDTH 12 0
BBX 11 11 0 -1
BITMAP
0400
E7E0
AAA0
A4A0
A920
A260
AC00
E520
1480
1420
23E0
ENDCHAR
STARTCHAR uni5541
ENCODING 21825
SWIDTH 1000 0
DWIDTH 12 0
BBX 11 11 0 -1
BITMAP
0FE0
E920
ABA0
A920
AFE0
A820
ABA0
EAA0
0AA0
13A0
2060
ENDCHAR
STARTCHAR uni5543
ENCODING 21827
SWIDTH 1000 0
DWIDTH 12 0
BBX 11 11 0 -1
BITMAP
0100
05C0
E500
BFE0
A000
AFC0
A840
AFC0
E840
0FC0
0840
ENDCHAR
STARTCHAR uni5544
ENCODING 21828
SWIDTH 1000 0
DWIDTH 12 0
BBX 11 11 0 -1
BITMAP
1FE0
E100
A300
ACA0
A1C0
B680
B880
A5C0
A6A0
F8A0
0300
ENDCHAR
STARTCHAR uni5546
ENCODING 21830
SWIDTH 1000 0
DWIDTH 12 0
BBX 10 11 1 -1
BITMAP
0800
FFC0
2100
1200
FFC0
A140
DEC0
9240
9240
9E40
80C0
ENDCHAR
STARTCHAR uni5549
ENCODING 21833
SWIDTH 1000 0
DWIDTH 12 0
BBX 11 11 0 -1
BITMAP
E480
A480
BFE0
A480
AEC0
ADA0
F5A0
1680
2480
0480
0480
ENDCHAR
STARTCHAR uni554A
ENCODING 21834
SWIDTH 1000 0
DWIDTH 12 0
BBX 11 11 0 -1
BITMAP
0E00
EBE0
AA20
AFA0
AAA0
AEA0
AAA0
EBA0
0C20
0820
08E0
ENDCHAR
STARTCHAR uni5550
ENCODING 21840
SWIDTH 1000 0
DWIDTH 12 0
BBX 11 11 0 -1
BITMAP
0100
EFE0
A440
A440
AAA0
B100
AFE0
E100
0100
0100
0100
ENDCHAR
STARTCHAR uni5555
ENCODING 21845
SWIDTH 1000 0
DWIDTH 12 0
BBX 11 11 0 -1
BITMAP
0800
0FE0
E820
B420
AFA0
B220
BFE0
A220
EAA0
0FA0
0060
ENDCHAR
STARTCHAR uni5556
ENCODING 21846
SWIDTH 1000 0
DWIDTH 12 0
BBX 11 11 0 -1
BITMAP
0920
E540
A100
A280
AC60
A100
A920
A940
A100
E280
1C60
ENDCHAR
STARTCHAR uni555C
ENCODING 21852
SWIDTH 1000 0
DWIDTH 12 0
BBX 11 11 0 -1
BITMAP
0EE0
E220
AAA0
A440
AAA0
A000
AEE0
A220
AAA0
E440
0AA0
ENDCHAR
STARTCHAR uni5561
ENCODING 21857
SWIDTH 1083 0
DWIDTH 13 0
BBX 12 11 0 -1
BITMAP
E280
AEF0
A280
A280
AEF0
A280
E280
1EF0
0280
0280
0280
ENDCHAR
STARTCHAR uni5564
ENCODING 21860
SWIDTH 1000 0
DWIDTH 12 0
BBX 11 11 0 -1
BITMAP
E400
AFC0
AA40
AFC0
AA40
AFC0
A500
E900
1FE0
0100
0100
ENDCHAR
STARTCHAR uni5565
ENCODING 21861
SWIDTH 1000 0
DWIDTH 12 0
BBX 11 11 0 -1
BITMAP
0100
F280
9440
9FE0
9100
9FE0
9100
FFE0
0820
0820
0FE0
ENDCHAR
STARTCHAR uni5566
ENCODING 21862
SWIDTH 1083 0
DWIDTH 13 0
BBX 12 11 0 -1
BITMAP
0900
E880
ABF0
BC00
AA20
AD20
B920
A940
E840
0840
1BF0
ENDCHAR
STARTCHAR uni5567
ENCODING 21863
SWIDTH 1000 0
DWIDTH 12 0
BBX 11 11 0 -1
BITMAP
0200
FFE0
A200
AFC0
A200
BFE0
A840
EA40
0A40
0500
18E0
ENDCHAR
STARTCHAR uni556A
ENCODING 21866
SWIDTH 1000 0
DWIDTH 12 0
BBX 11 11 0 -1
BITMAP
0480
E5E0
AF20
A520
A720
ADE0
A520
E520
0520
0520
0DE0
ENDCHAR
STARTCHAR uni556C
ENCODING 21868
SWIDTH 1083 0
DWIDTH 12 0
BBX 11 11 0 -1
BITMAP
0400
7FC0
2480
1500
FFE0
0000
7FC0
5140
5F40
4040
7FC0
ENDCHAR
STARTCHAR uni556D
ENCODING 21869
SWIDTH 1000 0
DWIDTH 12 0
BBX 11 11 0 -1
BITMAP
E440
BFE0
A840
AC40
B5E0
BE80
A5E0
E620
1CA0
0440
0420
ENDCHAR
STARTCHAR uni556E
ENCODING 21870
SWIDTH 1000 0
DWIDTH 12 0
BBX 11 11 0 -1
BITMAP
0100
E900
A9E0
A900
BFE0
A000
A920
E920
0AA0
0820
0FE0
ENDCHAR
STARTCHAR uni5575
ENCODING 21877
SWIDTH 1000 0
DWIDTH 12 0
BBX 11 11 0 -1
BITMAP
1080
EBE0
A2A0
B280
AA80
A3E0
AA20
EB40
1280
1540
1A20
ENDCHAR
STARTCHAR uni5576
ENCODING 21878
SWIDTH 1000 0
DWIDTH 12 0
BBX 11 11 0 -1
BITMAP
E100
BFE0
B020
AFC0
A100
A900
A9C0
E900
0D00
1300
60E0
ENDCHAR
STARTCHAR uni5577
ENCODING 21879
SWIDTH 1000 0
DWIDTH 12 0
BBX 11 11 0 -1
BITMAP
04E0
EEA0
AAA0
AEC0
AAA0
AEA0
A8A0
E8A0
0AC0
0D80
0080
ENDCHAR
STARTCHAR uni5578
ENCODING 21880
SWIDTH 1000 0
DWIDTH 12 0
BBX 11 11 0 -1
BITMAP
0200
0FC0
E240
BFE0
A240
AFC0
A200
AA40
EB40
0AC0
1240
ENDCHAR
STARTCHAR uni557B
ENCODING 21883
SWIDTH 1000 0
DWIDTH 12 0
BBX 11 11 0 -1
BITMAP
0400
FFE0
1100
FFE0
8420
BFA0
2480
0400
7FC0
4040
7FC0
ENDCHAR
STARTCHAR uni557C
ENCODING 21884
SWIDTH 1000 0
DWIDTH 12 0
BBX 11 11 0 -1
BITMAP
0100
EFE0
A280
AFE0
A920
A7C0
A540
A540
E540
05C0
0100
ENDCHAR
STARTCHAR uni557E
ENCODING 21886
SWIDTH 1000 0
DWIDTH 12 0
BBX 11 11 0 -1
BITMAP
0680
F880
AAA0
AAA0
BDA0
A8C0
AC80
B880
A940
E920
0A20
ENDCHAR
STARTCHAR uni5580
ENCODING 21888
SWIDTH 1000 0
DWIDTH 12 0
BBX 11 11 0 -1
BITMAP
0200
FFE0
B320
A480
AB00
A480
B860
AFC0
A840
E840
0FC0
ENDCHAR
STARTCHAR uni5581
ENCODING 21889
SWIDTH 1000 0
DWIDTH 12 0
BBX 11 11 0 -1
BITMAP
0FC0
EA40
AFC0
AA40
AFC0
A200
FFE0
1220
17A0
10A0
1060
ENDCHAR
STARTCHAR uni5582
ENCODING 21890
SWIDTH 1083 0
DWIDTH 12 0
BBX 11 11 0 -1
BITMAP
0FC0
E940
AFC0
A940
AFC0
A000
BFE0
E540
0480
0740
1C20
ENDCHAR
STARTCHAR uni5583
ENCODING 21891
SWIDTH 1000 0
DWIDTH 12 0
BBX 11 11 0 -1
BITMAP
0100
EFE0
A100
AFE0
AAA0
AAA0
AFE0
A920
AFE0
E920
0960
ENDCHAR
STARTCHAR uni5584
ENCODING 21892
SWIDTH 1000 0
DWIDTH 12 0
BBX 11 11 0 -1
BITMAP
1100
FFE0
0400
3F80
0400
7FC0
2480
FFE0
2080
2080
3F80
ENDCHAR
STARTCHAR uni5587
ENCODING 21895
SWIDTH 1000 0
DWIDTH 12 0
BBX 11 11 0 -1
BITMAP
0820
FEA0
A8A0
BEA0
AAA0
AAA0
BEA0
A8A0
BCA0
EA20
0860
ENDCHAR
STARTCHAR uni5588
ENCODING 21896
SWIDTH 1000 0
DWIDTH 12 0
BBX 11 11 0 -1
BITMAP
1140
FD80
B120
BCE0
A200
AFC0
A840
EFC0
0840
0840
0FC0
ENDCHAR
STARTCHAR uni5589
ENCODING 21897
SWIDTH 1000 0
DWIDTH 12 0
BBX 11 11 0 -1
BITMAP
0BC0
E840
A840
AFE0
BA00
ABE0
AC80
ABE0
A880
E940
0E20
ENDCHAR
STARTCHAR uni558A
ENCODING 21898
SWIDTH 1000 0
DWIDTH 12 0
BBX 11 11 0 -1
BITMAP
00A0
EFE0
A880
AF80
A8A0
AEA0
AAA0
AE40
A840
F1A0
1620
ENDCHAR
STARTCHAR uni558B
ENCODING 21899
SWIDTH 1000 0
DWIDTH 12 0
BBX 11 11 0 -1
BITMAP
0A40
FFE0
AA40
ABC0
A800
AFE0
A100
BFE0
A300
E540
1920
ENDCHAR
STARTCHAR uni558F
ENCODING 21903
SWIDTH 1000 0
DWIDTH 12 0
BBX 11 11 0 -1
BITMAP
E480
BFE0
A480
A200
BFE0
A400
EFC0
1440
6440
0440
07C0
ENDCHAR
STARTCHAR uni5591
ENCODING 21905
SWIDTH 1000 0
DWIDTH 12 0
BBX 11 11 0 -1
BITMAP
0200
FFE0
A500
BFE0
A000
AFC0
A840
EFC0
0840
0FC0
0840
ENDCHAR
STARTCHAR uni5594
ENCODING 21908
SWIDTH 1000 0
DWIDTH 12 0
BBX 11 11 0 -1
BITMAP
0FC0
E840
AFC0
A800
AFE0
AA40
AFC0
E900
17C0
1100
2FE0
ENDCHAR
STARTCHAR uni5598
ENCODING 21912
SWIDTH 1000 0
DWIDTH 12 0
BBX 11 11 0 -1
BITMAP
0920
E920
AFE0
A000
AFE0
A100
AFE0
AAA0
AAA0
EAA0
0860
ENDCHAR
STARTCHAR uni5599
ENCODING 21913
SWIDTH 1000 0
DWIDTH 12 0
BBX 11 11 0 -1
BITMAP
07E0
E440
AFC0
A080
AFE0
A280
ACA0
A1C0
A6A0
E8A0
0380
ENDCHAR
STARTCHAR uni559C
ENCODING 21916
SWIDTH 1000 0
DWIDTH 12 0
BBX 11 11 0 -1
BITMAP
0400
FFE0
0400
7FC0
2080
3F80
1100
FFE0
2080
2080
3F80
ENDCHAR
STARTCHAR uni559D
ENCODING 21917
SWIDTH 1000 0
DWIDTH 12 0
BBX 11 11 0 -1
BITMAP
0FC0
E840
AFC0
A840
AFC0
A400
AFE0
B920
AAA0
EF20
00C0
ENDCHAR
STARTCHAR uni559F
ENCODING 21919
SWIDTH 1000 0
DWIDTH 12 0
BBX 11 11 0 -1
BITMAP
0FE0
E920
AFE0
A920
AFE0
A440
A7C0
E440
07C0
0440
04C0
ENDCHAR
STARTCHAR uni55A7
ENCODING 21927
SWIDTH 1000 0
DWIDTH 12 0
BBX 11 11 0 -1
BITMAP
0100
FFE0
B020
AFC0
A000
AFC0
A840
EFC0
0840
0840
3FE0
ENDCHAR
STARTCHAR uni55B1
ENCODING 21937
SWIDTH 1000 0
DWIDTH 12 0
BBX 11 11 0 -1
BITMAP
0FE0
E800
ABE0
AAA0
ABE0
AAA0
ABE0
E880
13E0
1080
27E0
ENDCHAR
STARTCHAR uni55B3
ENCODING 21939
SWIDTH 1000 0
DWIDTH 12 0
BBX 11 11 0 -1
BITMAP
0100
EFE0
A380
A540
A920
B7C0
A440
A7C0
E440
0440
3FE0
ENDCHAR
STARTCHAR uni55B5
ENCODING 21941
SWIDTH 1000 0
DWIDTH 12 0
BBX 11 11 0 -1
BITMAP
E480
BFE0
A480
A000
AFC0
A940
AFC0
E940
0940
0940
0FC0
ENDCHAR
STARTCHAR uni55B7
ENCODING 21943
SWIDTH 1000 0
DWIDTH 12 0
BBX 11 12 0 -1
BITMAP
0100
EFE0
A440
AFE0
A440
AFE0
A820
A920
E920
0280
0440
1820
ENDCHAR
STARTCHAR uni55B9
ENCODING 21945
SWIDTH 1000 0
DWIDTH 12 0
BBX 11 11 0 -1
BITMAP
0200
EFE0
A480
A940
B7A0
A100
AFE0
E100
0FE0
0100
3FE0
ENDCHAR
STARTCHAR uni55BB
ENCODING 21947
SWIDTH 1000 0
DWIDTH 12 0
BBX 11 11 0 -1
BITMAP
0100
0280
E440
BBA0
A000
AEA0
AAA0
AEA0
EAA0
0EA0
0A60
ENDCHAR
STARTCHAR uni55BD
ENCODING 21949
SWIDTH 1000 0
DWIDTH 12 0
BBX 11 11 0 -1
BITMAP
0540
EFE0
A380
A540
A920
A200
AFE0
E440
0C80
0300
1CE0
ENDCHAR
STARTCHAR uni55BE
ENCODING 21950
SWIDTH 1000 0
DWIDTH 12 0
BBX 11 11 0 -1
BITMAP
2440
1280
FFE0
9220
3FC0
4200
FFE0
0000
3FC0
2040
3FC0
ENDCHAR
STARTCHAR uni55C4
ENCODING 21956
SWIDTH 1000 0
DWIDTH 12 0
BBX 11 11 0 -1
BITMAP
1FE0
E200
AFC0
A840
AFC0
A840
A840
EFC0
1C80
0300
3CE0
ENDCHAR
STARTCHAR uni55C5
ENCODING 21957
SWIDTH 1000 0
DWIDTH 12 0
BBX 11 11 0 -1
BITMAP
0200
EFE0
A820
AFE0
A820
AFE0
A140
BFE0
A100
E280
0C60
ENDCHAR
STARTCHAR uni55C9
ENCODING 21961
SWIDTH 1000 0
DWIDTH 12 0
BBX 11 11 0 -1
BITMAP
0100
EFE0
A100
AFE0
A240
A780
A240
EFE0
05A0
0940
1120
ENDCHAR
STARTCHAR uni55CC
ENCODING 21964
SWIDTH 1000 0
DWIDTH 12 0
BBX 11 11 0 -1
BITMAP
E440
A280
AFE0
A240
A420
B800
AFE0
EAA0
0AA0
0AA0
1FE0
ENDCHAR
STARTCHAR uni55CD
ENCODING 21965
SWIDTH 1000 0
DWIDTH 12 0
BBX 11 11 0 -1
BITMAP
1200
F4E0
A8A0
BEA0
A8E0
AAA0
AAA0
FEE0
08A0
1120
2260
ENDCHAR
STARTCHAR uni55D1
ENCODING 21969
SWIDTH 1000 0
DWIDTH 12 0
BBX 11 11 0 -1
BITMAP
0200
1FC0
E200
BFE0
A480
AFC0
A000
FFC0
1540
1540
7FE0
ENDCHAR
STARTCHAR uni55D2
ENCODING 21970
SWIDTH 1083 0
DWIDTH 12 0
BBX 11 11 0 -1
BITMAP
0480
1FE0
E480
A300
A480
AFC0
B020
AFC0
E840
0840
0FC0
ENDCHAR
STARTCHAR uni55D3
ENCODING 21971
SWIDTH 1000 0
DWIDTH 12 0
BBX 11 11 0 -1
BITMAP
07C0
E280
A100
AEE0
AAA0
A440
AAA0
BFE0
E580
0940
1120
ENDCHAR
STARTCHAR uni55D4
ENCODING 21972
SWIDTH 1000 0
DWIDTH 12 0
BBX 11 11 0 -1
BITMAP
0100
EFE0
A440
A7C0
A440
A7C0
A440
E440
0FE0
0280
0C60
ENDCHAR
STARTCHAR uni55D6
ENCODING 21974
SWIDTH 1000 0
DWIDTH 12 0
BBX 11 11 0 -1
BITMAP
0D60
E920
AD60
A920
AFE0
A000
AFE0
E440
0380
0440
1820
ENDCHAR
STARTCHAR uni55DC
ENCODING 21980
SWIDTH 1000 0
DWIDTH 12 0
BBX 11 11 0 -1
BITMAP
0120
EFE0
A140
BFE0
A640
AAA0
B7E0
A420
A7E0
E420
07E0
ENDCHAR
STARTCHAR uni55DD
ENCODING 21981
SWIDTH 1000 0
DWIDTH 12 0
BBX 11 11 0 -1
BITMAP
1FE0
0000
EFC0
A840
AFC0
A000
BFE0
B2A0
F7E0
1120
1160
ENDCHAR
STARTCHAR uni55DF
ENCODING 21983
SWIDTH 1000 0
DWIDTH 12 0
BBX 11 11 0 -1
BITMAP
0480
FFE0
9100
97E0
9100
9FE0
9200
97E0
9880
F080
0FE0
ENDCHAR
STARTCHAR uni55E1
ENCODING 21985
SWIDTH 1000 0
DWIDTH 12 0
BBX 11 11 0 -1
BITMAP
0280
E540
AAA0
A7C0
A000
AEE0
AAA0
E660
0AA0
1320
0660
ENDCHAR
STARTCHAR uni55E3
ENCODING 21987
SWIDTH 1000 0
DWIDTH 12 0
BBX 11 11 0 -1
BITMAP
FBE0
8820
F820
03A0
F820
ABA0
AAA0
FAA0
ABA0
A820
8860
ENDCHAR
STARTCHAR uni55E4
ENCODING 21988
SWIDTH 1000 0
DWIDTH 12 0
BBX 11 11 0 -1
BITMAP
0920
EFE0
A200
BFE0
A100
AFE0
A920
AFE0
A100
E120
0FE0
ENDCHAR
STARTCHAR uni55E5
ENCODING 21989
SWIDTH 1000 0
DWIDTH 12 0
BBX 11 11 0 -1
BITMAP
0200
EFC0
A840
AFC0
A840
AFC0
A400
FFE0
1240
2FA0
0200
ENDCHAR
STARTCHAR uni55E6
ENCODING 21990
SWIDTH 1000 0
DWIDTH 12 0
BBX 11 11 0 -1
BITMAP
0200
EFC0
A200
BFE0
B4A0
AF40
A100
AFE0
E520
0940
1320
ENDCHAR
STARTCHAR uni55E8
ENCODING 21992
SWIDTH 1000 0
DWIDTH 12 0
BBX 11 11 0 -1
BITMAP
1200
EBC0
A400
B7C0
AC40
A540
AFE0
ED40
17E0
1040
11C0
ENDCHAR
STARTCHAR uni55EA
ENCODING 21994
SWIDTH 1000 0
DWIDTH 12 0
BBX 11 11 0 -1
BITMAP
0200
1FE0
E200
AFC0
A400
BFE0
AA40
B220
EFC0
0A80
1240
ENDCHAR
STARTCHAR uni55EB
ENCODING 21995
SWIDTH 1000 0
DWIDTH 12 0
BBX 11 11 0 -1
BITMAP
1FC0
E880
AF80
A880
BFE0
A080
FFC0
1540
0880
1540
6220
ENDCHAR
STARTCHAR uni55EC
ENCODING 21996
SWIDTH 1000 0
DWIDTH 12 0
BBX 11 11 0 -1
BITMAP
0240
1FE0
E240
A400
A7E0
A820
BBA0
AAA0
EAA0
0BA0
0860
ENDCHAR
STARTCHAR uni55EF
ENCODING 21999
SWIDTH 1000 0
DWIDTH 12 0
BBX 11 11 0 -1
BITMAP
EFC0
AA40
AFC0
AA40
AD40
AFC0
E000
0A40
2920
2840
0FC0
ENDCHAR
STARTCHAR uni55F2
ENCODING 22002
SWIDTH 1000 0
DWIDTH 12 0
BBX 11 11 0 -1
BITMAP
E4C0
AB20
A4C0
BA20
A7C0
A880
F500
03E0
1D40
0080
0F00
ENDCHAR
STARTCHAR uni55F3
ENCODING 22003
SWIDTH 1000 0
DWIDTH 12 0
BBX 11 11 0 -1
BITMAP
EFE0
A540
BFE0
B220
AFC0
A200
EFE0
0420
0A40
3180
0E60
ENDCHAR
STARTCHAR uni55F5
ENCODING 22005
SWIDTH 1000 0
DWIDTH 12 0
BBX 11 11 0 -1
BITMAP
13E0
E940
A880
A3E0
BAA0
ABE0
AAA0
EBE0
0AA0
0C00
13E0
ENDCHAR
STARTCHAR uni55F7
ENCODING 22007
SWIDTH 1000 0
DWIDTH 12 0
BBX 11 11 0 -1
BITMAP
0480
FE80
A4E0
BEA0
A520
BEA0
A8A0
AE40
AA40
EAA0
16A0
ENDCHAR
STARTCHAR uni55FD
ENCODING 22013
SWIDTH 1000 0
DWIDTH 12 0
BBX 11 11 0 -1
BITMAP
0900
FF00
A9E0
BEA0
AAA0
BE80
A880
B880
ED40
0940
0A20
ENDCHAR
STARTCHAR uni55FE
ENCODING 22014
SWIDTH 1000 0
DWIDTH 12 0
BBX 11 11 0 -1
BITMAP
0880
E4E0
BF00
A9E0
AF40
AA40
ABE0
AA40
AA40
EAA0
1520
ENDCHAR
STARTCHAR uni5600
ENCODING 22016
SWIDTH 1083 0
DWIDTH 12 0
BBX 11 11 0 -1
BITMAP
0100
EFE0
A280
AFE0
A920
AFE0
A920
ABA0
EAA0
0BA0
0860
ENDCHAR
STARTCHAR uni5601
ENCODING 22017
SWIDTH 1000 0
DWIDTH 12 0
BBX 11 11 0 -1
BITMAP
00A0
EFE0
AA80
AB80
AAA0
AFA0
AA40
EE40
0B40
12A0
2720
ENDCHAR
STARTCHAR uni5608
ENCODING 22024
SWIDTH 1000 0
DWIDTH 12 0
BBX 11 11 0 -1
BITMAP
0280
0FE0
E280
AFE0
AAA0
AFE0
AAA0
AFE0
E440
0440
07C0
ENDCHAR
STARTCHAR uni5609
ENCODING 22025
SWIDTH 1000 0
DWIDTH 12 0
BBX 11 11 0 -1
BITMAP
0400
FFE0
0400
7FC0
2080
3F80
1100
FFE0
2A40
4A40
9BC0
ENDCHAR
STARTCHAR uni560C
ENCODING 22028
SWIDTH 1000 0
DWIDTH 12 0
BBX 11 11 0 -1
BITMAP
1FE0
E280
AFE0
AAA0
AFE0
A000
BFE0
E100
0540
0920
1320
ENDCHAR
STARTCHAR uni560E
ENCODING 22030
SWIDTH 1083 0
DWIDTH 13 0
BBX 12 11 0 -1
BITMAP
0FF0
F100
97E0
9420
97E0
9420
97E0
F230
0FC0
0150
0EF0
ENDCHAR
STARTCHAR uni560F
ENCODING 22031
SWIDTH 1000 0
DWIDTH 12 0
BBX 11 11 0 -1
BITMAP
4EE0
4A20
4E20
E8E0
4800
EEE0
A820
AEA0
A840
E8A0
0920
ENDCHAR
STARTCHAR uni5618
ENCODING 22040
SWIDTH 1000 0
DWIDTH 12 0
BBX 11 11 0 -1
BITMAP
03C0
E200
BFE0
A420
BFC0
A420
A7E0
B2A0
AAC0
E280
1FE0
ENDCHAR
STARTCHAR uni561B
ENCODING 22043
SWIDTH 1000 0
DWIDTH 12 0
BBX 11 11 0 -1
BITMAP
0100
EFE0
AA80
AA80
AFE0
AA80
AEC0
ABA0
EA80
0A80
1280
ENDCHAR
STARTCHAR uni561E
ENCODING 22046
SWIDTH 1000 0
DWIDTH 12 0
BBX 11 11 0 -1
BITMAP
0A80
1E80
EBE0
AEA0
A4A0
BFA0
B5A0
FFA0
04A0
1FA0
0560
ENDCHAR
STARTCHAR uni561F
ENCODING 22047
SWIDTH 1000 0
DWIDTH 12 0
BBX 11 11 0 -1
BITMAP
04E0
EEA0
A4A0
BFC0
A4C0
AEA0
BAA0
EEA0
0AE0
0A80
0E80
ENDCHAR
STARTCHAR uni5623
ENCODING 22051
SWIDTH 1000 0
DWIDTH 12 0
BBX 11 11 0 -1
BITMAP
0100
E920
AFE0
A000
AEE0
AAA0
AEE0
EAA0
0EE0
0AA0
1560
ENDCHAR
STARTCHAR uni5624
ENCODING 22052
SWIDTH 1083 0
DWIDTH 12 0
BBX 11 11 0 -1
BITMAP
0EE0
EAA0
AAA0
AAA0
A540
A920
A200
AFE0
E480
0300
1CC0
ENDCHAR
STARTCHAR uni5627
ENCODING 22055
SWIDTH 1083 0
DWIDTH 12 0
BBX 11 11 0 -1
BITMAP
0100
EFE0
BA20
A480
AD20
B640
ABC0
A100
E920
0920
0FE0
ENDCHAR
STARTCHAR uni562C
ENCODING 22060
SWIDTH 1000 0
DWIDTH 12 0
BBX 11 11 0 -1
BITMAP
0FC0
E840
AFC0
A840
BFE0
AA00
AFE0
EAA0
0A40
1F40
02A0
ENDCHAR
STARTCHAR uni562D
ENCODING 22061
SWIDTH 1083 0
DWIDTH 12 0
BBX 11 11 0 -1
BITMAP
0420
EF20
A440
AF80
A020
AE40
AA80
EE20
0A20
0F40
3880
ENDCHAR
STARTCHAR uni5631
ENCODING 22065
SWIDTH 1000 0
DWIDTH 12 0
BBX 11 12 0 -1
BITMAP
0FE0
E820
AFE0
A800
ABE0
AAA0
ABE0
A880
AFE0
F4A0
15E0
2420
ENDCHAR
STARTCHAR uni5632
ENCODING 22066
SWIDTH 1000 0
DWIDTH 12 0
BBX 11 11 0 -1
BITMAP
04E0
EEA0
A4A0
AEE0
AAA0
AEA0
AAE0
AEA0
A4A0
EEA0
0540
ENDCHAR
STARTCHAR uni5634
ENCODING 22068
SWIDTH 1000 0
DWIDTH 12 0
BBX 11 11 0 -1
BITMAP
0A80
EBE0
AA80
AAA0
BFE0
A880
BFE0
A920
AFE0
E820
3060
ENDCHAR
STARTCHAR uni5636
ENCODING 22070
SWIDTH 1000 0
DWIDTH 12 0
BBX 11 11 0 -1
BITMAP
0AE0
FF80
AA80
AEE0
AAA0
AEA0
AAA0
BFA0
A0A0
EAA0
1120
ENDCHAR
STARTCHAR uni5639
ENCODING 22073
SWIDTH 1083 0
DWIDTH 13 0
BBX 12 11 0 -1
BITMAP
0100
FFF0
AAA0
AFE0
B450
A7C0
A440
A7C0
E540
0920
1310
ENDCHAR
STARTCHAR uni563B
ENCODING 22075
SWIDTH 1083 0
DWIDTH 13 0
BBX 12 11 0 -1
BITMAP
0100
EFF0
A100
A7E0
A420
A7E0
A240
AFF0
E420
0420
07E0
ENDCHAR
STARTCHAR uni563F
ENCODING 22079
SWIDTH 1000 0
DWIDTH 12 0
BBX 11 11 0 -1
BITMAP
0FE0
E920
AD60
A920
AFE0
A100
AFE0
E100
0FE0
0000
0AA0
ENDCHAR
STARTCHAR uni564C
ENCODING 22092
SWIDTH 1000 0
DWIDTH 12 0
BBX 11 11 0 -1
BITMAP
0480
FFE0
9120
9FE0
9120
9FE0
9440
97C0
9440
F440
07C0
ENDCHAR
STARTCHAR uni564D
ENCODING 22093
SWIDTH 1083 0
DWIDTH 13 0
BBX 12 12 0 -1
BITMAP
0280
F240
97F0
9C80
97E0
9480
97E0
F480
97F0
0420
0A90
1290
ENDCHAR
STARTCHAR uni564E
ENCODING 22094
SWIDTH 1000 0
DWIDTH 12 0
BBX 11 11 0 -1
BITMAP
0200
FFE0
A200
BFE0
B020
AFC0
A840
AFC0
A480
E480
1FE0
ENDCHAR
STARTCHAR uni5654
ENCODING 22100
SWIDTH 1083 0
DWIDTH 12 0
BBX 11 11 0 -1
BITMAP
0E40
1280
ED60
A480
AFC0
B020
AFC0
A840
EFC0
0480
1FE0
ENDCHAR
STARTCHAR uni5657
ENCODING 22103
SWIDTH 1000 0
DWIDTH 12 0
BBX 11 11 0 -1
BITMAP
EAA0
A6C0
BFE0
A440
AFE0
A100
AFE0
E100
1FE0
0280
1C60
ENDCHAR
STARTCHAR uni5658
ENCODING 22104
SWIDTH 1000 0
DWIDTH 12 0
BBX 11 11 0 -1
BITMAP
EFE0
AD40
AA40
AFE0
AA20
AA80
AAC0
EFC0
1240
14A0
2920
ENDCHAR
STARTCHAR uni5659
ENCODING 22105
SWIDTH 1000 0
DWIDTH 12 0
BBX 11 11 0 -1
BITMAP
0700
EA80
BFE0
A500
AA40
AD40
EFC0
0200
1FE0
12A0
17A0
ENDCHAR
STARTCHAR uni565C
ENCODING 22108
SWIDTH 1000 0
DWIDTH 12 0
BBX 11 11 0 -1
BITMAP
0780
E900
BFC0
AA40
AFC0
AA40
BFE0
E840
0FC0
0840
0FC0
ENDCHAR
STARTCHAR uni5662
ENCODING 22114
SWIDTH 1000 0
DWIDTH 12 0
BBX 11 11 0 -1
BITMAP
E200
AFE0
ADA0
AFE0
A920
AB60
E100
1FE0
0280
0440
1820
ENDCHAR
STARTCHAR uni5664
ENCODING 22116
SWIDTH 1000 0
DWIDTH 12 0
BBX 11 11 0 -1
BITMAP
0480
FFE0
A580
AEC0
B4A0
AFC0
A000
BFE0
A100
E940
1320
ENDCHAR
STARTCHAR uni5668
ENCODING 22120
SWIDTH 1000 0
DWIDTH 12 0
BBX 11 11 0 -1
BITMAP
7BC0
4A40
4A40
7BC0
0400
FFE0
1100
FBE0
4A40
4A40
7BC0
ENDCHAR
STARTCHAR uni5669
ENCODING 22121
SWIDTH 1000 0
DWIDTH 12 0
BBX 11 11 0 -1
BITMAP
FFE0
0400
75C0
5540
FFE0
0400
75C0
5540
75C0
0400
FFE0
ENDCHAR
STARTCHAR uni566A
ENCODING 22122
SWIDTH 1000 0
DWIDTH 12 0
BBX 11 11 0 -1
BITMAP
07C0
E440
AFE0
AAA0
AAA0
AEE0
A100
AFE0
A300
E540
1920
ENDCHAR
STARTCHAR uni566B
ENCODING 22123
SWIDTH 1000 0
DWIDTH 12 0
BBX 11 11 0 -1
BITMAP
0200
EFE0
A480
AFE0
A820
AFE0
A820
AFE0
A540
F4A0
13A0
ENDCHAR
STARTCHAR uni566C
ENCODING 22124
SWIDTH 1000 0
DWIDTH 12 0
BBX 11 11 0 -1
BITMAP
0880
EEE0
B540
A220
BFE0
A540
A540
ABA0
A100
E100
1FE0
ENDCHAR
STARTCHAR uni5671
ENCODING 22129
SWIDTH 1000 0
DWIDTH 12 0
BBX 11 11 0 -1
BITMAP
03C0
0200
EFE0
AAA0
AF00
ABC0
A800
EFE0
0AA0
15C0
2AA0
ENDCHAR
STARTCHAR uni5676
ENCODING 22134
SWIDTH 1000 0
DWIDTH 12 0
BBX 11 11 0 -1
BITMAP
0480
EFE0
A480
AFC0
A840
AFC0
A400
EFE0
9AA0
0FA0
0840
ENDCHAR
STARTCHAR uni567B
ENCODING 22139
SWIDTH 1083 0
DWIDTH 12 0
BBX 11 11 0 -1
BITMAP
0200
1FE0
F4A0
AFC0
A480
BFE0
A880
B240
EFA0
0200
3FE0
ENDCHAR
STARTCHAR uni567C
ENCODING 22140
SWIDTH 1000 0
DWIDTH 12 0
BBX 11 11 0 -1
BITMAP
0080
EE40
ABE0
AAA0
AE40
A9E0
EE40
0BE0
1A40
1A40
2E40
ENDCHAR
STARTCHAR uni5685
ENCODING 22149
SWIDTH 1000 0
DWIDTH 12 0
BBX 11 11 0 -1
BITMAP
0FC0
E100
BFE0
B120
AD40
A000
AFE0
E100
1FE0
12A0
12A0
ENDCHAR
STARTCHAR uni5686
ENCODING 22150
SWIDTH 1000 0
DWIDTH 12 0
BBX 11 11 0 -1
BITMAP
0880
1FE0
E880
A200
BFE0
A500
BFE0
A020
AFA0
E8A0
2FA0
ENDCHAR
STARTCHAR uni568E
ENCODING 22158
SWIDTH 1000 0
DWIDTH 12 0
BBX 11 11 0 -1
BITMAP
0100
1FE0
E480
BFE0
B020
AFC0
A500
B9A0
A2C0
ECA0
0300
ENDCHAR
STARTCHAR uni568F
ENCODING 22159
SWIDTH 1000 0
DWIDTH 12 0
BBX 11 11 0 -1
BITMAP
0200
0FC0
E200
BFE0
AAA0
AA80
BFE0
A220
AB80
EA00
37E0
ENDCHAR
STARTCHAR uni5693
ENCODING 22163
SWIDTH 1083 0
DWIDTH 12 0
BBX 11 11 0 -1
BITMAP
0100
FFE0
B420
AF40
AAA0
B440
ABA0
E000
1FE0
0940
1720
ENDCHAR
STARTCHAR uni56A3
ENCODING 22179
SWIDTH 1000 0
DWIDTH 12 0
BBX 11 11 0 -1
BITMAP
7BC0
4A40
FFE0
0400
7FC0
4440
4A40
1180
FBE0
4A40
7BC0
ENDCHAR
STARTCHAR uni56AF
ENCODING 22191
SWIDTH 1083 0
DWIDTH 12 0
BBX 11 11 0 -1
BITMAP
1FE0
0200
FFE0
B220
AEC0
A500
AFE0
B900
EFE0
0900
0FE0
ENDCHAR
STARTCHAR uni56B7
ENCODING 22199
SWIDTH 1000 0
DWIDTH 12 0
BBX 11 11 0 -1
BITMAP
0100
FFE0
AEE0
AAA0
AEE0
A440
AFE0
E440
1FE0
0C80
3760
ENDCHAR
STARTCHAR uni56BC
ENCODING 22204
SWIDTH 1000 0
DWIDTH 12 0
BBX 11 11 0 -1
BITMAP
0FE0
E540
BFE0
A4A0
BFE0
AA20
AEE0
A920
AEA0
E820
0E60
ENDCHAR
STARTCHAR uni56CA
ENCODING 22218
SWIDTH 1000 0
DWIDTH 12 0
BBX 11 11 0 -1
BITMAP
0400
FFE0
2480
FFE0
AAA0
7FC0
1100
FFE0
3280
5100
98E0
ENDCHAR
STARTCHAR uni56D4
ENCODING 22228
SWIDTH 1083 0
DWIDTH 12 0
BBX 11 11 0 -1
BITMAP
0100
FFE0
A540
BFE0
BAA0
AEE0
A480
FFE0
0D40
3680
0C60
ENDCHAR
STARTCHAR uni56D7
ENCODING 22231
SWIDTH 1000 0
DWIDTH 12 0
BBX 10 11 1 -1
BITMAP
FFC0
8040
8040
8040
8040
8040
8040
8040
8040
8040
FFC0
ENDCHAR
STARTCHAR uni56DA
ENCODING 22234
SWIDTH 1000 0
DWIDTH 12 0
BBX 11 11 0 -1
BITMAP
FFE0
8420
8420
8420
8420
8A20
9120
A0A0
8020
8020
FFE0
ENDCHAR
STARTCHAR uni56DB
ENCODING 22235
SWIDTH 1000 0
DWIDTH 12 0
BBX 11 10 0 -1
BITMAP
FFE0
9220
9220
9220
A220
C1E0
8020
8020
8020
FFE0
ENDCHAR
STARTCHAR uni56DD
ENCODING 22237
SWIDTH 1000 0
DWIDTH 12 0
BBX 10 11 1 -1
BITMAP
FFC0
8040
BF40
8240
8440
FFC0
8440
8440
8440
8C40
FFC0
ENDCHAR
STARTCHAR uni56DE
ENCODING 22238
SWIDTH 1000 0
DWIDTH 12 0
BBX 11 11 0 -1
BITMAP
FFE0
8020
8020
9F20
9120
9120
9120
9F20
8020
8020
FFE0
ENDCHAR
STARTCHAR uni56DF
ENCODING 22239
SWIDTH 1000 0
DWIDTH 12 0
BBX 10 11 1 -1
BITMAP
1000
FFC0
8140
A240
9440
8840
9440
A240
8140
8040
FFC0
ENDCHAR
STARTCHAR uni56E0
ENCODING 22240
SWIDTH 1000 0
DWIDTH 12 0
BBX 11 11 0 -1
BITMAP
FFE0
8420
8420
BFA0
8420
8420
8A20
9120
A0A0
8020
FFE0
ENDCHAR
STARTCHAR uni56E1
ENCODING 22241
SWIDTH 1000 0
DWIDTH 12 0
BBX 10 11 1 -1
BITMAP
FFC0
8840
8840
FFC0
9240
9240
B240
8C40
9240
A140
FFC0
ENDCHAR
STARTCHAR uni56E2
ENCODING 22242
SWIDTH 1000 0
DWIDTH 12 0
BBX 10 11 1 -1
BITMAP
FFC0
8040
8440
FFC0
8440
8C40
9440
A440
C440
8C40
FFC0
ENDCHAR
STARTCHAR uni56E4
ENCODING 22244
SWIDTH 1000 0
DWIDTH 12 0
BBX 11 11 0 -1
BITMAP
FFE0
8020
8820
FFA0
A920
A920
BF20
88A0
8FA0
8020
FFE0
ENDCHAR
STARTCHAR uni56EB
ENCODING 22251
SWIDTH 1000 0
DWIDTH 12 0
BBX 10 11 1 -1
BITMAP
FFC0
8040
A040
BF40
D540
9540
A940
D140
A640
8040
FFC0
ENDCHAR
STARTCHAR uni56ED
ENCODING 22253
SWIDTH 1000 0
DWIDTH 12 0
BBX 11 11 0 -1
BITMAP
FFE0
8020
9F20
8020
BFA0
8A20
8A20
8AA0
93A0
A020
FFE0
ENDCHAR
STARTCHAR uni56F0
ENCODING 22256
SWIDTH 1000 0
DWIDTH 12 0
BBX 11 11 0 -1
BITMAP
FFE0
8420
8420
BFA0
8420
8E20
9520
A4A0
8420
8020
FFE0
ENDCHAR
STARTCHAR uni56F1
ENCODING 22257
SWIDTH 1000 0
DWIDTH 12 0
BBX 10 11 1 -1
BITMAP
1000
FFC0
8840
9F40
9240
AA40
8440
8A40
B040
8040
FFC0
ENDCHAR
STARTCHAR uni56F4
ENCODING 22260
SWIDTH 1000 0
DWIDTH 12 0
BBX 10 11 1 -1
BITMAP
FFC0
8840
BF40
8840
BE40
8840
FF40
8940
8B40
8840
FFC0
ENDCHAR
STARTCHAR uni56F5
ENCODING 22261
SWIDTH 1000 0
DWIDTH 12 0
BBX 10 11 1 -1
BITMAP
FFC0
8840
9440
A240
C1C0
A640
B840
A140
9F40
8040
FFC0
ENDCHAR
STARTCHAR uni56F9
ENCODING 22265
SWIDTH 1000 0
DWIDTH 12 0
BBX 11 11 0 -1
BITMAP
FFE0
8A20
9120
A0A0
DF60
8020
BFA0
8120
8A20
8420
FFE0
ENDCHAR
STARTCHAR uni56FA
ENCODING 22266
SWIDTH 1000 0
DWIDTH 12 0
BBX 11 11 0 -1
BITMAP
FFE0
8420
8420
BFA0
8420
9F20
9120
9120
9F20
8020
FFE0
ENDCHAR
STARTCHAR uni56FD
ENCODING 22269
SWIDTH 1000 0
DWIDTH 12 0
BBX 11 11 0 -1
BITMAP
FFE0
8020
BFA0
8420
8420
9F20
84A0
8420
BFA0
8020
FFE0
ENDCHAR
STARTCHAR uni56FE
ENCODING 22270
SWIDTH 1000 0
DWIDTH 12 0
BBX 10 11 1 -1
BITMAP
FFC0
9040
BF40
D240
8C40
9240
E9C0
8640
9040
8E40
FFC0
ENDCHAR
STARTCHAR uni56FF
ENCODING 22271
SWIDTH 1000 0
DWIDTH 12 0
BBX 11 11 0 -1
BITMAP
FFE0
8820
BFA0
9120
BF20
D120
9F20
9120
9320
8020
FFE0
ENDCHAR
STARTCHAR uni5703
ENCODING 22275
SWIDTH 1000 0
DWIDTH 12 0
BBX 11 11 0 -1
BITMAP
FFE0
8520
BFA0
8420
BFA0
A4A0
BFA0
A4A0
BFA0
A4A0
FFE0
ENDCHAR
STARTCHAR uni5704
ENCODING 22276
SWIDTH 1000 0
DWIDTH 12 0
BBX 11 11 0 -1
BITMAP
FFE0
8020
BFA0
8820
BF20
9120
FFE0
9120
9F20
8020
FFE0
ENDCHAR
STARTCHAR uni5706
ENCODING 22278
SWIDTH 1000 0
DWIDTH 12 0
BBX 10 11 1 -1
BITMAP
FFC0
8040
9E40
9240
BF40
A140
A540
A540
8A40
B140
FFC0
ENDCHAR
STARTCHAR uni5708
ENCODING 22280
SWIDTH 1000 0
DWIDTH 12 0
BBX 11 11 0 -1
BITMAP
FFE0
A4A0
9520
BFA0
8A20
FFE0
9120
AEA0
8A20
8920
FFE0
ENDCHAR
STARTCHAR uni5709
ENCODING 22281
SWIDTH 1000 0
DWIDTH 12 0
BBX 11 11 0 -1
BITMAP
FFE0
8420
BFA0
8420
FFE0
9120
BFA0
8420
BFA0
8420
FFE0
ENDCHAR
STARTCHAR uni570A
ENCODING 22282
SWIDTH 1000 0
DWIDTH 12 0
BBX 10 11 1 -1
BITMAP
FFC0
8840
BF40
8840
FFC0
A140
BF40
A140
BF40
A140
FFC0
ENDCHAR
STARTCHAR uni571C
ENCODING 22300
SWIDTH 1000 0
DWIDTH 12 0
BBX 11 11 0 -1
BITMAP
FFE0
AAA0
BFA0
8020
FFE0
9120
9F20
8A20
B2A0
9920
FFE0
ENDCHAR
STARTCHAR uni571F
ENCODING 22303
SWIDTH 1000 0
DWIDTH 12 0
BBX 11 11 0 -1
BITMAP
0400
0400
0400
0400
7FC0
0400
0400
0400
0400
0400
FFE0
ENDCHAR
STARTCHAR uni5723
ENCODING 22307
SWIDTH 1000 0
DWIDTH 12 0
BBX 11 11 0 -1
BITMAP
3F80
1100
0A00
0400
1B00
E4E0
0400
7FC0
0400
0400
FFE0
ENDCHAR
STARTCHAR uni5728
ENCODING 22312
SWIDTH 1000 0
DWIDTH 12 0
BBX 11 11 0 -1
BITMAP
0800
FFE0
1100
1100
2100
2FE0
6100
A100
2100
2100
2FE0
ENDCHAR
STARTCHAR uni5729
ENCODING 22313
SWIDTH 1000 0
DWIDTH 12 0
BBX 11 11 0 -1
BITMAP
27E0
2080
F080
2080
2FE0
2080
2080
3880
E080
0080
0380
ENDCHAR
STARTCHAR uni572A
ENCODING 22314
SWIDTH 1000 0
DWIDTH 12 0
BBX 11 11 0 -1
BITMAP
2200
27E0
F400
2800
2780
2100
2200
3400
E820
0820
07E0
ENDCHAR
STARTCHAR uni572C
ENCODING 22316
SWIDTH 1000 0
DWIDTH 12 0
BBX 11 11 0 -1
BITMAP
27E0
2000
F800
27E0
2100
2100
23E0
3820
E020
0020
01E0
ENDCHAR
STARTCHAR uni572D
ENCODING 22317
SWIDTH 1000 0
DWIDTH 12 0
BBX 11 11 0 -1
BITMAP
0400
7FC0
0400
0400
FFE0
0400
0400
7FC0
0400
0400
FFE0
ENDCHAR
STARTCHAR uni572E
ENCODING 22318
SWIDTH 1000 0
DWIDTH 12 0
BBX 11 11 0 -1
BITMAP
2FC0
2040
2040
F040
27C0
2400
2400
3400
E420
0420
03E0
ENDCHAR
STARTCHAR uni572F
ENCODING 22319
SWIDTH 1000 0
DWIDTH 12 0
BBX 11 11 0 -1
BITMAP
2FC0
2840
2840
F840
2FC0
2800
2800
3800
E820
0820
07E0
ENDCHAR
STARTCHAR uni5730
ENCODING 22320
SWIDTH 1000 0
DWIDTH 12 0
BBX 11 11 0 -1
BITMAP
2100
2560
25A0
F720
2D20
2520
2560
3D00
E400
0420
07E0
ENDCHAR
STARTCHAR uni5733
ENCODING 22323
SWIDTH 1000 0
DWIDTH 12 0
BBX 11 11 0 -1
BITMAP
2920
2920
F920
2920
2920
2920
3920
E920
0920
1020
6020
ENDCHAR
STARTCHAR uni5739
ENCODING 22329
SWIDTH 1000 0
DWIDTH 12 0
BBX 11 11 0 -1
BITMAP
2080
27E0
F400
2400
2400
2400
2400
3400
E400
0800
3000
ENDCHAR
STARTCHAR uni573A
ENCODING 22330
SWIDTH 1000 0
DWIDTH 12 0
BBX 11 11 0 -1
BITMAP
27C0
2080
F100
2200
27E0
2220
32A0
E4A0
1920
0220
0CE0
ENDCHAR
STARTCHAR uni573B
ENCODING 22331
SWIDTH 1000 0
DWIDTH 12 0
BBX 11 11 0 -1
BITMAP
21C0
2E00
2800
F800
2FE0
2900
2900
2900
3900
E900
1100
ENDCHAR
STARTCHAR uni573E
ENCODING 22334
SWIDTH 1000 0
DWIDTH 12 0
BBX 11 11 0 -1
BITMAP
5F80
4480
E500
47C0
4840
4880
4A80
6900
D280
2440
5820
ENDCHAR
STARTCHAR uni5740
ENCODING 22336
SWIDTH 1000 0
DWIDTH 12 0
BBX 11 11 0 -1
BITMAP
4100
4100
F100
4100
49E0
4900
4900
7900
C900
0900
1FE0
ENDCHAR
STARTCHAR uni5742
ENCODING 22338
SWIDTH 1000 0
DWIDTH 12 0
BBX 11 11 0 -1
BITMAP
27E0
2400
2400
F7C0
2440
2440
2540
2540
3480
E940
1220
ENDCHAR
STARTCHAR uni5747
ENCODING 22343
SWIDTH 1000 0
DWIDTH 12 0
BBX 11 11 0 -1
BITMAP
2400
27E0
F820
2020
27A0
2020
2020
37A0
E020
0040
0180
ENDCHAR
STARTCHAR uni574A
ENCODING 22346
SWIDTH 1000 0
DWIDTH 12 0
BBX 11 11 0 -1
BITMAP
2100
27E0
FA00
2200
23E0
2220
2220
3A20
E420
0420
08C0
ENDCHAR
STARTCHAR uni574C
ENCODING 22348
SWIDTH 1000 0
DWIDTH 12 0
BBX 11 11 0 -1
BITMAP
0B00
1080
2040
DFA0
0880
1080
6300
0400
7FE0
0400
FFE0
ENDCHAR
STARTCHAR uni574D
ENCODING 22349
SWIDTH 1000 0
DWIDTH 12 0
BBX 11 11 0 -1
BITMAP
4FC0
4840
EA40
4A40
5FE0
4840
4840
6840
D040
1040
21C0
ENDCHAR
STARTCHAR uni574E
ENCODING 22350
SWIDTH 1000 0
DWIDTH 12 0
BBX 11 11 0 -1
BITMAP
2400
27E0
FD20
2520
2940
2100
2100
3A80
E280
0440
0820
ENDCHAR
STARTCHAR uni574F
ENCODING 22351
SWIDTH 1000 0
DWIDTH 12 0
BBX 11 11 0 -1
BITMAP
27E0
2080
F880
2100
2180
2340
2520
3920
E100
0100
0100
ENDCHAR
STARTCHAR uni5750
ENCODING 22352
SWIDTH 1000 0
DWIDTH 12 0
BBX 11 11 0 -1
BITMAP
0400
2480
2480
34C0
4D20
8600
0400
7FC0
0400
0400
FFE0
ENDCHAR
STARTCHAR uni5751
ENCODING 22353
SWIDTH 1000 0
DWIDTH 12 0
BBX 11 11 0 -1
BITMAP
2100
27C0
F800
2380
2280
2280
2280
3A80
E2A0
04A0
08E0
ENDCHAR
STARTCHAR uni5757
ENCODING 22359
SWIDTH 1000 0
DWIDTH 12 0
BBX 11 11 0 -1
BITMAP
4200
4FC0
F240
4240
4240
5FE0
4200
7500
C500
0880
3060
ENDCHAR
STARTCHAR uni575A
ENCODING 22362
SWIDTH 1000 0
DWIDTH 12 0
BBX 11 11 0 -1
BITMAP
17E0
5040
5280
5100
5280
1460
0400
7FC0
0400
0400
FFE0
ENDCHAR
STARTCHAR uni575B
ENCODING 22363
SWIDTH 1000 0
DWIDTH 12 0
BBX 11 11 0 -1
BITMAP
4FC0
4000
F000
4000
5FE0
4200
4200
7480
C840
1040
3FA0
ENDCHAR
STARTCHAR uni575C
ENCODING 22364
SWIDTH 1000 0
DWIDTH 12 0
BBX 11 11 0 -1
BITMAP
2FE0
2800
2900
F900
2FE0
2920
2920
3920
E920
0A20
14E0
ENDCHAR
STARTCHAR uni575D
ENCODING 22365
SWIDTH 1000 0
DWIDTH 12 0
BBX 11 11 0 -1
BITMAP
27C0
2440
2440
F540
2540
2540
2540
3100
E280
0440
0820
ENDCHAR
STARTCHAR uni575E
ENCODING 22366
SWIDTH 1000 0
DWIDTH 12 0
BBX 11 11 0 -1
BITMAP
4200
4FC0
4840
E840
4980
4800
4FE0
6020
DFA0
0020
00E0
ENDCHAR
STARTCHAR uni575F
ENCODING 22367
SWIDTH 1000 0
DWIDTH 12 0
BBX 11 11 0 -1
BITMAP
2100
2FE0
2440
F440
2280
2280
2900
3100
C280
0C40
3020
ENDCHAR
STARTCHAR uni5760
ENCODING 22368
SWIDTH 1000 0
DWIDTH 12 0
BBX 11 11 0 -1
BITMAP
7900
4900
5100
4A80
6A40
5420
4400
3FC0
0400
0400
FFE0
ENDCHAR
STARTCHAR uni5761
ENCODING 22369
SWIDTH 1000 0
DWIDTH 12 0
BBX 11 11 0 -1
BITMAP
4100
4FE0
4920
E900
4FC0
4840
4C40
4A80
6900
D280
1460
ENDCHAR
STARTCHAR uni5764
ENCODING 22372
SWIDTH 1000 0
DWIDTH 12 0
BBX 11 11 0 -1
BITMAP
2100
2FE0
F920
2920
2FE0
2920
2920
3FE0
E100
0100
0100
ENDCHAR
STARTCHAR uni5766
ENCODING 22374
SWIDTH 1000 0
DWIDTH 12 0
BBX 11 11 0 -1
BITMAP
4FC0
4840
4840
EFC0
4840
4840
4840
4FC0
6000
C000
1FE0
ENDCHAR
STARTCHAR uni5768
ENCODING 22376
SWIDTH 1000 0
DWIDTH 12 0
BBX 11 11 0 -1
BITMAP
2200
2100
2FE0
F820
2400
2480
2700
3400
E420
0420
03E0
ENDCHAR
STARTCHAR uni5769
ENCODING 22377
SWIDTH 1000 0
DWIDTH 12 0
BBX 11 11 0 -1
BITMAP
2440
2440
FFE0
2440
2440
2440
27C0
3C40
E440
0440
07C0
ENDCHAR
STARTCHAR uni576A
ENCODING 22378
SWIDTH 1000 0
DWIDTH 12 0
BBX 11 11 0 -1
BITMAP
2FE0
2100
F520
2540
2340
2100
2FE0
3100
E100
0100
0100
ENDCHAR
STARTCHAR uni576B
ENCODING 22379
SWIDTH 1000 0
DWIDTH 12 0
BBX 11 11 0 -1
BITMAP
0100
2100
21E0
F900
2100
2100
27E0
2420
3C20
E420
07E0
ENDCHAR
STARTCHAR uni576D
ENCODING 22381
SWIDTH 1000 0
DWIDTH 12 0
BBX 11 11 0 -1
BITMAP
2FC0
2840
F840
2FC0
2800
2A40
3A80
EB00
0A20
1220
21E0
ENDCHAR
STARTCHAR uni576F
ENCODING 22383
SWIDTH 1000 0
DWIDTH 12 0
BBX 11 11 0 -1
BITMAP
5FE0
4100
4200
F200
4680
4A40
5220
7200
C200
0200
3FE0
ENDCHAR
STARTCHAR uni5773
ENCODING 22387
SWIDTH 1000 0
DWIDTH 12 0
BBX 11 11 0 -1
BITMAP
4500
4900
EBE0
5D20
4520
4920
6920
DD20
0120
0220
04E0
ENDCHAR
STARTCHAR uni5776
ENCODING 22390
SWIDTH 1000 0
DWIDTH 12 0
BBX 11 11 0 -1
BITMAP
27C0
2440
F540
2FE0
2440
2540
2540
3FE0
E040
0040
01C0
ENDCHAR
STARTCHAR uni5777
ENCODING 22391
SWIDTH 1000 0
DWIDTH 12 0
BBX 11 11 0 -1
BITMAP
2FE0
2040
F740
2540
2540
2540
2740
3040
E040
0040
01C0
ENDCHAR
STARTCHAR uni577B
ENCODING 22395
SWIDTH 1000 0
DWIDTH 12 0
BBX 11 11 0 -1
BITMAP
21C0
2F00
2900
F900
2900
2FE0
2900
3900
ED20
00A0
0E40
ENDCHAR
STARTCHAR uni577C
ENCODING 22396
SWIDTH 1000 0
DWIDTH 12 0
BBX 11 11 0 -1
BITMAP
21C0
2E00
2800
F800
2FE0
2900
2B00
29C0
3920
E900
1100
ENDCHAR
STARTCHAR uni5782
ENCODING 22402
SWIDTH 1000 0
DWIDTH 12 0
BBX 11 11 0 -1
BITMAP
7FC0
0400
7FC0
2480
FFE0
2480
2480
7FC0
0400
0400
FFE0
ENDCHAR
STARTCHAR uni5783
ENCODING 22403
SWIDTH 1000 0
DWIDTH 12 0
BBX 11 11 0 -1
BITMAP
2200
2100
2FE0
F000
2440
2240
2240
3280
C280
0080
1FE0
ENDCHAR
STARTCHAR uni5784
ENCODING 22404
SWIDTH 1000 0
DWIDTH 12 0
BBX 11 11 0 -1
BITMAP
0880
0840
FFE0
0A80
0B20
1620
E3E0
0400
7FC0
0400
FFE0
ENDCHAR
STARTCHAR uni5785
ENCODING 22405
SWIDTH 1000 0
DWIDTH 12 0
BBX 11 11 0 -1
BITMAP
2480
2440
FFE0
2500
2540
2540
2580
3500
EB20
1520
68E0
ENDCHAR
STARTCHAR uni5786
ENCODING 22406
SWIDTH 1000 0
DWIDTH 12 0
BBX 11 11 0 -1
BITMAP
2100
21E0
2100
FFE0
2420
2420
27E0
3C00
E400
0400
0800
ENDCHAR
STARTCHAR uni578B
ENCODING 22411
SWIDTH 1000 0
DWIDTH 12 0
BBX 9 11 1 -1
BITMAP
FA80
5280
5280
FA80
5080
9180
0800
7F00
0800
0800
FF80
ENDCHAR
STARTCHAR uni578C
ENCODING 22412
SWIDTH 1000 0
DWIDTH 12 0
BBX 11 11 0 -1
BITMAP
5FE0
5020
F7A0
5020
57A0
54A0
54A0
74A0
D7A0
1020
10E0
ENDCHAR
STARTCHAR uni5792
ENCODING 22418
SWIDTH 1000 0
DWIDTH 12 0
BBX 11 11 0 -1
BITMAP
0400
0900
7FC0
1080
2940
7BE0
0400
7FC0
0400
0400
FFE0
ENDCHAR
STARTCHAR uni5793
ENCODING 22419
SWIDTH 1000 0
DWIDTH 12 0
BBX 11 11 0 -1
BITMAP
2100
2FE0
2100
F220
2440
2280
2120
2640
3080
E340
0C20
ENDCHAR
STARTCHAR uni579B
ENCODING 22427
SWIDTH 1000 0
DWIDTH 12 0
BBX 11 11 0 -1
BITMAP
23C0
2240
2240
F240
2420
2100
2FE0
3380
E540
0920
0100
ENDCHAR
STARTCHAR uni57A0
ENCODING 22432
SWIDTH 1000 0
DWIDTH 12 0
BBX 11 10 0 -1
BITMAP
27C0
2440
F7C0
2440
27C0
2520
2540
3480
E440
0720
ENDCHAR
STARTCHAR uni57A1
ENCODING 22433
SWIDTH 1000 0
DWIDTH 12 0
BBX 11 11 0 -1
BITMAP
2480
47E0
DC00
4580
4220
5D20
40E0
0400
7FC0
0400
FFE0
ENDCHAR
STARTCHAR uni57A2
ENCODING 22434
SWIDTH 1000 0
DWIDTH 12 0
BBX 11 11 0 -1
BITMAP
27E0
2400
2400
F7E0
2400
2400
27E0
3620
CA20
0A20
13E0
ENDCHAR
STARTCHAR uni57A3
ENCODING 22435
SWIDTH 1000 0
DWIDTH 12 0
BBX 11 11 0 -1
BITMAP
5FE0
4000
4FC0
E840
4840
4FC0
4840
4840
6FC0
C000
1FE0
ENDCHAR
STARTCHAR uni57A4
ENCODING 22436
SWIDTH 1000 0
DWIDTH 12 0
BBX 11 11 0 -1
BITMAP
2FE0
2100
2200
F440
27E0
2080
2080
27E0
3080
E080
0FE0
ENDCHAR
STARTCHAR uni57A6
ENCODING 22438
SWIDTH 1000 0
DWIDTH 12 0
BBX 11 11 0 -1
BITMAP
7F80
4080
7F80
4080
7F80
5480
6300
08C0
7F80
0800
FFE0
ENDCHAR
STARTCHAR uni57A7
ENCODING 22439
SWIDTH 1000 0
DWIDTH 12 0
BBX 11 11 0 -1
BITMAP
2400
2FE0
F820
2BA0
2AA0
2AA0
2AA0
3BA0
E820
0820
08E0
ENDCHAR
STARTCHAR uni57A9
ENCODING 22441
SWIDTH 1000 0
DWIDTH 12 0
BBX 11 11 0 -1
BITMAP
FFE0
0A00
4A40
2A80
0A00
FFE0
0400
7FC0
0400
0400
FFE0
ENDCHAR
STARTCHAR uni57AB
ENCODING 22443
SWIDTH 1083 0
DWIDTH 12 0
BBX 11 11 0 -1
BITMAP
2100
FBC0
2140
3540
E240
2540
6820
0400
7FC0
0400
FFE0
ENDCHAR
STARTCHAR uni57AD
ENCODING 22445
SWIDTH 1000 0
DWIDTH 12 0
BBX 11 11 0 -1
BITMAP
5FE0
4500
4500
E540
5540
5540
4D80
6500
C500
0500
7FE0
ENDCHAR
STARTCHAR uni57AE
ENCODING 22446
SWIDTH 1000 0
DWIDTH 12 0
BBX 11 11 0 -1
BITMAP
4200
5FE0
E900
5680
6060
5FC0
6400
CF80
0080
0080
0300
ENDCHAR
STARTCHAR uni57B2
ENCODING 22450
SWIDTH 1000 0
DWIDTH 12 0
BBX 11 11 0 -1
BITMAP
2A40
2A40
2FC0
F000
2FC0
2040
2FC0
3800
E800
0820
07E0
ENDCHAR
STARTCHAR uni57B4
ENCODING 22452
SWIDTH 1000 0
DWIDTH 12 0
BBX 11 11 0 -1
BITMAP
2100
2FE0
F000
2480
2AA0
2AA0
2920
3AA0
EC20
0820
0FE0
ENDCHAR
STARTCHAR uni57B8
ENCODING 22456
SWIDTH 1000 0
DWIDTH 12 0
BBX 11 11 0 -1
BITMAP
4100
5FE0
F020
4FC0
4000
5FE0
6500
C500
0520
0920
30E0
ENDCHAR
STARTCHAR uni57C2
ENCODING 22466
SWIDTH 1000 0
DWIDTH 12 0
BBX 11 11 0 -1
BITMAP
5FE0
4200
EFC0
4A40
4FC0
4A40
4FC0
6200
CA00
0400
7BE0
ENDCHAR
STARTCHAR uni57C3
ENCODING 22467
SWIDTH 1000 0
DWIDTH 12 0
BBX 11 11 0 -1
BITMAP
2280
2440
2FE0
F400
27E0
2480
2880
2FE0
3080
C340
0C20
ENDCHAR
STARTCHAR uni57CB
ENCODING 22475
SWIDTH 1000 0
DWIDTH 12 0
BBX 11 11 0 -1
BITMAP
4FE0
4920
4FE0
E920
4920
4FE0
4100
4FE0
6100
C100
0FE0
ENDCHAR
STARTCHAR uni57CE
ENCODING 22478
SWIDTH 1000 0
DWIDTH 12 0
BBX 11 11 0 -1
BITMAP
4080
40A0
4FE0
E880
4EA0
4AA0
4AA0
4A40
6A40
D0A0
1320
ENDCHAR
STARTCHAR uni57CF
ENCODING 22479
SWIDTH 1000 0
DWIDTH 12 0
BBX 11 11 0 -1
BITMAP
5BE0
4880
EA80
52E0
4A80
4A80
6A80
D3E0
1800
2600
41E0
ENDCHAR
STARTCHAR uni57D2
ENCODING 22482
SWIDTH 1000 0
DWIDTH 12 0
BBX 11 11 0 -1
BITMAP
40E0
4F00
5520
F2C0
4780
4880
4FE0
7480
C480
0080
0180
ENDCHAR
STARTCHAR uni57D4
ENCODING 22484
SWIDTH 1000 0
DWIDTH 12 0
BBX 11 11 0 -1
BITMAP
4140
4FE0
4100
EFE0
4920
4FE0
4920
4FE0
6920
C920
0960
ENDCHAR
STARTCHAR uni57D5
ENCODING 22485
SWIDTH 1083 0
DWIDTH 12 0
BBX 11 11 0 -1
BITMAP
27C0
2440
2440
F7C0
2000
2FE0
2100
37C0
E100
0100
0FE0
ENDCHAR
STARTCHAR uni57D8
ENCODING 22488
SWIDTH 1000 0
DWIDTH 12 0
BBX 11 11 0 -1
BITMAP
5C40
5440
F7E0
5440
5D40
5540
7540
5440
DC40
0040
01C0
ENDCHAR
STARTCHAR uni57D9
ENCODING 22489
SWIDTH 1000 0
DWIDTH 12 0
BBX 11 11 0 -1
BITMAP
4FC0
4840
EFC0
4000
4FC0
4840
6A40
CA40
0B40
0480
3860
ENDCHAR
STARTCHAR uni57DA
ENCODING 22490
SWIDTH 1083 0
DWIDTH 12 0
BBX 11 11 0 -1
BITMAP
47C0
4440
4440
F7C0
4100
4FE0
4920
7AA0
CC60
0820
0860
ENDCHAR
STARTCHAR uni57DD
ENCODING 22493
SWIDTH 1000 0
DWIDTH 12 0
BBX 11 11 0 -1
BITMAP
2200
2500
2A80
F060
2F80
2080
2100
3240
E920
1840
2FC0
ENDCHAR
STARTCHAR uni57DF
ENCODING 22495
SWIDTH 1000 0
DWIDTH 12 0
BBX 11 11 0 -1
BITMAP
40A0
5FE0
4080
EE80
4AA0
4AA0
4E40
4040
6EA0
C120
0E20
ENDCHAR
STARTCHAR uni57E0
ENCODING 22496
SWIDTH 1000 0
DWIDTH 12 0
BBX 11 11 0 -1
BITMAP
2100
27E0
2420
F7E0
2400
2FE0
2420
37E0
E080
0FE0
0080
ENDCHAR
STARTCHAR uni57E4
ENCODING 22500
SWIDTH 1000 0
DWIDTH 12 0
BBX 11 11 0 -1
BITMAP
2200
2FE0
2920
FFE0
2920
2FE0
2500
3900
EFE0
0100
0100
ENDCHAR
STARTCHAR uni57ED
ENCODING 22509
SWIDTH 1000 0
DWIDTH 12 0
BBX 11 11 0 -1
BITMAP
0200
4FC0
4240
5FE0
E240
4FC0
5200
4B40
6680
CA40
1620
ENDCHAR
STARTCHAR uni57EF
ENCODING 22511
SWIDTH 1000 0
DWIDTH 12 0
BBX 11 11 0 -1
BITMAP
4200
5FE0
E500
4A80
5FE0
4A80
6F80
CA80
0FA0
0220
01E0
ENDCHAR
STARTCHAR uni57F4
ENCODING 22516
SWIDTH 1000 0
DWIDTH 12 0
BBX 11 11 0 -1
BITMAP
4200
5FE0
4200
EFC0
4840
4FC0
4840
4FC0
E840
0840
1FE0
ENDCHAR
STARTCHAR uni57F8
ENCODING 22520
SWIDTH 1000 0
DWIDTH 12 0
BBX 11 11 0 -1
BITMAP
2FC0
2840
2FC0
F840
2FC0
2400
2FE0
34A0
E920
1220
04E0
ENDCHAR
STARTCHAR uni57F9
ENCODING 22521
SWIDTH 1000 0
DWIDTH 12 0
BBX 11 11 0 -1
BITMAP
2100
2FE0
2240
F240
2FE0
2000
27E0
2420
3420
C420
07E0
ENDCHAR
STARTCHAR uni57FA
ENCODING 22522
SWIDTH 1000 0
DWIDTH 12 0
BBX 11 11 0 -1
BITMAP
1100
7FC0
1100
1F00
1100
FFE0
1100
2480
DF60
0400
7FC0
ENDCHAR
STARTCHAR uni57FD
ENCODING 22525
SWIDTH 1000 0
DWIDTH 12 0
BBX 11 11 0 -1
BITMAP
4FC0
4040
EFC0
4040
5FE0
5220
6FC0
CA40
0A40
0AC0
0200
ENDCHAR
STARTCHAR uni5800
ENCODING 22528
SWIDTH 1000 0
DWIDTH 12 0
BBX 11 11 0 -1
BITMAP
4FE0
4820
4FE0
E880
4AA0
4AA0
4BE0
4880
6CA0
D4A0
17E0
ENDCHAR
STARTCHAR uni5802
ENCODING 22530
SWIDTH 1000 0
DWIDTH 12 0
BBX 11 11 0 -1
BITMAP
2480
1500
FFE0
8020
3F80
2080
3F80
0400
3F80
0400
FFE0
ENDCHAR
STARTCHAR uni5806
ENCODING 22534
SWIDTH 1000 0
DWIDTH 12 0
BBX 11 11 0 -1
BITMAP
2280
2240
27E0
F480
2FE0
2480
27E0
2480
37E0
C480
07E0
ENDCHAR
STARTCHAR uni5807
ENCODING 22535
SWIDTH 1000 0
DWIDTH 12 0
BBX 11 11 0 -1
BITMAP
1100
FFE0
1100
3F80
2480
2480
7FC0
0400
3F80
0400
FFE0
ENDCHAR
STARTCHAR uni580B
ENCODING 22539
SWIDTH 1000 0
DWIDTH 12 0
BBX 11 11 0 -1
BITMAP
4EE0
4AA0
4AA0
EEE0
4AA0
4AA0
4EE0
4AA0
6AA0
CAA0
1760
ENDCHAR
STARTCHAR uni580D
ENCODING 22541
SWIDTH 1000 0
DWIDTH 12 0
BBX 11 11 0 -1
BITMAP
2780
2900
FFC0
2A40
2A40
2FC0
3200
E540
0940
1120
60E0
ENDCHAR
STARTCHAR uni5811
ENCODING 22545
SWIDTH 1000 0
DWIDTH 12 0
BBX 11 11 0 -1
BITMAP
2060
FB80
5200
FBE0
1240
FA40
1240
0400
7FC0
0400
FFE0
ENDCHAR
STARTCHAR uni5815
ENCODING 22549
SWIDTH 1000 0
DWIDTH 12 0
BBX 11 11 0 -1
BITMAP
0100
F7E0
9100
A3E0
9620
E3E0
8220
0400
3F80
0400
FFE0
ENDCHAR
STARTCHAR uni5819
ENCODING 22553
SWIDTH 1000 0
DWIDTH 12 0
BBX 11 11 0 -1
BITMAP
4FE0
4280
4FE0
EAA0
4AA0
4FE0
4100
4FE0
6100
C100
0FE0
ENDCHAR
STARTCHAR uni581E
ENCODING 22558
SWIDTH 1000 0
DWIDTH 12 0
BBX 11 11 0 -1
BITMAP
4A80
5FE0
EA80
4B80
4800
4FE0
6200
DFE0
0680
0A40
3220
ENDCHAR
STARTCHAR uni5820
ENCODING 22560
SWIDTH 1000 0
DWIDTH 12 0
BBX 11 11 0 -1
BITMAP
2200
23E0
2440
F7E0
2D00
37E0
2480
27E0
3480
E540
0620
ENDCHAR
STARTCHAR uni5821
ENCODING 22561
SWIDTH 1000 0
DWIDTH 12 0
BBX 11 11 0 -1
BITMAP
2FC0
2840
4FC0
C100
5FE0
4540
5920
0400
3F80
0400
FFE0
ENDCHAR
STARTCHAR uni5824
ENCODING 22564
SWIDTH 1000 0
DWIDTH 12 0
BBX 11 11 0 -1
BITMAP
47C0
4440
47C0
F440
47C0
4000
5FE0
6900
C9C0
1500
23E0
ENDCHAR
STARTCHAR uni582A
ENCODING 22570
SWIDTH 1000 0
DWIDTH 12 0
BBX 11 11 0 -1
BITMAP
4480
5FE0
4480
E780
4480
4480
5FE0
4A80
6CC0
C800
0FE0
ENDCHAR
STARTCHAR uni5830
ENCODING 22576
SWIDTH 1000 0
DWIDTH 12 0
BBX 11 11 0 -1
BITMAP
4FE0
4A20
4BE0
EA20
4BE0
4900
4FE0
4940
69C0
CA20
0FE0
ENDCHAR
STARTCHAR uni5835
ENCODING 22581
SWIDTH 1000 0
DWIDTH 12 0
BBX 11 11 0 -1
BITMAP
4100
4FE0
4120
E140
4FE0
4200
47E0
5C20
47E0
E420
07E0
ENDCHAR
STARTCHAR uni5844
ENCODING 22596
SWIDTH 1000 0
DWIDTH 12 0
BBX 11 11 0 -1
BITMAP
2FE0
2AA0
2AA0
FFE0
2100
2FE0
2200
23C0
3240
E440
09C0
ENDCHAR
STARTCHAR uni584C
ENCODING 22604
SWIDTH 1083 0
DWIDTH 13 0
BBX 12 11 0 -1
BITMAP
27E0
2420
27E0
F420
27E0
2000
2F70
3550
E330
0D50
0330
ENDCHAR
STARTCHAR uni584D
ENCODING 22605
SWIDTH 1000 0
DWIDTH 12 0
BBX 11 11 0 -1
BITMAP
7540
5100
57E0
7100
5FE0
5280
7540
5920
57C0
5100
BFE0
ENDCHAR
STARTCHAR uni5851
ENCODING 22609
SWIDTH 1000 0
DWIDTH 12 0
BBX 11 11 0 -1
BITMAP
8800
53E0
FA20
23E0
AA20
FBE0
2220
4460
3F80
0400
FFE0
ENDCHAR
STARTCHAR uni5854
ENCODING 22612
SWIDTH 1000 0
DWIDTH 12 0
BBX 11 11 0 -1
BITMAP
4480
5FC0
4480
E300
4480
4840
57A0
4000
6FC0
C840
0FC0
ENDCHAR
STARTCHAR uni5858
ENCODING 22616
SWIDTH 1000 0
DWIDTH 12 0
BBX 11 11 0 -1
BITMAP
4100
4FC0
4940
EFE0
4940
4FC0
4900
4FE0
6C20
CC20
17E0
ENDCHAR
STARTCHAR uni585E
ENCODING 22622
SWIDTH 1000 0
DWIDTH 12 0
BBX 11 11 0 -1
BITMAP
0400
FFE0
9120
BFA0
1100
FFE0
2480
5F40
8420
0400
FFE0
ENDCHAR
STARTCHAR uni5865
ENCODING 22629
SWIDTH 1000 0
DWIDTH 12 0
BBX 11 11 0 -1
BITMAP
2FE0
2000
27C0
F440
27C0
2000
2FE0
3AA0
EFE0
0920
0960
ENDCHAR
STARTCHAR uni586B
ENCODING 22635
SWIDTH 1000 0
DWIDTH 12 0
BBX 11 11 0 -1
BITMAP
4200
5FE0
4200
EFC0
4840
4FC0
4840
5FE0
6000
C480
1860
ENDCHAR
STARTCHAR uni586C
ENCODING 22636
SWIDTH 1000 0
DWIDTH 12 0
BBX 11 11 0 -1
BITMAP
5FE0
5100
F7C0
5440
57C0
5440
57C0
7100
D540
2920
5320
ENDCHAR
STARTCHAR uni587E
ENCODING 22654
SWIDTH 1000 0
DWIDTH 12 0
BBX 11 11 0 -1
BITMAP
2100
FFC0
4940
7D40
1240
FD20
24A0
0400
7FC0
0400
FFE0
ENDCHAR
STARTCHAR uni5880
ENCODING 22656
SWIDTH 1000 0
DWIDTH 12 0
BBX 11 11 0 -1
BITMAP
5FE0
5020
5FE0
F540
5380
5540
5120
77C0
D100
2FE0
2100
ENDCHAR
STARTCHAR uni5881
ENCODING 22657
SWIDTH 1000 0
DWIDTH 12 0
BBX 11 11 0 -1
BITMAP
4F80
4880
4F80
E880
5FC0
5540
5FC0
6880
C700
0880
3060
ENDCHAR
STARTCHAR uni5883
ENCODING 22659
SWIDTH 1000 0
DWIDTH 12 0
BBX 11 11 0 -1
BITMAP
4200
5FC0
E500
5FC0
4880
4F80
4880
4F80
6520
C920
11E0
ENDCHAR
STARTCHAR uni5885
ENCODING 22661
SWIDTH 1000 0
DWIDTH 12 0
BBX 11 11 0 -1
BITMAP
FBE0
A840
FA80
AFE0
F8A0
2080
F980
0400
7FC0
0400
FFE0
ENDCHAR
STARTCHAR uni5889
ENCODING 22665
SWIDTH 1000 0
DWIDTH 12 0
BBX 11 11 0 -1
BITMAP
4200
5FE0
5100
F7C0
5140
5FE0
5140
77C0
D540
27C0
2540
ENDCHAR
STARTCHAR uni5892
ENCODING 22674
SWIDTH 1000 0
DWIDTH 12 0
BBX 11 11 0 -1
BITMAP
4200
5FE0
4880
E500
5FE0
5520
58A0
7760
D520
1720
1060
ENDCHAR
STARTCHAR uni5893
ENCODING 22675
SWIDTH 1000 0
DWIDTH 12 0
BBX 11 11 0 -1
BITMAP
1100
FFE0
1100
3F80
2080
FFE0
1100
2480
DF60
0400
7FC0
ENDCHAR
STARTCHAR uni5899
ENCODING 22681
SWIDTH 1000 0
DWIDTH 12 0
BBX 11 11 0 -1
BITMAP
0200
5FE0
5240
EA80
5FE0
4000
5FC0
5540
7740
D540
1FC0
ENDCHAR
STARTCHAR uni589A
ENCODING 22682
SWIDTH 1000 0
DWIDTH 12 0
BBX 11 11 0 -1
BITMAP
57C0
4A80
52C0
EAA0
52A0
5580
4200
5FE0
6700
CA80
1260
ENDCHAR
STARTCHAR uni589E
ENCODING 22686
SWIDTH 1000 0
DWIDTH 12 0
BBX 11 11 0 -1
BITMAP
4500
5FE0
F220
56A0
5FE0
5020
4FC0
6840
CFC0
0840
0FC0
ENDCHAR
STARTCHAR uni589F
ENCODING 22687
SWIDTH 1000 0
DWIDTH 12 0
BBX 11 11 0 -1
BITMAP
43C0
4200
5FE0
F420
5FC0
5400
57C0
5AA0
76C0
D280
2FE0
ENDCHAR
STARTCHAR uni58A8
ENCODING 22696
SWIDTH 1000 0
DWIDTH 12 0
BBX 11 11 0 -1
BITMAP
7FC0
4440
7FC0
4440
7FC0
0400
FFE0
4940
BFA0
0400
FFE0
ENDCHAR
STARTCHAR uni58A9
ENCODING 22697
SWIDTH 1000 0
DWIDTH 12 0
BBX 11 11 0 -1
BITMAP
4440
5F40
40E0
EFA0
4AA0
4EA0
4240
6440
9E40
04A0
0D20
ENDCHAR
STARTCHAR uni58BC
ENCODING 22716
SWIDTH 1000 0
DWIDTH 12 0
BBX 11 11 0 -1
BITMAP
FDC0
5540
7E60
55C0
FF40
5480
7F60
0400
3FC0
0400
FFE0
ENDCHAR
STARTCHAR uni58C1
ENCODING 22721
SWIDTH 1000 0
DWIDTH 12 0
BBX 11 11 0 -1
BITMAP
7900
4FC0
7A80
47C0
7900
AFC0
3900
0400
7FC0
0400
FFE0
ENDCHAR
STARTCHAR uni58C5
ENCODING 22725
SWIDTH 1000 0
DWIDTH 12 0
BBX 11 11 0 -1
BITMAP
0400
FFE0
2200
5480
2FE0
7480
27E0
C400
7FC0
0400
FFE0
ENDCHAR
STARTCHAR uni58D1
ENCODING 22737
SWIDTH 1000 0
DWIDTH 12 0
BBX 11 11 0 -1
BITMAP
23E0
FD40
B540
4880
FC80
4940
7A20
0400
3FC0
0400
FFE0
ENDCHAR
STARTCHAR uni58D5
ENCODING 22741
SWIDTH 1000 0
DWIDTH 12 0
BBX 11 11 0 -1
BITMAP
0100
5FE0
4480
FFE0
5020
4FC0
4500
59A0
42C0
ECA0
0300
ENDCHAR
STARTCHAR uni58E4
ENCODING 22756
SWIDTH 1000 0
DWIDTH 12 0
BBX 11 11 0 -1
BITMAP
4100
5FE0
4AA0
EEE0
4280
5FE0
4280
5FE0
6540
D880
0E60
ENDCHAR
STARTCHAR uni58EB
ENCODING 22763
SWIDTH 1000 0
DWIDTH 12 0
BBX 11 11 0 -1
BITMAP
0400
0400
0400
FFE0
0400
0400
0400
0400
0400
0400
7FC0
ENDCHAR
STARTCHAR uni58EC
ENCODING 22764
SWIDTH 1000 0
DWIDTH 12 0
BBX 11 11 0 -1
BITMAP
03C0
7C00
0400
0400
0400
FFE0
0400
0400
0400
0400
7FC0
ENDCHAR
STARTCHAR uni58EE
ENCODING 22766
SWIDTH 1000 0
DWIDTH 12 0
BBX 11 11 0 -1
BITMAP
2100
2100
A100
6FE0
2100
2100
2100
6100
A100
2100
2FE0
ENDCHAR
STARTCHAR uni58F0
ENCODING 22768
SWIDTH 1000 0
DWIDTH 12 0
BBX 11 11 0 -1
BITMAP
0400
FFE0
0400
7FC0
0000
7FC0
4440
7FC0
4000
4000
8000
ENDCHAR
STARTCHAR uni58F3
ENCODING 22771
SWIDTH 1083 0
DWIDTH 13 0
BBX 11 11 0 -1
BITMAP
0400
FFE0
0400
7FC0
0000
FFE0
8020
1F00
1120
2120
C1E0
ENDCHAR
STARTCHAR uni58F6
ENCODING 22774
SWIDTH 1000 0
DWIDTH 12 0
BBX 11 11 0 -1
BITMAP
0400
FFE0
0400
3FC0
0000
FFE0
8A20
2A80
1B00
0A00
FFE0
ENDCHAR
STARTCHAR uni58F9
ENCODING 22777
SWIDTH 1000 0
DWIDTH 12 0
BBX 11 11 0 -1
BITMAP
0400
FFE0
0400
FFE0
8020
BFA0
2080
3F80
1100
0A00
FFE0
ENDCHAR
STARTCHAR uni5902
ENCODING 22786
SWIDTH 1000 0
DWIDTH 12 0
BBX 11 11 0 -1
BITMAP
0800
0800
1000
1FC0
2080
5100
8A00
0400
0A00
3180
C060
ENDCHAR
STARTCHAR uni5904
ENCODING 22788
SWIDTH 1000 0
DWIDTH 12 0
BBX 11 11 0 -1
BITMAP
2080
2080
3C80
24C0
44A0
4880
A880
1080
1080
2C00
43E0
ENDCHAR
STARTCHAR uni5907
ENCODING 22791
SWIDTH 1000 0
DWIDTH 12 0
BBX 11 11 0 -1
BITMAP
1000
3F80
5100
8E00
3180
C060
7FC0
4440
7FC0
4440
7FC0
ENDCHAR
STARTCHAR uni590D
ENCODING 22797
SWIDTH 1000 0
DWIDTH 12 0
BBX 11 11 0 -1
BITMAP
1000
3FE0
5040
9FC0
1040
1FC0
0800
1F80
2880
4700
B8E0
ENDCHAR
STARTCHAR uni590F
ENCODING 22799
SWIDTH 1000 0
DWIDTH 12 0
BBX 11 11 0 -1
BITMAP
FFE0
0400
3F80
2080
3F80
2080
3F80
1080
2900
C600
79E0
ENDCHAR
STARTCHAR uni5914
ENCODING 22804
SWIDTH 1000 0
DWIDTH 12 0
BBX 11 11 0 -1
BITMAP
1100
FFE0
24A0
BEE0
AA80
BEA0
D5E0
2F40
5920
2600
79E0
ENDCHAR
STARTCHAR uni5915
ENCODING 22805
SWIDTH 1000 0
DWIDTH 12 0
BBX 9 11 1 -1
BITMAP
1000
1F80
2080
2080
5080
8900
0500
0200
0400
1800
E000
ENDCHAR
STARTCHAR uni5916
ENCODING 22806
SWIDTH 1000 0
DWIDTH 12 0
BBX 11 11 0 -1
BITMAP
4100
7900
4900
4900
A900
9980
0940
1120
1100
2100
C100
ENDCHAR
STARTCHAR uni5919
ENCODING 22809
SWIDTH 1000 0
DWIDTH 12 0
BBX 11 11 0 -1
BITMAP
7FC0
4040
7F40
4840
4F40
5140
6A40
4640
4440
8840
B020
ENDCHAR
STARTCHAR uni591A
ENCODING 22810
SWIDTH 1000 0
DWIDTH 12 0
BBX 11 11 0 -1
BITMAP
0400
0F80
7080
0900
0600
19E0
E220
0C20
0240
0180
3E00
ENDCHAR
STARTCHAR uni591C
ENCODING 22812
SWIDTH 1000 0
DWIDTH 12 0
BBX 11 11 0 -1
BITMAP
0400
FFE0
2400
27C0
4A40
4940
D480
4280
4100
4680
5860
ENDCHAR
STARTCHAR uni591F
ENCODING 22815
SWIDTH 1000 0
DWIDTH 12 0
BBX 11 11 0 -1
BITMAP
41E0
7A20
8D40
E880
AB80
ACE0
A920
EE20
0940
0880
3700
ENDCHAR
STARTCHAR uni5924
ENCODING 22820
SWIDTH 1000 0
DWIDTH 12 0
BBX 11 12 0 -1
BITMAP
0F80
3500
0200
FFE0
8420
3FC0
2440
3FC0
2440
3FC0
1980
6060
ENDCHAR
STARTCHAR uni5925
ENCODING 22821
SWIDTH 1000 0
DWIDTH 12 0
BBX 11 11 0 -1
BITMAP
F900
A9E0
FE20
A940
F980
2600
F9E0
2620
7140
A180
2E00
ENDCHAR
STARTCHAR uni5927
ENCODING 22823
SWIDTH 1000 0
DWIDTH 12 0
BBX 11 11 0 -1
BITMAP
0400
0400
0400
FFE0
0400
0400
0A00
0A00
1100
2080
C060
ENDCHAR
STARTCHAR uni5929
ENCODING 22825
SWIDTH 1000 0
DWIDTH 12 0
BBX 11 11 0 -1
BITMAP
FFE0
0400
0400
0400
7FC0
0400
0400
0A00
1100
2080
C060
ENDCHAR
STARTCHAR uni592A
ENCODING 22826
SWIDTH 1000 0
DWIDTH 12 0
BBX 11 11 0 -1
BITMAP
0400
0400
FFE0
0400
0A00
0A00
1100
1100
2080
4440
8220
ENDCHAR
STARTCHAR uni592B
ENCODING 22827
SWIDTH 1000 0
DWIDTH 12 0
BBX 11 11 0 -1
BITMAP
0400
0400
7FC0
0400
0400
FFE0
0400
0A00
1100
2080
C060
ENDCHAR
STARTCHAR uni592D
ENCODING 22829
SWIDTH 1000 0
DWIDTH 12 0
BBX 11 11 0 -1
BITMAP
03C0
7C00
0400
0400
FFE0
0400
0400
0A00
1100
2080
C060
ENDCHAR
STARTCHAR uni592E
ENCODING 22830
SWIDTH 1000 0
DWIDTH 12 0
BBX 11 11 0 -1
BITMAP
0400
0400
7FC0
4440
4440
4440
FFE0
0400
0A00
3180
C060
ENDCHAR
STARTCHAR uni592F
ENCODING 22831
SWIDTH 1000 0
DWIDTH 12 0
BBX 11 11 0 -1
BITMAP
0400
FFE0
0A00
3180
C860
0800
7F80
0880
1080
2080
C380
ENDCHAR
STARTCHAR uni5931
ENCODING 22833
SWIDTH 1000 0
DWIDTH 12 0
BBX 11 11 0 -1
BITMAP
2400
2400
3FC0
4400
8400
FFE0
0400
0400
0A00
3180
C060
ENDCHAR
STARTCHAR uni5934
ENCODING 22836
SWIDTH 1000 0
DWIDTH 12 0
BBX 11 11 0 -1
BITMAP
4400
2400
9400
4400
2400
FFE0
0400
0A00
1100
2080
C060
ENDCHAR
STARTCHAR uni5937
ENCODING 22839
SWIDTH 1000 0
DWIDTH 12 0
BBX 11 11 0 -1
BITMAP
0400
FFE0
0400
7FC0
0440
7FC0
4400
FFE0
0A20
3180
C060
ENDCHAR
STARTCHAR uni5938
ENCODING 22840
SWIDTH 1000 0
DWIDTH 12 0
BBX 11 11 0 -1
BITMAP
0400
FFE0
1100
3F80
4040
BFA0
1000
3FC0
0040
0040
0380
ENDCHAR
STARTCHAR uni5939
ENCODING 22841
SWIDTH 1000 0
DWIDTH 12 0
BBX 11 11 0 -1
BITMAP
0400
7FC0
0400
2480
1500
FFE0
0A00
0A00
1100
2080
C060
ENDCHAR
STARTCHAR uni593A
ENCODING 22842
SWIDTH 1000 0
DWIDTH 12 0
BBX 11 11 0 -1
BITMAP
0400
7FE0
0A00
1100
E0E0
0100
FFE0
1100
0900
0100
0700
ENDCHAR
STARTCHAR uni593C
ENCODING 22844
SWIDTH 1000 0
DWIDTH 12 0
BBX 11 11 0 -1
BITMAP
0400
FFE0
0900
3080
E4E0
2480
2480
2480
2480
4480
8480
ENDCHAR
STARTCHAR uni5941
ENCODING 22849
SWIDTH 1000 0
DWIDTH 12 0
BBX 11 11 0 -1
BITMAP
0400
FFE0
0900
1080
3FC0
E820
2480
2300
2480
2800
3FE0
ENDCHAR
STARTCHAR uni5942
ENCODING 22850
SWIDTH 1000 0
DWIDTH 12 0
BBX 11 11 0 -1
BITMAP
1F80
2100
7FC0
A440
2440
2440
FFE0
0600
0900
3080
C060
ENDCHAR
STARTCHAR uni5944
ENCODING 22852
SWIDTH 1000 0
DWIDTH 12 0
BBX 11 11 0 -1
BITMAP
0400
FFE0
1100
2480
7FE0
A480
3F80
2480
3F80
0420
07E0
ENDCHAR
STARTCHAR uni5947
ENCODING 22855
SWIDTH 1000 0
DWIDTH 12 0
BBX 11 11 0 -1
BITMAP
0400
7FC0
0A00
1100
2080
FFE0
0080
3C80
2480
3C80
0180
ENDCHAR
STARTCHAR uni5948
ENCODING 22856
SWIDTH 1000 0
DWIDTH 12 0
BBX 11 11 0 -1
BITMAP
0400
FFE0
0900
1080
3F40
C020
3F80
0400
4440
8420
0C00
ENDCHAR
STARTCHAR uni5949
ENCODING 22857
SWIDTH 1000 0
DWIDTH 12 0
BBX 11 11 0 -1
BITMAP
0400
FFE0
0800
7FC0
1100
FFE0
2480
5F40
8420
7FC0
0400
ENDCHAR
STARTCHAR uni594B
ENCODING 22859
SWIDTH 1000 0
DWIDTH 12 0
BBX 11 11 0 -1
BITMAP
0400
FFE0
0A00
1100
60C0
BFA0
2480
3F80
2480
2480
3F80
ENDCHAR
STARTCHAR uni594E
ENCODING 22862
SWIDTH 1000 0
DWIDTH 12 0
BBX 11 11 0 -1
BITMAP
0400
FFE0
1080
2440
DFA0
0400
7FC0
0400
3F80
0400
FFE0
ENDCHAR
STARTCHAR uni594F
ENCODING 22863
SWIDTH 1000 0
DWIDTH 12 0
BBX 11 11 0 -1
BITMAP
0400
FFE0
0800
3F80
1100
FFE0
2480
7FC0
8A20
1100
60C0
ENDCHAR
STARTCHAR uni5951
ENCODING 22865
SWIDTH 1000 0
DWIDTH 12 0
BBX 11 11 0 -1
BITMAP
27E0
F920
2120
F920
2120
FA40
2400
FFE0
0A00
3180
C060
ENDCHAR
STARTCHAR uni5954
ENCODING 22868
SWIDTH 1000 0
DWIDTH 12 0
BBX 11 11 0 -1
BITMAP
0400
FFE0
1100
2480
FFE0
1500
1100
FFE0
2100
2100
4100
ENDCHAR
STARTCHAR uni5955
ENCODING 22869
SWIDTH 1000 0
DWIDTH 12 0
BBX 11 11 0 -1
BITMAP
0400
FFE0
0900
4940
8920
1100
0400
FFE0
0A00
3180
C060
ENDCHAR
STARTCHAR uni5956
ENCODING 22870
SWIDTH 1000 0
DWIDTH 12 0
BBX 11 11 0 -1
BITMAP
4A00
2BE0
0C20
2940
C880
0500
FFE0
0400
0A00
3180
C060
ENDCHAR
STARTCHAR uni5957
ENCODING 22871
SWIDTH 1000 0
DWIDTH 12 0
BBX 11 11 0 -1
BITMAP
0400
FFE0
1100
3F80
D060
1F80
1000
FFE0
0900
1080
7F40
ENDCHAR
STARTCHAR uni5958
ENCODING 22872
SWIDTH 1000 0
DWIDTH 12 0
BBX 11 11 0 -1
BITMAP
9080
FFE0
1080
F080
57E0
9000
0400
FFE0
0A00
3180
C060
ENDCHAR
STARTCHAR uni595A
ENCODING 22874
SWIDTH 1000 0
DWIDTH 12 0
BBX 11 11 0 -1
BITMAP
7FE0
4880
8440
1200
2480
7FC0
0400
FFE0
0A00
3180
C060
ENDCHAR
STARTCHAR uni5960
ENCODING 22880
SWIDTH 1000 0
DWIDTH 12 0
BBX 11 11 0 -1
BITMAP
1100
7FC0
0A00
3F80
2A80
3180
3F80
0400
FFE0
1100
E0E0
ENDCHAR
STARTCHAR uni5962
ENCODING 22882
SWIDTH 1000 0
DWIDTH 12 0
BBX 11 11 0 -1
BITMAP
0400
FFE0
1080
2440
DFA0
0500
FFE0
1040
3FC0
D040
1FC0
ENDCHAR
STARTCHAR uni5965
ENCODING 22885
SWIDTH 1000 0
DWIDTH 12 0
BBX 11 11 0 -1
BITMAP
0800
7FC0
5540
4440
7FC0
4440
5540
FFE0
0A00
3180
C060
ENDCHAR
STARTCHAR uni5973
ENCODING 22899
SWIDTH 1000 0
DWIDTH 12 0
BBX 11 11 0 -1
BITMAP
0400
0400
FFE0
0880
0880
1080
1100
0900
0600
1980
E060
ENDCHAR
STARTCHAR uni5974
ENCODING 22900
SWIDTH 1000 0
DWIDTH 12 0
BBX 11 11 0 -1
BITMAP
47E0
4020
F020
5220
5220
5140
5140
2080
2080
5140
8620
ENDCHAR
STARTCHAR uni5976
ENCODING 22902
SWIDTH 1000 0
DWIDTH 12 0
BBX 11 11 0 -1
BITMAP
4FC0
4240
F240
5280
52E0
5220
5220
2220
2420
5420
88E0
ENDCHAR
STARTCHAR uni5978
ENCODING 22904
SWIDTH 1000 0
DWIDTH 12 0
BBX 11 11 0 -1
BITMAP
4FE0
4100
F100
5100
5100
5FE0
5100
2100
2100
5100
8900
ENDCHAR
STARTCHAR uni5979
ENCODING 22905
SWIDTH 1000 0
DWIDTH 12 0
BBX 11 11 0 -1
BITMAP
2100
2500
F5C0
5740
5D40
5540
55C0
2500
2520
5420
8BE0
ENDCHAR
STARTCHAR uni597D
ENCODING 22909
SWIDTH 1000 0
DWIDTH 12 0
BBX 11 11 0 -1
BITMAP
47E0
4020
F040
5080
57E0
5080
5080
2080
2080
5080
8B80
ENDCHAR
STARTCHAR uni5981
ENCODING 22913
SWIDTH 1000 0
DWIDTH 12 0
BBX 11 11 0 -1
BITMAP
4400
47E0
F420
5820
5020
5220
9120
E020
2020
5020
88E0
ENDCHAR
STARTCHAR uni5982
ENCODING 22914
SWIDTH 1000 0
DWIDTH 12 0
BBX 11 11 0 -1
BITMAP
2000
23E0
FA20
4A20
4A20
9220
9220
5220
2220
5220
8BE0
ENDCHAR
STARTCHAR uni5983
ENCODING 22915
SWIDTH 1000 0
DWIDTH 12 0
BBX 11 11 0 -1
BITMAP
47E0
4020
F020
5020
57E0
5400
9400
E400
2420
5420
8FE0
ENDCHAR
STARTCHAR uni5984
ENCODING 22916
SWIDTH 1000 0
DWIDTH 12 0
BBX 11 11 0 -1
BITMAP
0400
FFE0
2000
2000
3FC0
0400
FFE0
1080
3100
0E00
71C0
ENDCHAR
STARTCHAR uni5986
ENCODING 22918
SWIDTH 1000 0
DWIDTH 12 0
BBX 11 11 0 -1
BITMAP
1100
1100
9200
5FE0
1240
3440
5480
9380
1100
1280
1C60
ENDCHAR
STARTCHAR uni5987
ENCODING 22919
SWIDTH 1083 0
DWIDTH 13 0
BBX 12 11 0 -1
BITMAP
2000
23F0
F810
2810
2810
4BF0
2810
1010
1010
2810
C3F0
ENDCHAR
STARTCHAR uni5988
ENCODING 22920
SWIDTH 1000 0
DWIDTH 12 0
BBX 11 11 0 -1
BITMAP
4FC0
4080
F480
5480
5480
57E0
5020
57A0
2020
5020
88C0
ENDCHAR
STARTCHAR uni598A
ENCODING 22922
SWIDTH 1000 0
DWIDTH 12 0
BBX 11 11 0 -1
BITMAP
40C0
4F00
F100
5100
5100
5FE0
9100
E100
2100
5100
8FE0
ENDCHAR
STARTCHAR uni598D
ENCODING 22925
SWIDTH 1000 0
DWIDTH 12 0
BBX 11 11 0 -1
BITMAP
4FE0
4240
F240
5240
5FE0
5240
9240
E240
2240
5240
8C40
ENDCHAR
STARTCHAR uni5992
ENCODING 22930
SWIDTH 1000 0
DWIDTH 12 0
BBX 11 12 0 -1
BITMAP
4000
47E0
4400
F7E0
5420
5420
57E0
5400
2400
2400
5400
8800
ENDCHAR
STARTCHAR uni5993
ENCODING 22931
SWIDTH 1000 0
DWIDTH 12 0
BBX 11 11 0 -1
BITMAP
4100
4FE0
F100
5100
57C0
5040
5440
2280
2100
5280
8C60
ENDCHAR
STARTCHAR uni5996
ENCODING 22934
SWIDTH 1000 0
DWIDTH 12 0
BBX 11 11 0 -1
BITMAP
40E0
4F00
F100
5100
5FE0
5100
9280
E280
3440
4840
9020
ENDCHAR
STARTCHAR uni5997
ENCODING 22935
SWIDTH 1000 0
DWIDTH 12 0
BBX 11 11 0 -1
BITMAP
2100
2280
F440
5920
5080
5000
57E0
2040
2040
5080
8880
ENDCHAR
STARTCHAR uni5999
ENCODING 22937
SWIDTH 1000 0
DWIDTH 12 0
BBX 11 11 0 -1
BITMAP
4100
4100
F540
5540
5920
5100
5100
2020
2040
5180
8E00
ENDCHAR
STARTCHAR uni599E
ENCODING 22942
SWIDTH 1000 0
DWIDTH 12 0
BBX 11 11 0 -1
BITMAP
27C0
2240
FA40
5240
57C0
5240
5240
2240
2240
5240
8FE0
ENDCHAR
STARTCHAR uni59A3
ENCODING 22947
SWIDTH 1000 0
DWIDTH 12 0
BBX 11 12 0 -1
BITMAP
0080
4480
4480
F4A0
57C0
5480
5480
9480
E480
3480
47A0
4CE0
ENDCHAR
STARTCHAR uni59A4
ENCODING 22948
SWIDTH 1000 0
DWIDTH 12 0
BBX 11 11 0 -1
BITMAP
27E0
2020
F440
5280
5FE0
50A0
5080
2080
2080
5080
8980
ENDCHAR
STARTCHAR uni59A5
ENCODING 22949
SWIDTH 1000 0
DWIDTH 12 0
BBX 11 11 0 -1
BITMAP
00C0
FF00
4880
2500
0800
FFE0
0880
1080
3900
0600
79C0
ENDCHAR
STARTCHAR uni59A8
ENCODING 22952
SWIDTH 1000 0
DWIDTH 12 0
BBX 11 11 0 -1
BITMAP
2200
2100
F7E0
5100
51E0
5120
5220
2220
2420
5420
88C0
ENDCHAR
STARTCHAR uni59A9
ENCODING 22953
SWIDTH 1083 0
DWIDTH 13 0
BBX 12 12 0 -1
BITMAP
2040
27E0
2100
F120
5FF0
5280
5280
5280
2280
2290
5490
8870
ENDCHAR
STARTCHAR uni59AA
ENCODING 22954
SWIDTH 1083 0
DWIDTH 13 0
BBX 12 12 0 -1
BITMAP
2000
27F0
2420
F620
5540
5480
9480
5540
2520
3620
5400
87F0
ENDCHAR
STARTCHAR uni59AB
ENCODING 22955
SWIDTH 1000 0
DWIDTH 12 0
BBX 11 11 0 -1
BITMAP
2480
2280
F880
57E0
5120
5120
52A0
2260
2220
5420
88E0
ENDCHAR
STARTCHAR uni59AE
ENCODING 22958
SWIDTH 1000 0
DWIDTH 12 0
BBX 11 11 0 -1
BITMAP
27E0
2420
F7E0
5400
5500
5520
55C0
2500
5520
8920
10E0
ENDCHAR
STARTCHAR uni59AF
ENCODING 22959
SWIDTH 1000 0
DWIDTH 12 0
BBX 11 11 0 -1
BITMAP
2100
27E0
F520
5520
5520
57E0
5520
2520
2520
5520
8FE0
ENDCHAR
STARTCHAR uni59B2
ENCODING 22962
SWIDTH 1000 0
DWIDTH 12 0
BBX 11 11 0 -1
BITMAP
47C0
4440
F440
57C0
5440
5440
9440
E7C0
2000
5000
8FE0
ENDCHAR
STARTCHAR uni59B9
ENCODING 22969
SWIDTH 1000 0
DWIDTH 12 0
BBX 11 11 0 -1
BITMAP
4100
4FE0
F100
5100
5FE0
5100
5300
2580
2140
5120
8900
ENDCHAR
STARTCHAR uni59BB
ENCODING 22971
SWIDTH 1000 0
DWIDTH 12 0
BBX 11 11 0 -1
BITMAP
0400
FFE0
0480
7FE0
0480
3F80
0800
FFE0
1080
0F00
70C0
ENDCHAR
STARTCHAR uni59BE
ENCODING 22974
SWIDTH 1000 0
DWIDTH 12 0
BBX 11 11 0 -1
BITMAP
0400
FFE0
1100
FFE0
0800
FFE0
1080
2100
1E00
3180
C060
ENDCHAR
STARTCHAR uni59C6
ENCODING 22982
SWIDTH 1000 0
DWIDTH 12 0
BBX 11 11 0 -1
BITMAP
47C0
4440
F640
5540
5FE0
5440
5640
2940
2840
57E0
8880
ENDCHAR
STARTCHAR uni59CA
ENCODING 22986
SWIDTH 1000 0
DWIDTH 12 0
BBX 11 11 0 -1
BITMAP
2080
27E0
F480
5480
57E0
51A0
51A0
22A0
22E0
5480
8880
ENDCHAR
STARTCHAR uni59CB
ENCODING 22987
SWIDTH 1000 0
DWIDTH 12 0
BBX 11 11 0 -1
BITMAP
4100
4240
F420
57E0
5000
5000
97E0
E420
2420
5420
8FE0
ENDCHAR
STARTCHAR uni59D0
ENCODING 22992
SWIDTH 1000 0
DWIDTH 12 0
BBX 11 11 0 -1
BITMAP
47C0
4440
F440
57C0
5440
5440
57C0
2440
2440
5440
8FE0
ENDCHAR
STARTCHAR uni59D1
ENCODING 22993
SWIDTH 1000 0
DWIDTH 12 0
BBX 11 11 0 -1
BITMAP
4080
4080
F7E0
5080
5080
5080
57E0
2420
2420
5420
8FE0
ENDCHAR
STARTCHAR uni59D2
ENCODING 22994
SWIDTH 1000 0
DWIDTH 12 0
BBX 11 11 0 -1
BITMAP
2440
2440
F640
5540
5540
5440
5440
2540
26A0
5520
9220
ENDCHAR
STARTCHAR uni59D3
ENCODING 22995
SWIDTH 1000 0
DWIDTH 12 0
BBX 11 11 0 -1
BITMAP
4100
4500
F500
57E0
5900
5100
97C0
E100
2100
5100
8FE0
ENDCHAR
STARTCHAR uni59D4
ENCODING 22996
SWIDTH 1000 0
DWIDTH 12 0
BBX 11 11 0 -1
BITMAP
7FC0
0400
FFE0
1500
2480
4840
FFE0
1100
3200
0E00
F1C0
ENDCHAR
STARTCHAR uni59D7
ENCODING 22999
SWIDTH 1000 0
DWIDTH 12 0
BBX 11 11 0 -1
BITMAP
27C0
2540
F540
5540
5FE0
5540
2540
2540
5540
4940
92C0
ENDCHAR
STARTCHAR uni59D8
ENCODING 23000
SWIDTH 1000 0
DWIDTH 12 0
BBX 11 11 0 -1
BITMAP
2420
2240
F7E0
5240
5240
5FE0
5240
2240
2240
5440
8840
ENDCHAR
STARTCHAR uni59DA
ENCODING 23002
SWIDTH 1000 0
DWIDTH 12 0
BBX 11 11 0 -1
BITMAP
4280
4AA0
F6C0
5280
5280
5280
96C0
EAA0
2280
54A0
88E0
ENDCHAR
STARTCHAR uni59DC
ENCODING 23004
SWIDTH 1000 0
DWIDTH 12 0
BBX 11 11 0 -1
BITMAP
1100
FFE0
0400
3F80
0400
FFE0
0800
FFE0
1100
0E00
71C0
ENDCHAR
STARTCHAR uni59DD
ENCODING 23005
SWIDTH 1000 0
DWIDTH 12 0
BBX 11 11 0 -1
BITMAP
4500
47C0
E900
A100
BFE0
A300
A300
4580
4540
A920
1100
ENDCHAR
STARTCHAR uni59E3
ENCODING 23011
SWIDTH 1000 0
DWIDTH 12 0
BBX 11 11 0 -1
BITMAP
2100
2FE0
F280
5440
5820
5240
5280
2100
2100
5280
8C60
ENDCHAR
STARTCHAR uni59E5
ENCODING 23013
SWIDTH 1000 0
DWIDTH 12 0
BBX 11 11 0 -1
BITMAP
4200
4FE0
F240
5280
5FE0
5200
54C0
2700
2400
5420
8BE0
ENDCHAR
STARTCHAR uni59E8
ENCODING 23016
SWIDTH 1000 0
DWIDTH 12 0
BBX 11 11 0 -1
BITMAP
4100
4FE0
F100
57E0
5120
57E0
9500
67E0
2120
5280
8C60
ENDCHAR
STARTCHAR uni59EC
ENCODING 23020
SWIDTH 1000 0
DWIDTH 12 0
BBX 11 11 0 -1
BITMAP
27E0
2480
F480
55E0
5520
5520
55E0
2480
3480
4C80
87E0
ENDCHAR
STARTCHAR uni59F9
ENCODING 23033
SWIDTH 1000 0
DWIDTH 12 0
BBX 11 11 0 -1
BITMAP
2080
27E0
F420
51C0
5700
5100
5FE0
2100
2120
5120
90E0
ENDCHAR
STARTCHAR uni59FB
ENCODING 23035
SWIDTH 1000 0
DWIDTH 12 0
BBX 11 11 0 -1
BITMAP
4FE0
4820
F920
5920
5FE0
9920
AAA0
6A60
2C60
5820
8FE0
ENDCHAR
STARTCHAR uni59FF
ENCODING 23039
SWIDTH 1000 0
DWIDTH 12 0
BBX 11 11 0 -1
BITMAP
0400
E7E0
0A40
2300
C480
1860
0800
FFE0
1100
0E00
F1C0
ENDCHAR
STARTCHAR uni5A01
ENCODING 23041
SWIDTH 1000 0
DWIDTH 12 0
BBX 11 11 0 -1
BITMAP
00A0
7FE0
4080
7E80
48A0
7FA0
54A0
5440
5440
88A0
B720
ENDCHAR
STARTCHAR uni5A03
ENCODING 23043
SWIDTH 1000 0
DWIDTH 12 0
BBX 11 11 0 -1
BITMAP
4100
4FE0
F100
5100
5FE0
5100
9100
EFE0
2100
5100
8FE0
ENDCHAR
STARTCHAR uni5A04
ENCODING 23044
SWIDTH 1000 0
DWIDTH 12 0
BBX 11 11 0 -1
BITMAP
2440
1480
FFE0
1500
2480
4460
0800
FFE0
1100
0E00
F1E0
ENDCHAR
STARTCHAR uni5A05
ENCODING 23045
SWIDTH 1000 0
DWIDTH 12 0
BBX 11 11 0 -1
BITMAP
5FE0
4280
E280
AAA0
AAA0
AAA0
A6C0
4280
4280
A280
1FE0
ENDCHAR
STARTCHAR uni5A06
ENCODING 23046
SWIDTH 1000 0
DWIDTH 12 0
BBX 11 11 0 -1
BITMAP
2260
2F80
F240
51A0
5660
5000
5FE0
2280
52A0
54A0
8860
ENDCHAR
STARTCHAR uni5A07
ENCODING 23047
SWIDTH 1000 0
DWIDTH 12 0
BBX 11 11 0 -1
BITMAP
27C0
2100
FFE0
5280
5440
5A60
5240
2240
2240
5440
8840
ENDCHAR
STARTCHAR uni5A08
ENCODING 23048
SWIDTH 1000 0
DWIDTH 12 0
BBX 11 11 0 -1
BITMAP
0200
FFE0
1980
2940
C920
0400
FFE0
0880
1880
0700
78E0
ENDCHAR
STARTCHAR uni5A09
ENCODING 23049
SWIDTH 1000 0
DWIDTH 12 0
BBX 11 11 0 -1
BITMAP
4100
47E0
F520
57E0
5520
5FE0
9200
E3E0
2220
5220
84C0
ENDCHAR
STARTCHAR uni5A0C
ENCODING 23052
SWIDTH 1000 0
DWIDTH 12 0
BBX 11 11 0 -1
BITMAP
47E0
44A0
F7E0
54A0
57E0
5080
5080
27E0
2080
5080
8FE0
ENDCHAR
STARTCHAR uni5A11
ENCODING 23057
SWIDTH 1000 0
DWIDTH 12 0
BBX 11 11 0 -1
BITMAP
4100
2540
8920
4140
1380
2C00
4800
FFE0
1080
0F00
F0E0
ENDCHAR
STARTCHAR uni5A13
ENCODING 23059
SWIDTH 1000 0
DWIDTH 12 0
BBX 11 11 0 -1
BITMAP
27E0
2420
F7E0
5400
55E0
5480
57E0
2480
27E0
5480
88E0
ENDCHAR
STARTCHAR uni5A18
ENCODING 23064
SWIDTH 1000 0
DWIDTH 12 0
BBX 11 11 0 -1
BITMAP
4100
47C0
F440
57C0
5440
57C0
5520
2540
2480
5440
8F20
ENDCHAR
STARTCHAR uni5A1C
ENCODING 23068
SWIDTH 1000 0
DWIDTH 12 0
BBX 11 11 0 -1
BITMAP
5EE0
4AA0
FEA0
AAA0
AAC0
BEA0
AAA0
4AA0
4AC0
AA80
B680
ENDCHAR
STARTCHAR uni5A1F
ENCODING 23071
SWIDTH 1000 0
DWIDTH 12 0
BBX 11 11 0 -1
BITMAP
47E0
4420
F7E0
5000
57E0
5420
57E0
2420
27E0
5420
8C60
ENDCHAR
STARTCHAR uni5A20
ENCODING 23072
SWIDTH 1000 0
DWIDTH 12 0
BBX 11 11 0 -1
BITMAP
5FE0
5000
F7C0
5000
5000
5FE0
9480
F4A0
24A0
5440
8F20
ENDCHAR
STARTCHAR uni5A23
ENCODING 23075
SWIDTH 1000 0
DWIDTH 12 0
BBX 11 11 0 -1
BITMAP
2280
27E0
F8A0
57E0
5480
57E0
51A0
22A0
22E0
5480
8880
ENDCHAR
STARTCHAR uni5A25
ENCODING 23077
SWIDTH 1000 0
DWIDTH 12 0
BBX 11 11 0 -1
BITMAP
4EA0
44A0
4480
F7E0
5C80
54A0
56A0
2C40
2440
54A0
8D20
ENDCHAR
STARTCHAR uni5A29
ENCODING 23081
SWIDTH 1000 0
DWIDTH 12 0
BBX 11 11 0 -1
BITMAP
4400
4780
4880
F7E0
5520
5520
57E0
5280
2280
54A0
88E0
ENDCHAR
STARTCHAR uni5A31
ENCODING 23089
SWIDTH 1000 0
DWIDTH 12 0
BBX 11 11 0 -1
BITMAP
27C0
2440
2440
F7C0
5000
57C0
5100
5FE0
2100
5280
8C60
ENDCHAR
STARTCHAR uni5A32
ENCODING 23090
SWIDTH 1000 0
DWIDTH 12 0
BBX 11 11 0 -1
BITMAP
47C0
4440
F440
A7C0
A100
AFE0
A920
4AA0
4C20
A820
0860
ENDCHAR
STARTCHAR uni5A34
ENCODING 23092
SWIDTH 1000 0
DWIDTH 12 0
BBX 11 11 0 -1
BITMAP
25E0
2220
F4A0
57E0
54A0
55A0
55E0
26A0
24A0
5420
8460
ENDCHAR
STARTCHAR uni5A36
ENCODING 23094
SWIDTH 1000 0
DWIDTH 12 0
BBX 11 11 0 -1
BITMAP
FBE0
4820
7A20
4940
FC80
0B60
0400
FFE0
1100
0E00
F1E0
ENDCHAR
STARTCHAR uni5A3C
ENCODING 23100
SWIDTH 1000 0
DWIDTH 12 0
BBX 11 11 0 -1
BITMAP
47C0
4440
F7C0
5440
57C0
5000
9FE0
E820
2FE0
5820
8FE0
ENDCHAR
STARTCHAR uni5A40
ENCODING 23104
SWIDTH 1000 0
DWIDTH 12 0
BBX 11 11 0 -1
BITMAP
4FE0
4A20
FA20
5CE0
5AA0
5AA0
5AA0
6AE0
2C20
5820
8860
ENDCHAR
STARTCHAR uni5A46
ENCODING 23110
SWIDTH 1000 0
DWIDTH 12 0
BBX 11 11 0 -1
BITMAP
4100
2FE0
8920
4FC0
2A40
4980
9240
FFE0
1100
0E00
F1E0
ENDCHAR
STARTCHAR uni5A49
ENCODING 23113
SWIDTH 1000 0
DWIDTH 12 0
BBX 11 11 0 -1
BITMAP
4100
5FE0
5020
E800
AEE0
AAA0
AAA0
56E0
4280
A4A0
A8E0
ENDCHAR
STARTCHAR uni5A4A
ENCODING 23114
SWIDTH 1083 0
DWIDTH 13 0
BBX 12 11 0 -1
BITMAP
2100
2FE0
2100
F7E0
5100
5FF0
5100
52A0
26A0
5A40
9330
ENDCHAR
STARTCHAR uni5A55
ENCODING 23125
SWIDTH 1000 0
DWIDTH 12 0
BBX 11 11 0 -1
BITMAP
5FC0
4200
EFC0
A240
BFE0
A240
AFC0
4200
4BC0
AA00
17E0
ENDCHAR
STARTCHAR uni5A5A
ENCODING 23130
SWIDTH 1000 0
DWIDTH 12 0
BBX 11 11 0 -1
BITMAP
47E0
4480
F7E0
5480
5660
5000
57E0
2420
27E0
5420
8FE0
ENDCHAR
STARTCHAR uni5A62
ENCODING 23138
SWIDTH 1000 0
DWIDTH 12 0
BBX 11 11 0 -1
BITMAP
4100
47E0
F520
57E0
5520
57E0
9280
E480
2FE0
5080
8880
ENDCHAR
STARTCHAR uni5A67
ENCODING 23143
SWIDTH 1000 0
DWIDTH 12 0
BBX 11 11 0 -1
BITMAP
2100
2FE0
2100
FFE0
5100
5FE0
5440
57C0
2440
57C0
8C40
ENDCHAR
STARTCHAR uni5A6A
ENCODING 23146
SWIDTH 1000 0
DWIDTH 12 0
BBX 11 11 0 -1
BITMAP
2080
FBE0
2080
71C0
AAA0
2480
FFE0
1100
0E00
3180
C060
ENDCHAR
STARTCHAR uni5A74
ENCODING 23156
SWIDTH 1000 0
DWIDTH 12 0
BBX 11 11 0 -1
BITMAP
FBE0
8A20
AAA0
AAA0
20A0
5140
8A00
FFE0
1100
0E00
F1E0
ENDCHAR
STARTCHAR uni5A75
ENCODING 23157
SWIDTH 1000 0
DWIDTH 12 0
BBX 11 11 0 -1
BITMAP
2140
27E0
F4A0
57E0
54A0
57E0
5080
2FE0
2080
5080
8880
ENDCHAR
STARTCHAR uni5A76
ENCODING 23158
SWIDTH 1000 0
DWIDTH 12 0
BBX 11 11 0 -1
BITMAP
2080
27E0
F420
5080
57E0
54A0
57E0
24A0
27E0
5080
8080
ENDCHAR
STARTCHAR uni5A77
ENCODING 23159
SWIDTH 1000 0
DWIDTH 12 0
BBX 11 11 0 -1
BITMAP
2100
2FE0
F480
5FE0
5820
57C0
5100
2100
2100
5100
8B00
ENDCHAR
STARTCHAR uni5A7A
ENCODING 23162
SWIDTH 1000 0
DWIDTH 12 0
BBX 11 11 0 -1
BITMAP
F900
53E0
FD40
3480
5140
B620
0400
FFE0
1900
0600
79C0
ENDCHAR
STARTCHAR uni5A7F
ENCODING 23167
SWIDTH 1000 0
DWIDTH 12 0
BBX 11 11 0 -1
BITMAP
4FE0
4120
F5C0
5700
59E0
57C0
5440
27C0
2440
57C0
8C40
ENDCHAR
STARTCHAR uni5A92
ENCODING 23186
SWIDTH 1000 0
DWIDTH 12 0
BBX 11 11 0 -1
BITMAP
4440
4FE0
F440
57C0
5440
57C0
5100
2FE0
2300
5540
8920
ENDCHAR
STARTCHAR uni5A9A
ENCODING 23194
SWIDTH 1000 0
DWIDTH 12 0
BBX 11 11 0 -1
BITMAP
47E0
44A0
47E0
F400
55E0
5520
55E0
5520
25E0
5520
89E0
ENDCHAR
STARTCHAR uni5A9B
ENCODING 23195
SWIDTH 1000 0
DWIDTH 12 0
BBX 11 11 0 -1
BITMAP
5FE0
4520
F540
5FE0
5100
5FE0
9200
E7C0
2A40
5180
8E60
ENDCHAR
STARTCHAR uni5AAA
ENCODING 23210
SWIDTH 1000 0
DWIDTH 12 0
BBX 11 11 0 -1
BITMAP
47C0
4440
F7C0
5440
57C0
5000
5FE0
2AA0
2AA0
4AA0
9FE0
ENDCHAR
STARTCHAR uni5AB2
ENCODING 23218
SWIDTH 1000 0
DWIDTH 12 0
BBX 11 11 0 -1
BITMAP
2100
27E0
FEA0
5520
56A0
57E0
5480
27A0
24C0
55A0
9660
ENDCHAR
STARTCHAR uni5AB3
ENCODING 23219
SWIDTH 1000 0
DWIDTH 12 0
BBX 11 11 0 -1
BITMAP
0100
27C0
2440
F7C0
5440
57C0
5440
57C0
22A0
5660
89C0
ENDCHAR
STARTCHAR uni5AB5
ENCODING 23221
SWIDTH 1000 0
DWIDTH 12 0
BBX 11 11 0 -1
BITMAP
7540
57E0
5100
7FE0
5440
5920
7FE0
5240
5640
5180
B660
ENDCHAR
STARTCHAR uni5AB8
ENCODING 23224
SWIDTH 1000 0
DWIDTH 12 0
BBX 11 11 0 -1
BITMAP
2520
27E0
F100
5FE0
5100
57E0
5520
27E0
2100
51E0
8E20
ENDCHAR
STARTCHAR uni5ABE
ENCODING 23230
SWIDTH 1000 0
DWIDTH 12 0
BBX 11 11 0 -1
BITMAP
4240
4FE0
F240
5FE0
5080
57E0
94A0
E7E0
24A0
54A0
8FE0
ENDCHAR
STARTCHAR uni5AC1
ENCODING 23233
SWIDTH 1000 0
DWIDTH 12 0
BBX 11 11 0 -1
BITMAP
4100
4FE0
F820
57C0
5120
5340
5480
21C0
26A0
58A0
8300
ENDCHAR
STARTCHAR uni5AC2
ENCODING 23234
SWIDTH 1000 0
DWIDTH 12 0
BBX 11 11 0 -1
BITMAP
4500
4960
E920
AD60
A920
AFE0
A100
4FE0
4440
A380
AC60
ENDCHAR
STARTCHAR uni5AC9
ENCODING 23241
SWIDTH 1000 0
DWIDTH 12 0
BBX 11 11 0 -1
BITMAP
4100
47E0
F500
5DE0
5680
5480
5FE0
2480
2480
5540
8A20
ENDCHAR
STARTCHAR uni5ACC
ENCODING 23244
SWIDTH 1000 0
DWIDTH 12 0
BBX 11 11 0 -1
BITMAP
4280
4FE0
F280
57E0
52A0
5FE0
92A0
E7E0
2280
56C0
8AA0
ENDCHAR
STARTCHAR uni5AD2
ENCODING 23250
SWIDTH 1000 0
DWIDTH 12 0
BBX 11 11 0 -1
BITMAP
2FE0
2A20
F540
5FE0
5220
5FC0
5400
27E0
2A40
5180
AE60
ENDCHAR
STARTCHAR uni5AD4
ENCODING 23252
SWIDTH 1000 0
DWIDTH 12 0
BBX 11 11 0 -1
BITMAP
0200
2FE0
2820
F7C0
5400
57C0
5480
5480
3FE0
2280
5440
ENDCHAR
STARTCHAR uni5AD6
ENCODING 23254
SWIDTH 1000 0
DWIDTH 12 0
BBX 11 11 0 -1
BITMAP
4FE0
4280
FFE0
52A0
5FE0
5000
9FE0
E000
2FE0
5540
8B20
ENDCHAR
STARTCHAR uni5AD8
ENCODING 23256
SWIDTH 1000 0
DWIDTH 12 0
BBX 11 11 0 -1
BITMAP
27E0
2520
27E0
F520
57E0
5240
5780
5100
2FE0
5540
8920
ENDCHAR
STARTCHAR uni5ADC
ENCODING 23260
SWIDTH 1000 0
DWIDTH 12 0
BBX 11 11 0 -1
BITMAP
0080
47E0
4140
F7E0
5420
57E0
5420
57E0
2080
2FE0
5080
ENDCHAR
STARTCHAR uni5AE0
ENCODING 23264
SWIDTH 1000 0
DWIDTH 12 0
BBX 11 12 0 -1
BITMAP
1100
7DE0
1240
FD80
5240
9000
7FE0
4200
7FE0
4880
4700
B8E0
ENDCHAR
STARTCHAR uni5AE1
ENCODING 23265
SWIDTH 1000 0
DWIDTH 12 0
BBX 11 11 0 -1
BITMAP
4100
4FE0
F280
A280
AFE0
A920
AFE0
4920
4BA0
AAA0
ABA0
ENDCHAR
STARTCHAR uni5AE3
ENCODING 23267
SWIDTH 1000 0
DWIDTH 12 0
BBX 11 11 0 -1
BITMAP
4FE0
4100
F5C0
5500
5FE0
5400
97C0
E400
27E0
5020
8AC0
ENDCHAR
STARTCHAR uni5AE6
ENCODING 23270
SWIDTH 1000 0
DWIDTH 12 0
BBX 11 11 0 -1
BITMAP
4540
5FE0
F020
57C0
5440
A7C0
E100
2FE0
2920
5160
8900
ENDCHAR
STARTCHAR uni5AE9
ENCODING 23273
SWIDTH 1000 0
DWIDTH 12 0
BBX 11 11 0 -1
BITMAP
4480
5FE0
F4A0
5F20
5520
5520
5FA0
2440
2E40
54A0
8D20
ENDCHAR
STARTCHAR uni5AEB
ENCODING 23275
SWIDTH 1000 0
DWIDTH 12 0
BBX 11 11 0 -1
BITMAP
2280
2FE0
F440
57C0
5440
5440
57C0
2100
2FE0
5280
8C60
ENDCHAR
STARTCHAR uni5AF1
ENCODING 23281
SWIDTH 1000 0
DWIDTH 12 0
BBX 11 11 0 -1
BITMAP
4100
5FE0
4940
E580
BFE0
A000
AFE0
A820
4BA0
4AA0
AFE0
ENDCHAR
STARTCHAR uni5B09
ENCODING 23305
SWIDTH 1000 0
DWIDTH 12 0
BBX 11 11 0 -1
BITMAP
4080
4FE0
F080
57E0
5420
57E0
9240
E7E0
2420
5420
8FE0
ENDCHAR
STARTCHAR uni5B16
ENCODING 23318
SWIDTH 1000 0
DWIDTH 12 0
BBX 11 11 0 -1
BITMAP
7100
57C0
7280
4FC0
7100
D7C0
5100
7FE0
1080
0F00
F0E0
ENDCHAR
STARTCHAR uni5B17
ENCODING 23319
SWIDTH 1000 0
DWIDTH 12 0
BBX 11 11 0 -1
BITMAP
2100
2FE0
F540
5540
57C0
5000
53C0
2240
23C0
5240
8FE0
ENDCHAR
STARTCHAR uni5B32
ENCODING 23346
SWIDTH 1000 0
DWIDTH 12 0
BBX 11 11 0 -1
BITMAP
FBE0
AAA0
FFE0
AAA0
FBE0
4A80
FBE0
54A0
54A0
9AA0
B160
ENDCHAR
STARTCHAR uni5B34
ENCODING 23348
SWIDTH 1000 0
DWIDTH 12 0
BBX 11 11 0 -1
BITMAP
0800
FFE0
4000
7FC0
2080
FFC0
A940
FF40
B5C0
E940
B560
ENDCHAR
STARTCHAR uni5B37
ENCODING 23351
SWIDTH 1083 0
DWIDTH 13 0
BBX 12 11 0 -1
BITMAP
4100
4FF0
4A40
FFF0
5AE0
5F50
5A40
2900
2940
5AA0
95F0
ENDCHAR
STARTCHAR uni5B40
ENCODING 23360
SWIDTH 1000 0
DWIDTH 12 0
BBX 11 11 0 -1
BITMAP
4FE0
4100
FFE0
5120
5760
5400
9EE0
E4A0
2EE0
55A0
84E0
ENDCHAR
STARTCHAR uni5B50
ENCODING 23376
SWIDTH 1000 0
DWIDTH 12 0
BBX 11 11 0 -1
BITMAP
3F80
0080
0100
0200
0400
FFE0
0400
0400
0400
0400
1C00
ENDCHAR
STARTCHAR uni5B51
ENCODING 23377
SWIDTH 1000 0
DWIDTH 12 0
BBX 11 11 0 -1
BITMAP
7F80
0080
0100
0200
0460
0780
FC00
0400
0400
0400
0C00
ENDCHAR
STARTCHAR uni5B53
ENCODING 23379
SWIDTH 1000 0
DWIDTH 12 0
BBX 10 11 1 -1
BITMAP
FFC0
0100
0200
4400
2400
1400
0C00
0600
0500
04C0
1C00
ENDCHAR
STARTCHAR uni5B54
ENCODING 23380
SWIDTH 1000 0
DWIDTH 12 0
BBX 11 11 0 -1
BITMAP
FA00
0A00
1200
2200
2200
FA00
2200
2220
2220
2220
63E0
ENDCHAR
STARTCHAR uni5B55
ENCODING 23381
SWIDTH 1000 0
DWIDTH 12 0
BBX 11 11 0 -1
BITMAP
7F80
0480
08E0
3020
DF20
02C0
0400
FFE0
0400
0400
1C00
ENDCHAR
STARTCHAR uni5B57
ENCODING 23383
SWIDTH 1000 0
DWIDTH 12 0
BBX 11 11 0 -1
BITMAP
0400
FFE0
8020
BF20
0200
0400
FFE0
0400
0400
0400
1C00
ENDCHAR
STARTCHAR uni5B58
ENCODING 23384
SWIDTH 1000 0
DWIDTH 12 0
BBX 11 11 0 -1
BITMAP
0800
FFE0
1000
17C0
2040
6080
AFE0
2100
2100
2100
2300
ENDCHAR
STARTCHAR uni5B59
ENCODING 23385
SWIDTH 1000 0
DWIDTH 12 0
BBX 11 11 0 -1
BITMAP
F100
2100
4100
5540
6540
C920
4920
5120
5100
4100
C700
ENDCHAR
ENDFONT
